<svg id="SvgjsSvg1001" width="288" height="288" xmlns="http://www.w3.org/2000/svg" version="1.1" xmlns:xlink="http://www.w3.org/1999/xlink" xmlns:svgjs="http://svgjs.com/svgjs"><defs id="SvgjsDefs1002"></defs><g id="SvgjsG1008"><svg xmlns="http://www.w3.org/2000/svg" fill="none" viewBox="0 0 64 64" width="288" height="288"><path fill="#274896" d="M58.9898 21.63L32.7098 10.52C32.5076 10.4334 32.2898 10.3887 32.0698 10.3887C31.8498 10.3887 31.6321 10.4334 31.4298 10.52L5.01983 21.59C4.72255 21.7211 4.46965 21.9355 4.29177 22.2074C4.11388 22.4792 4.01865 22.7968 4.01759 23.1217C4.01653 23.4466 4.1097 23.7648 4.28581 24.0379C4.46192 24.3109 4.71341 24.527 5.00983 24.66C6.57083 25.329 15.7078 29.162 16.9898 29.72L31.4298 35.81C31.8414 35.9742 32.3009 35.9706 32.7098 35.8C37.3498 33.842 49.3238 28.78 53.7798 26.89C53.7698 28.128 53.7878 38.566 53.7798 40.08C51.7938 40.581 50.9868 43.967 52.0998 45.8L50.6298 52.4C50.5831 52.598 50.5995 52.8056 50.6766 52.9939C50.7537 53.1821 50.8877 53.3416 51.0598 53.45C51.2307 53.5619 51.4321 53.6181 51.6362 53.6109C51.8403 53.6037 52.0372 53.5336 52.1998 53.41C52.9108 52.8848 53.7662 52.5915 54.6498 52.57C55.59 52.5561 56.5081 52.8551 57.2598 53.42C57.429 53.5395 57.6307 53.6041 57.8378 53.605C58.0448 53.606 58.2472 53.5433 58.4175 53.4255C58.5877 53.3076 58.7176 53.1403 58.7896 52.9461C58.8616 52.7519 58.8721 52.5403 58.8198 52.34L56.9498 45.77C57.9118 44.12 57.3888 41.157 55.7798 40.33C55.7888 38.803 55.7738 27.252 55.7798 26.05L58.9898 24.69C59.2852 24.5579 59.536 24.3432 59.712 24.0717C59.888 23.8002 59.9817 23.4835 59.9817 23.16C59.9817 22.8364 59.888 22.5198 59.712 22.2483C59.536 21.9768 59.2852 21.7621 58.9898 21.63Z" class="colorE73D47 svgShape"></path><path fill="#274896" d="M30.6502 37.65C29.4462 37.142 15.7322 31.346 14.9902 31.04V40.78C14.9971 41.3029 15.1308 41.8164 15.3798 42.2762C15.6289 42.7361 15.986 43.1286 16.4202 43.42C20.8167 46.4088 25.9762 48.0778 31.2902 48.23C37.1132 48.3456 42.8323 46.6777 47.6802 43.45C48.1254 43.1572 48.4921 42.7598 48.7483 42.2927C49.0046 41.8255 49.1426 41.3027 49.1502 40.77V31.03C48.4562 31.331 34.6672 37.152 33.4902 37.65C32.5807 38.0248 31.5598 38.0248 30.6502 37.65Z" class="colorE73D47 svgShape"></path></svg></g></svg>