<svg width="260" height="100" viewBox="0 0 260 100" fill="none" xmlns="http://www.w3.org/2000/svg">
<rect width="260" height="100" rx="20" fill="white"/>
<path d="M92.1328 31.1875V35.5312C91.9714 35.7448 91.7188 35.9792 91.375 36.2344C91.0365 36.4844 90.5859 36.7005 90.0234 36.8828C89.4609 37.0651 88.7604 37.1562 87.9219 37.1562C87.2083 37.1562 86.5547 37.0365 85.9609 36.7969C85.3672 36.5521 84.8542 36.1953 84.4219 35.7266C83.9948 35.2578 83.6641 34.6875 83.4297 34.0156C83.1953 33.3385 83.0781 32.5677 83.0781 31.7031V30.9141C83.0781 30.0547 83.1849 29.2891 83.3984 28.6172C83.6172 27.9401 83.9297 27.3672 84.3359 26.8984C84.7422 26.4297 85.2318 26.0755 85.8047 25.8359C86.3828 25.5911 87.0365 25.4688 87.7656 25.4688C88.6979 25.4688 89.4688 25.625 90.0781 25.9375C90.6927 26.2448 91.1667 26.6719 91.5 27.2188C91.8333 27.7656 92.0443 28.3906 92.1328 29.0938H90.2109C90.1484 28.6979 90.026 28.3438 89.8438 28.0312C89.6667 27.7188 89.4115 27.474 89.0781 27.2969C88.75 27.1146 88.3229 27.0234 87.7969 27.0234C87.3438 27.0234 86.9453 27.1094 86.6016 27.2812C86.2578 27.4531 85.9714 27.7057 85.7422 28.0391C85.5182 28.3724 85.349 28.7786 85.2344 29.2578C85.1198 29.737 85.0625 30.2839 85.0625 30.8984V31.7031C85.0625 32.3281 85.1276 32.8828 85.2578 33.3672C85.3932 33.8516 85.5859 34.2604 85.8359 34.5938C86.0911 34.9271 86.401 35.1797 86.7656 35.3516C87.1302 35.5182 87.5417 35.6016 88 35.6016C88.4479 35.6016 88.8151 35.5651 89.1016 35.4922C89.388 35.4141 89.6146 35.3229 89.7812 35.2188C89.9531 35.1094 90.0859 35.0052 90.1797 34.9062V32.6484H87.8125V31.1875H92.1328ZM101.75 35.4453V37H95.7109V35.4453H101.75ZM96.2656 25.625V37H94.3047V25.625H96.2656ZM100.961 30.375V31.9062H95.7109V30.375H100.961ZM101.711 25.625V27.1875H95.7109V25.625H101.711ZM108.188 25.625V37H106.242V25.625H108.188ZM111.758 25.625V27.1875H102.703V25.625H111.758ZM118.961 25.625V37H117V25.625H118.961ZM125.844 25.625V37H123.898V25.625H125.844ZM129.414 25.625V27.1875H120.359V25.625H129.414ZM143.594 31V31.625C143.594 32.4844 143.482 33.2552 143.258 33.9375C143.034 34.6198 142.714 35.2005 142.297 35.6797C141.885 36.1589 141.391 36.526 140.812 36.7812C140.234 37.0312 139.594 37.1562 138.891 37.1562C138.193 37.1562 137.555 37.0312 136.977 36.7812C136.404 36.526 135.906 36.1589 135.484 35.6797C135.062 35.2005 134.734 34.6198 134.5 33.9375C134.271 33.2552 134.156 32.4844 134.156 31.625V31C134.156 30.1406 134.271 29.3724 134.5 28.6953C134.729 28.013 135.052 27.4323 135.469 26.9531C135.891 26.4688 136.388 26.1016 136.961 25.8516C137.539 25.5964 138.177 25.4688 138.875 25.4688C139.578 25.4688 140.219 25.5964 140.797 25.8516C141.375 26.1016 141.872 26.4688 142.289 26.9531C142.706 27.4323 143.026 28.013 143.25 28.6953C143.479 29.3724 143.594 30.1406 143.594 31ZM141.633 31.625V30.9844C141.633 30.349 141.57 29.7891 141.445 29.3047C141.326 28.8151 141.146 28.4062 140.906 28.0781C140.672 27.7448 140.383 27.4948 140.039 27.3281C139.695 27.1562 139.307 27.0703 138.875 27.0703C138.443 27.0703 138.057 27.1562 137.719 27.3281C137.38 27.4948 137.091 27.7448 136.852 28.0781C136.617 28.4062 136.438 28.8151 136.312 29.3047C136.188 29.7891 136.125 30.349 136.125 30.9844V31.625C136.125 32.2604 136.188 32.8229 136.312 33.3125C136.438 33.8021 136.62 34.2161 136.859 34.5547C137.104 34.888 137.396 35.1406 137.734 35.3125C138.073 35.4792 138.458 35.5625 138.891 35.5625C139.328 35.5625 139.716 35.4792 140.055 35.3125C140.393 35.1406 140.68 34.888 140.914 34.5547C141.148 34.2161 141.326 33.8021 141.445 33.3125C141.57 32.8229 141.633 32.2604 141.633 31.625ZM154.578 25.625V37H152.617L147.516 28.8516V37H145.555V25.625H147.516L152.633 33.7891V25.625H154.578Z" fill="black"/>
<path d="M92.0883 72.264C90.8403 72.264 89.6803 72.048 88.6083 71.616C87.5363 71.168 86.5923 70.552 85.7763 69.768C84.9603 68.968 84.3203 68.048 83.8563 67.008C83.4083 65.952 83.1843 64.816 83.1843 63.6C83.1843 62.384 83.4083 61.256 83.8563 60.216C84.3203 59.16 84.9523 58.24 85.7523 57.456C86.5523 56.656 87.4883 56.04 88.5603 55.608C89.6483 55.16 90.8083 54.936 92.0403 54.936C93.4323 54.936 94.7443 55.216 95.9763 55.776C97.2083 56.32 98.2243 57.088 99.0243 58.08L96.6003 60.312C96.0243 59.592 95.3443 59.048 94.5603 58.68C93.7763 58.312 92.9363 58.128 92.0403 58.128C91.2883 58.128 90.5923 58.272 89.9523 58.56C89.3123 58.832 88.7523 59.216 88.2723 59.712C87.7923 60.192 87.4163 60.768 87.1443 61.44C86.8883 62.096 86.7603 62.816 86.7603 63.6C86.7603 64.384 86.8963 65.112 87.1683 65.784C87.4403 66.456 87.8163 67.04 88.2963 67.536C88.7923 68.016 89.3603 68.4 90.0003 68.688C90.6563 68.96 91.3683 69.096 92.1363 69.096C92.9363 69.096 93.6563 68.952 94.2963 68.664C94.9363 68.36 95.4723 67.944 95.9043 67.416C96.3523 66.872 96.6483 66.264 96.7923 65.592H91.8243V62.568H100.512V63.624C100.512 64.872 100.296 66.024 99.8643 67.08C99.4483 68.12 98.8643 69.032 98.1123 69.816C97.3603 70.584 96.4723 71.184 95.4483 71.616C94.4243 72.048 93.3043 72.264 92.0883 72.264ZM108.767 72.24C107.519 72.24 106.391 71.952 105.383 71.376C104.375 70.8 103.575 70.024 102.983 69.048C102.391 68.072 102.095 66.976 102.095 65.76C102.095 64.544 102.383 63.448 102.959 62.472C103.551 61.48 104.351 60.696 105.359 60.12C106.383 59.544 107.519 59.256 108.767 59.256C110.015 59.256 111.143 59.544 112.151 60.12C113.175 60.696 113.975 61.48 114.551 62.472C115.143 63.448 115.439 64.544 115.439 65.76C115.439 66.976 115.143 68.072 114.551 69.048C113.975 70.024 113.183 70.8 112.175 71.376C111.167 71.952 110.031 72.24 108.767 72.24ZM108.767 69.384C109.423 69.384 110.007 69.224 110.519 68.904C111.047 68.584 111.463 68.152 111.767 67.608C112.087 67.048 112.247 66.432 112.247 65.76C112.247 65.072 112.087 64.456 111.767 63.912C111.463 63.368 111.047 62.936 110.519 62.616C110.007 62.28 109.423 62.112 108.767 62.112C108.127 62.112 107.543 62.28 107.015 62.616C106.487 62.936 106.071 63.368 105.767 63.912C105.463 64.456 105.311 65.072 105.311 65.76C105.311 66.432 105.463 67.048 105.767 67.608C106.071 68.152 106.487 68.584 107.015 68.904C107.543 69.224 108.127 69.384 108.767 69.384ZM123.556 72.24C122.308 72.24 121.18 71.952 120.172 71.376C119.164 70.8 118.364 70.024 117.772 69.048C117.18 68.072 116.884 66.976 116.884 65.76C116.884 64.544 117.172 63.448 117.748 62.472C118.34 61.48 119.14 60.696 120.148 60.12C121.172 59.544 122.308 59.256 123.556 59.256C124.804 59.256 125.932 59.544 126.94 60.12C127.964 60.696 128.764 61.48 129.34 62.472C129.932 63.448 130.228 64.544 130.228 65.76C130.228 66.976 129.932 68.072 129.34 69.048C128.764 70.024 127.972 70.8 126.964 71.376C125.956 71.952 124.82 72.24 123.556 72.24ZM123.556 69.384C124.212 69.384 124.796 69.224 125.308 68.904C125.836 68.584 126.252 68.152 126.556 67.608C126.876 67.048 127.036 66.432 127.036 65.76C127.036 65.072 126.876 64.456 126.556 63.912C126.252 63.368 125.836 62.936 125.308 62.616C124.796 62.28 124.212 62.112 123.556 62.112C122.916 62.112 122.332 62.28 121.804 62.616C121.276 62.936 120.86 63.368 120.556 63.912C120.252 64.456 120.1 65.072 120.1 65.76C120.1 66.432 120.252 67.048 120.556 67.608C120.86 68.152 121.276 68.584 121.804 68.904C122.332 69.224 122.916 69.384 123.556 69.384ZM138.537 77.136C137.577 77.136 136.649 77.032 135.753 76.824C134.857 76.632 134.049 76.352 133.329 75.984L134.481 73.44C135.169 73.776 135.841 74.024 136.497 74.184C137.153 74.344 137.809 74.424 138.465 74.424C139.441 74.424 140.177 74.216 140.673 73.8C141.185 73.384 141.441 72.76 141.441 71.928V70.944C140.417 71.696 139.273 72.072 138.009 72.072C136.825 72.072 135.753 71.792 134.793 71.232C133.849 70.656 133.089 69.88 132.513 68.904C131.953 67.928 131.673 66.848 131.673 65.664C131.673 64.48 131.953 63.408 132.513 62.448C133.089 61.488 133.865 60.728 134.841 60.168C135.817 59.592 136.905 59.304 138.105 59.304C138.713 59.304 139.305 59.392 139.881 59.568C140.457 59.744 140.993 59.992 141.489 60.312V59.496H144.729V71.976C144.729 73.624 144.193 74.896 143.121 75.792C142.065 76.688 140.537 77.136 138.537 77.136ZM138.513 69.288C139.121 69.288 139.673 69.192 140.169 69C140.665 68.792 141.089 68.504 141.441 68.136V63.24C141.089 62.888 140.657 62.616 140.145 62.424C139.649 62.216 139.113 62.112 138.537 62.112C137.849 62.112 137.233 62.272 136.689 62.592C136.145 62.896 135.713 63.32 135.393 63.864C135.073 64.392 134.913 64.992 134.913 65.664C134.913 66.352 135.065 66.968 135.369 67.512C135.689 68.056 136.121 68.488 136.665 68.808C137.225 69.128 137.841 69.288 138.513 69.288ZM147.296 72V55.2L150.584 54.648V72H147.296ZM159.275 72.24C158.027 72.24 156.891 71.952 155.867 71.376C154.859 70.8 154.059 70.024 153.467 69.048C152.875 68.072 152.579 66.976 152.579 65.76C152.579 64.544 152.859 63.448 153.419 62.472C153.995 61.496 154.771 60.72 155.747 60.144C156.723 59.568 157.811 59.28 159.011 59.28C160.211 59.28 161.275 59.576 162.203 60.168C163.131 60.76 163.859 61.56 164.387 62.568C164.931 63.576 165.203 64.72 165.203 66V66.864H155.939C156.083 67.36 156.315 67.808 156.635 68.208C156.971 68.608 157.379 68.92 157.859 69.144C158.355 69.368 158.883 69.48 159.443 69.48C160.003 69.48 160.515 69.392 160.979 69.216C161.459 69.04 161.867 68.792 162.203 68.472L164.363 70.44C163.595 71.064 162.803 71.52 161.987 71.808C161.187 72.096 160.283 72.24 159.275 72.24ZM155.891 64.512H161.963C161.851 64.016 161.643 63.584 161.339 63.216C161.051 62.832 160.699 62.536 160.283 62.328C159.883 62.104 159.435 61.992 158.939 61.992C158.427 61.992 157.963 62.096 157.547 62.304C157.131 62.512 156.779 62.808 156.491 63.192C156.219 63.56 156.019 64 155.891 64.512ZM172.046 76.896V59.496H175.286V60.528C176.31 59.728 177.494 59.328 178.838 59.328C180.022 59.328 181.094 59.616 182.054 60.192C183.014 60.768 183.774 61.544 184.334 62.52C184.91 63.48 185.198 64.56 185.198 65.76C185.198 66.96 184.91 68.048 184.334 69.024C183.758 69.984 182.982 70.752 182.006 71.328C181.03 71.888 179.942 72.168 178.742 72.168C178.118 72.168 177.518 72.088 176.942 71.928C176.366 71.752 175.83 71.504 175.334 71.184V76.896H172.046ZM178.31 69.384C178.998 69.384 179.614 69.224 180.158 68.904C180.718 68.584 181.158 68.152 181.478 67.608C181.798 67.064 181.958 66.448 181.958 65.76C181.958 65.072 181.798 64.456 181.478 63.912C181.158 63.352 180.718 62.92 180.158 62.616C179.614 62.296 178.998 62.136 178.31 62.136C177.702 62.136 177.142 62.24 176.63 62.448C176.134 62.64 175.702 62.936 175.334 63.336V68.208C175.686 68.576 176.118 68.864 176.63 69.072C177.158 69.28 177.718 69.384 178.31 69.384ZM187.187 72V55.2L190.475 54.648V72H187.187ZM197.03 72.216C196.134 72.216 195.342 72.056 194.654 71.736C193.966 71.4 193.43 70.944 193.046 70.368C192.662 69.792 192.47 69.128 192.47 68.376C192.47 67.176 192.918 66.248 193.814 65.592C194.726 64.92 195.974 64.584 197.558 64.584C198.646 64.584 199.67 64.752 200.63 65.088V64.176C200.63 63.456 200.406 62.912 199.958 62.544C199.51 62.176 198.854 61.992 197.99 61.992C197.462 61.992 196.894 62.08 196.286 62.256C195.678 62.416 194.974 62.672 194.174 63.024L192.974 60.6C193.966 60.152 194.91 59.816 195.806 59.592C196.718 59.368 197.63 59.256 198.542 59.256C200.222 59.256 201.526 59.664 202.454 60.48C203.398 61.28 203.87 62.416 203.87 63.888V72H200.63V71.112C200.118 71.496 199.566 71.776 198.974 71.952C198.382 72.128 197.734 72.216 197.03 72.216ZM195.59 68.304C195.59 68.784 195.798 69.168 196.214 69.456C196.63 69.728 197.182 69.864 197.87 69.864C198.414 69.864 198.918 69.8 199.382 69.672C199.846 69.528 200.262 69.32 200.63 69.048V67.224C200.23 67.064 199.814 66.944 199.382 66.864C198.95 66.784 198.486 66.744 197.99 66.744C197.238 66.744 196.646 66.888 196.214 67.176C195.798 67.448 195.59 67.824 195.59 68.304ZM207.348 77.16C207.06 77.16 206.78 77.144 206.508 77.112C206.252 77.096 206.036 77.072 205.86 77.04V74.208C206.18 74.272 206.564 74.304 207.012 74.304C208.212 74.304 209.044 73.736 209.508 72.6L209.7 72.12L204.828 59.496H208.452L211.572 68.016L215.1 59.496H218.652L212.892 73.008C212.46 74.016 211.988 74.824 211.476 75.432C210.964 76.04 210.372 76.48 209.7 76.752C209.044 77.024 208.26 77.16 207.348 77.16Z" fill="black"/>
<g clip-path="url(#clip0_32_643)">
<path d="M56.5836 49.9996C56.5836 51.0621 55.9886 51.9971 55.1244 52.4788L47.7577 56.5729L41.5244 49.9996L47.7577 43.4263L55.1244 47.5204C55.9886 48.0021 56.5836 48.9371 56.5836 49.9996Z" fill="#FFC107"/>
<path d="M41.5245 49.9996L26.2245 66.1354C25.7145 65.6254 25.417 64.9313 25.417 64.1663V35.8329C25.417 35.0679 25.7145 34.3738 26.2245 33.8638L41.5245 49.9996Z" fill="#03A9F4"/>
<path d="M41.5246 50L47.758 56.5733C29.0962 66.8087 28.3142 68.3416 26.2246 66.1358L41.5246 50Z" fill="#F44336"/>
<path d="M47.758 43.4267L41.5246 50.0001L26.2246 33.8642C27.1001 32.9392 28.504 32.7366 29.6246 33.3542L47.758 43.4267Z" fill="#4CAF50"/>
</g>
<defs>
<clipPath id="clip0_32_643">
<rect width="34" height="34" fill="white" transform="translate(24 33)"/>
</clipPath>
</defs>
</svg>
