<svg id="SvgjsSvg1001" width="288" height="288" xmlns="http://www.w3.org/2000/svg" version="1.1" xmlns:xlink="http://www.w3.org/1999/xlink" xmlns:svgjs="http://svgjs.com/svgjs"><defs id="SvgjsDefs1002"></defs><g id="SvgjsG1008"><svg xmlns="http://www.w3.org/2000/svg" fill="none" viewBox="0 0 64 64" width="288" height="288"><path fill="#274896" d="M13.25 64H50.75C53.8517 64 56.375 61.4767 56.375 58.375V18.75H43.25C40.1483 18.75 37.625 16.2267 37.625 13.125V0H13.25C10.1483 0 7.625 2.52325 7.625 5.625V58.375C7.625 61.4767 10.1483 64 13.25 64ZM20.75 26.375H43.25C44.2864 26.375 45.125 27.2136 45.125 28.25C45.125 29.2864 44.2864 30.125 43.25 30.125H20.75C19.7136 30.125 18.875 29.2864 18.875 28.25C18.875 27.2136 19.7136 26.375 20.75 26.375ZM20.75 33.875H43.25C44.2864 33.875 45.125 34.7136 45.125 35.75C45.125 36.7864 44.2864 37.625 43.25 37.625H20.75C19.7136 37.625 18.875 36.7864 18.875 35.75C18.875 34.7136 19.7136 33.875 20.75 33.875ZM20.75 41.375H43.25C44.2864 41.375 45.125 42.2136 45.125 43.25C45.125 44.2864 44.2864 45.125 43.25 45.125H20.75C19.7136 45.125 18.875 44.2864 18.875 43.25C18.875 42.2136 19.7136 41.375 20.75 41.375ZM20.75 48.875H35.75C36.7864 48.875 37.625 49.7136 37.625 50.75C37.625 51.7864 36.7864 52.625 35.75 52.625H20.75C19.7136 52.625 18.875 51.7864 18.875 50.75C18.875 49.7136 19.7136 48.875 20.75 48.875Z" class="colorE73D47 svgShape"></path><path fill="#274896" d="M43.25 15H55.2764L41.375 1.09863V13.125C41.375 14.1595 42.2155 15 43.25 15Z" class="colorE73D47 svgShape"></path></svg></g></svg>