<svg width="260" height="100" viewBox="0 0 260 100" fill="none" xmlns="http://www.w3.org/2000/svg">
<rect width="260" height="100" rx="20" fill="white"/>
<path d="M86.4609 37H84.0312L84.0469 35.4453H86.4609C87.1641 35.4453 87.7526 35.2917 88.2266 34.9844C88.7057 34.6771 89.0651 34.237 89.3047 33.6641C89.5495 33.0911 89.6719 32.4089 89.6719 31.6172V31C89.6719 30.3854 89.6016 29.8411 89.4609 29.3672C89.3255 28.8932 89.1224 28.4948 88.8516 28.1719C88.5859 27.849 88.2578 27.6042 87.8672 27.4375C87.4818 27.2708 87.0365 27.1875 86.5312 27.1875H83.9844V25.625H86.5312C87.2865 25.625 87.9766 25.7526 88.6016 26.0078C89.2266 26.2578 89.7656 26.6198 90.2188 27.0938C90.6771 27.5677 91.0286 28.1354 91.2734 28.7969C91.5182 29.4583 91.6406 30.1979 91.6406 31.0156V31.6172C91.6406 32.4349 91.5182 33.1745 91.2734 33.8359C91.0286 34.4974 90.6771 35.0651 90.2188 35.5391C89.7604 36.0078 89.2135 36.3698 88.5781 36.625C87.9479 36.875 87.2422 37 86.4609 37ZM85.1172 25.625V37H83.1562V25.625H85.1172ZM93.0625 32.8672V32.6875C93.0625 32.0781 93.151 31.513 93.3281 30.9922C93.5052 30.4661 93.7604 30.0104 94.0938 29.625C94.4323 29.2344 94.8438 28.9323 95.3281 28.7188C95.8177 28.5 96.3698 28.3906 96.9844 28.3906C97.6042 28.3906 98.1562 28.5 98.6406 28.7188C99.1302 28.9323 99.5443 29.2344 99.8828 29.625C100.221 30.0104 100.479 30.4661 100.656 30.9922C100.833 31.513 100.922 32.0781 100.922 32.6875V32.8672C100.922 33.4766 100.833 34.0417 100.656 34.5625C100.479 35.0833 100.221 35.5391 99.8828 35.9297C99.5443 36.3151 99.1328 36.6172 98.6484 36.8359C98.1641 37.0495 97.6146 37.1562 97 37.1562C96.3802 37.1562 95.8255 37.0495 95.3359 36.8359C94.8516 36.6172 94.4401 36.3151 94.1016 35.9297C93.763 35.5391 93.5052 35.0833 93.3281 34.5625C93.151 34.0417 93.0625 33.4766 93.0625 32.8672ZM94.9453 32.6875V32.8672C94.9453 33.2474 94.9844 33.6068 95.0625 33.9453C95.1406 34.2839 95.263 34.5807 95.4297 34.8359C95.5964 35.0911 95.8099 35.2917 96.0703 35.4375C96.3307 35.5833 96.6406 35.6562 97 35.6562C97.349 35.6562 97.651 35.5833 97.9062 35.4375C98.1667 35.2917 98.3802 35.0911 98.5469 34.8359C98.7135 34.5807 98.8359 34.2839 98.9141 33.9453C98.9974 33.6068 99.0391 33.2474 99.0391 32.8672V32.6875C99.0391 32.3125 98.9974 31.9583 98.9141 31.625C98.8359 31.2865 98.7109 30.987 98.5391 30.7266C98.3724 30.4661 98.1589 30.263 97.8984 30.1172C97.6432 29.9661 97.3385 29.8906 96.9844 29.8906C96.6302 29.8906 96.3229 29.9661 96.0625 30.1172C95.8073 30.263 95.5964 30.4661 95.4297 30.7266C95.263 30.987 95.1406 31.2865 95.0625 31.625C94.9844 31.9583 94.9453 32.3125 94.9453 32.6875ZM104.797 35.125L106.75 28.5469H107.953L107.625 30.5156L105.656 37H104.578L104.797 35.125ZM103.648 28.5469L105.172 35.1562L105.297 37H104.094L101.805 28.5469H103.648ZM109.781 35.0781L111.258 28.5469H113.094L110.812 37H109.609L109.781 35.0781ZM108.156 28.5469L110.086 35.0469L110.328 37H109.25L107.258 30.5078L106.93 28.5469H108.156ZM116.242 30.3516V37H114.359V28.5469H116.133L116.242 30.3516ZM115.906 32.4609L115.297 32.4531C115.302 31.8542 115.385 31.3047 115.547 30.8047C115.714 30.3047 115.943 29.875 116.234 29.5156C116.531 29.1562 116.885 28.8802 117.297 28.6875C117.708 28.4896 118.167 28.3906 118.672 28.3906C119.078 28.3906 119.445 28.4479 119.773 28.5625C120.107 28.6719 120.391 28.8516 120.625 29.1016C120.865 29.3516 121.047 29.6771 121.172 30.0781C121.297 30.474 121.359 30.9609 121.359 31.5391V37H119.469V31.5312C119.469 31.125 119.409 30.8047 119.289 30.5703C119.174 30.3307 119.005 30.1615 118.781 30.0625C118.562 29.9583 118.289 29.9062 117.961 29.9062C117.638 29.9062 117.349 29.974 117.094 30.1094C116.839 30.2448 116.622 30.4297 116.445 30.6641C116.273 30.8984 116.141 31.1693 116.047 31.4766C115.953 31.7839 115.906 32.112 115.906 32.4609ZM125.297 25V37H123.406V25H125.297ZM127 32.8672V32.6875C127 32.0781 127.089 31.513 127.266 30.9922C127.443 30.4661 127.698 30.0104 128.031 29.625C128.37 29.2344 128.781 28.9323 129.266 28.7188C129.755 28.5 130.307 28.3906 130.922 28.3906C131.542 28.3906 132.094 28.5 132.578 28.7188C133.068 28.9323 133.482 29.2344 133.82 29.625C134.159 30.0104 134.417 30.4661 134.594 30.9922C134.771 31.513 134.859 32.0781 134.859 32.6875V32.8672C134.859 33.4766 134.771 34.0417 134.594 34.5625C134.417 35.0833 134.159 35.5391 133.82 35.9297C133.482 36.3151 133.07 36.6172 132.586 36.8359C132.102 37.0495 131.552 37.1562 130.938 37.1562C130.318 37.1562 129.763 37.0495 129.273 36.8359C128.789 36.6172 128.378 36.3151 128.039 35.9297C127.701 35.5391 127.443 35.0833 127.266 34.5625C127.089 34.0417 127 33.4766 127 32.8672ZM128.883 32.6875V32.8672C128.883 33.2474 128.922 33.6068 129 33.9453C129.078 34.2839 129.201 34.5807 129.367 34.8359C129.534 35.0911 129.747 35.2917 130.008 35.4375C130.268 35.5833 130.578 35.6562 130.938 35.6562C131.286 35.6562 131.589 35.5833 131.844 35.4375C132.104 35.2917 132.318 35.0911 132.484 34.8359C132.651 34.5807 132.773 34.2839 132.852 33.9453C132.935 33.6068 132.977 33.2474 132.977 32.8672V32.6875C132.977 32.3125 132.935 31.9583 132.852 31.625C132.773 31.2865 132.648 30.987 132.477 30.7266C132.31 30.4661 132.096 30.263 131.836 30.1172C131.581 29.9661 131.276 29.8906 130.922 29.8906C130.568 29.8906 130.26 29.9661 130 30.1172C129.745 30.263 129.534 30.4661 129.367 30.7266C129.201 30.987 129.078 31.2865 129 31.625C128.922 31.9583 128.883 32.3125 128.883 32.6875ZM141.203 35.3047V31.2734C141.203 30.9714 141.148 30.7109 141.039 30.4922C140.93 30.2734 140.763 30.1042 140.539 29.9844C140.32 29.8646 140.044 29.8047 139.711 29.8047C139.404 29.8047 139.138 29.8568 138.914 29.9609C138.69 30.0651 138.516 30.2057 138.391 30.3828C138.266 30.5599 138.203 30.7604 138.203 30.9844H136.328C136.328 30.651 136.409 30.3281 136.57 30.0156C136.732 29.7031 136.966 29.4245 137.273 29.1797C137.581 28.9349 137.948 28.7422 138.375 28.6016C138.802 28.4609 139.281 28.3906 139.812 28.3906C140.448 28.3906 141.01 28.4974 141.5 28.7109C141.995 28.9245 142.383 29.2474 142.664 29.6797C142.951 30.1068 143.094 30.6432 143.094 31.2891V35.0469C143.094 35.4323 143.12 35.7786 143.172 36.0859C143.229 36.388 143.31 36.651 143.414 36.875V37H141.484C141.396 36.7969 141.326 36.5391 141.273 36.2266C141.227 35.9089 141.203 35.6016 141.203 35.3047ZM141.477 31.8594L141.492 33.0234H140.141C139.792 33.0234 139.484 33.0573 139.219 33.125C138.953 33.1875 138.732 33.2812 138.555 33.4062C138.378 33.5312 138.245 33.6823 138.156 33.8594C138.068 34.0365 138.023 34.237 138.023 34.4609C138.023 34.6849 138.076 34.8906 138.18 35.0781C138.284 35.2604 138.435 35.4036 138.633 35.5078C138.836 35.612 139.081 35.6641 139.367 35.6641C139.753 35.6641 140.089 35.5859 140.375 35.4297C140.667 35.2682 140.896 35.0729 141.062 34.8438C141.229 34.6094 141.318 34.388 141.328 34.1797L141.938 35.0156C141.875 35.2292 141.768 35.4583 141.617 35.7031C141.466 35.9479 141.268 36.1823 141.023 36.4062C140.784 36.625 140.495 36.8047 140.156 36.9453C139.823 37.0859 139.438 37.1562 139 37.1562C138.448 37.1562 137.956 37.0469 137.523 36.8281C137.091 36.6042 136.753 36.3047 136.508 35.9297C136.263 35.5495 136.141 35.1198 136.141 34.6406C136.141 34.1927 136.224 33.7969 136.391 33.4531C136.562 33.1042 136.812 32.8125 137.141 32.5781C137.474 32.3438 137.88 32.1667 138.359 32.0469C138.839 31.9219 139.385 31.8594 140 31.8594H141.477ZM150.219 35.25V25H152.109V37H150.398L150.219 35.25ZM144.719 32.8672V32.7031C144.719 32.0625 144.794 31.4792 144.945 30.9531C145.096 30.4219 145.315 29.9661 145.602 29.5859C145.888 29.2005 146.237 28.9062 146.648 28.7031C147.06 28.4948 147.523 28.3906 148.039 28.3906C148.549 28.3906 148.997 28.4896 149.383 28.6875C149.768 28.8854 150.096 29.1693 150.367 29.5391C150.638 29.9036 150.854 30.3411 151.016 30.8516C151.177 31.3568 151.292 31.9193 151.359 32.5391V33.0625C151.292 33.6667 151.177 34.2188 151.016 34.7188C150.854 35.2188 150.638 35.651 150.367 36.0156C150.096 36.3802 149.766 36.6615 149.375 36.8594C148.99 37.0573 148.539 37.1562 148.023 37.1562C147.513 37.1562 147.052 37.0495 146.641 36.8359C146.234 36.6224 145.888 36.3229 145.602 35.9375C145.315 35.5521 145.096 35.099 144.945 34.5781C144.794 34.0521 144.719 33.4818 144.719 32.8672ZM146.602 32.7031V32.8672C146.602 33.2526 146.635 33.612 146.703 33.9453C146.776 34.2786 146.888 34.5729 147.039 34.8281C147.19 35.0781 147.385 35.276 147.625 35.4219C147.87 35.5625 148.161 35.6328 148.5 35.6328C148.927 35.6328 149.279 35.5391 149.555 35.3516C149.831 35.1641 150.047 34.9115 150.203 34.5938C150.365 34.2708 150.474 33.9115 150.531 33.5156V32.1016C150.5 31.7943 150.435 31.5078 150.336 31.2422C150.242 30.9766 150.115 30.7448 149.953 30.5469C149.792 30.3438 149.591 30.1875 149.352 30.0781C149.117 29.9635 148.839 29.9062 148.516 29.9062C148.172 29.9062 147.88 29.9792 147.641 30.125C147.401 30.2708 147.203 30.4714 147.047 30.7266C146.896 30.9818 146.784 31.2786 146.711 31.6172C146.638 31.9557 146.602 32.3177 146.602 32.7031ZM157.703 32.8672V32.6875C157.703 32.0781 157.792 31.513 157.969 30.9922C158.146 30.4661 158.401 30.0104 158.734 29.625C159.073 29.2344 159.484 28.9323 159.969 28.7188C160.458 28.5 161.01 28.3906 161.625 28.3906C162.245 28.3906 162.797 28.5 163.281 28.7188C163.771 28.9323 164.185 29.2344 164.523 29.625C164.862 30.0104 165.12 30.4661 165.297 30.9922C165.474 31.513 165.562 32.0781 165.562 32.6875V32.8672C165.562 33.4766 165.474 34.0417 165.297 34.5625C165.12 35.0833 164.862 35.5391 164.523 35.9297C164.185 36.3151 163.773 36.6172 163.289 36.8359C162.805 37.0495 162.255 37.1562 161.641 37.1562C161.021 37.1562 160.466 37.0495 159.977 36.8359C159.492 36.6172 159.081 36.3151 158.742 35.9297C158.404 35.5391 158.146 35.0833 157.969 34.5625C157.792 34.0417 157.703 33.4766 157.703 32.8672ZM159.586 32.6875V32.8672C159.586 33.2474 159.625 33.6068 159.703 33.9453C159.781 34.2839 159.904 34.5807 160.07 34.8359C160.237 35.0911 160.451 35.2917 160.711 35.4375C160.971 35.5833 161.281 35.6562 161.641 35.6562C161.99 35.6562 162.292 35.5833 162.547 35.4375C162.807 35.2917 163.021 35.0911 163.188 34.8359C163.354 34.5807 163.477 34.2839 163.555 33.9453C163.638 33.6068 163.68 33.2474 163.68 32.8672V32.6875C163.68 32.3125 163.638 31.9583 163.555 31.625C163.477 31.2865 163.352 30.987 163.18 30.7266C163.013 30.4661 162.799 30.263 162.539 30.1172C162.284 29.9661 161.979 29.8906 161.625 29.8906C161.271 29.8906 160.964 29.9661 160.703 30.1172C160.448 30.263 160.237 30.4661 160.07 30.7266C159.904 30.987 159.781 31.2865 159.703 31.625C159.625 31.9583 159.586 32.3125 159.586 32.6875ZM169.008 30.3516V37H167.125V28.5469H168.898L169.008 30.3516ZM168.672 32.4609L168.062 32.4531C168.068 31.8542 168.151 31.3047 168.312 30.8047C168.479 30.3047 168.708 29.875 169 29.5156C169.297 29.1562 169.651 28.8802 170.062 28.6875C170.474 28.4896 170.932 28.3906 171.438 28.3906C171.844 28.3906 172.211 28.4479 172.539 28.5625C172.872 28.6719 173.156 28.8516 173.391 29.1016C173.63 29.3516 173.812 29.6771 173.938 30.0781C174.062 30.474 174.125 30.9609 174.125 31.5391V37H172.234V31.5312C172.234 31.125 172.174 30.8047 172.055 30.5703C171.94 30.3307 171.771 30.1615 171.547 30.0625C171.328 29.9583 171.055 29.9062 170.727 29.9062C170.404 29.9062 170.115 29.974 169.859 30.1094C169.604 30.2448 169.388 30.4297 169.211 30.6641C169.039 30.8984 168.906 31.1693 168.812 31.4766C168.719 31.7839 168.672 32.112 168.672 32.4609ZM183.906 28.5469V29.9219H179.141V28.5469H183.906ZM180.516 26.4766H182.398V34.6641C182.398 34.9245 182.435 35.125 182.508 35.2656C182.586 35.401 182.693 35.4922 182.828 35.5391C182.964 35.5859 183.122 35.6094 183.305 35.6094C183.435 35.6094 183.56 35.6016 183.68 35.5859C183.799 35.5703 183.896 35.5547 183.969 35.5391L183.977 36.9766C183.82 37.0234 183.638 37.0651 183.43 37.1016C183.227 37.138 182.992 37.1562 182.727 37.1562C182.294 37.1562 181.911 37.0807 181.578 36.9297C181.245 36.7734 180.984 36.5208 180.797 36.1719C180.609 35.8229 180.516 35.3594 180.516 34.7812V26.4766ZM187.219 25V37H185.344V25H187.219ZM186.891 32.4609L186.281 32.4531C186.286 31.8698 186.367 31.3307 186.523 30.8359C186.685 30.3411 186.909 29.9115 187.195 29.5469C187.487 29.1771 187.836 28.8932 188.242 28.6953C188.648 28.4922 189.099 28.3906 189.594 28.3906C190.01 28.3906 190.385 28.4479 190.719 28.5625C191.057 28.6771 191.349 28.862 191.594 29.1172C191.839 29.3672 192.023 29.6953 192.148 30.1016C192.279 30.5026 192.344 30.9922 192.344 31.5703V37H190.453V31.5547C190.453 31.1484 190.393 30.8255 190.273 30.5859C190.159 30.3464 189.99 30.1745 189.766 30.0703C189.542 29.9609 189.268 29.9062 188.945 29.9062C188.607 29.9062 188.307 29.974 188.047 30.1094C187.792 30.2448 187.578 30.4297 187.406 30.6641C187.234 30.8984 187.104 31.1693 187.016 31.4766C186.932 31.7839 186.891 32.112 186.891 32.4609ZM197.977 37.1562C197.352 37.1562 196.786 37.0547 196.281 36.8516C195.781 36.6432 195.354 36.3542 195 35.9844C194.651 35.6146 194.383 35.1797 194.195 34.6797C194.008 34.1797 193.914 33.6406 193.914 33.0625V32.75C193.914 32.0885 194.01 31.4896 194.203 30.9531C194.396 30.4167 194.664 29.9583 195.008 29.5781C195.352 29.1927 195.758 28.8984 196.227 28.6953C196.695 28.4922 197.203 28.3906 197.75 28.3906C198.354 28.3906 198.883 28.4922 199.336 28.6953C199.789 28.8984 200.164 29.1849 200.461 29.5547C200.763 29.9193 200.987 30.3542 201.133 30.8594C201.284 31.3646 201.359 31.9219 201.359 32.5312V33.3359H194.828V31.9844H199.5V31.8359C199.49 31.4974 199.422 31.1797 199.297 30.8828C199.177 30.5859 198.992 30.3464 198.742 30.1641C198.492 29.9818 198.159 29.8906 197.742 29.8906C197.43 29.8906 197.151 29.9583 196.906 30.0938C196.667 30.224 196.466 30.4141 196.305 30.6641C196.143 30.9141 196.018 31.2161 195.93 31.5703C195.846 31.9193 195.805 32.3125 195.805 32.75V33.0625C195.805 33.4323 195.854 33.776 195.953 34.0938C196.057 34.4062 196.208 34.6797 196.406 34.9141C196.604 35.1484 196.844 35.3333 197.125 35.4688C197.406 35.599 197.727 35.6641 198.086 35.6641C198.539 35.6641 198.943 35.5729 199.297 35.3906C199.651 35.2083 199.958 34.9505 200.219 34.6172L201.211 35.5781C201.029 35.8438 200.792 36.099 200.5 36.3438C200.208 36.5833 199.852 36.7786 199.43 36.9297C199.013 37.0807 198.529 37.1562 197.977 37.1562Z" fill="black"/>
<path d="M81.904 72L88.816 55.2H92.824L99.664 72H95.896L94.192 67.584H87.256L85.528 72H81.904ZM88.336 64.8H93.136L90.736 58.608L88.336 64.8ZM100.874 76.896V59.496H104.114V60.528C105.138 59.728 106.322 59.328 107.666 59.328C108.85 59.328 109.922 59.616 110.882 60.192C111.842 60.768 112.602 61.544 113.162 62.52C113.738 63.48 114.026 64.56 114.026 65.76C114.026 66.96 113.738 68.048 113.162 69.024C112.586 69.984 111.81 70.752 110.834 71.328C109.858 71.888 108.77 72.168 107.57 72.168C106.946 72.168 106.346 72.088 105.77 71.928C105.194 71.752 104.658 71.504 104.162 71.184V76.896H100.874ZM107.138 69.384C107.826 69.384 108.442 69.224 108.986 68.904C109.546 68.584 109.986 68.152 110.306 67.608C110.626 67.064 110.786 66.448 110.786 65.76C110.786 65.072 110.626 64.456 110.306 63.912C109.986 63.352 109.546 62.92 108.986 62.616C108.442 62.296 107.826 62.136 107.138 62.136C106.53 62.136 105.97 62.24 105.458 62.448C104.962 62.64 104.53 62.936 104.162 63.336V68.208C104.514 68.576 104.946 68.864 105.458 69.072C105.986 69.28 106.546 69.384 107.138 69.384ZM116.015 76.896V59.496H119.255V60.528C120.279 59.728 121.463 59.328 122.807 59.328C123.991 59.328 125.063 59.616 126.023 60.192C126.983 60.768 127.743 61.544 128.303 62.52C128.879 63.48 129.167 64.56 129.167 65.76C129.167 66.96 128.879 68.048 128.303 69.024C127.727 69.984 126.951 70.752 125.975 71.328C124.999 71.888 123.911 72.168 122.711 72.168C122.087 72.168 121.487 72.088 120.911 71.928C120.335 71.752 119.799 71.504 119.303 71.184V76.896H116.015ZM122.279 69.384C122.967 69.384 123.583 69.224 124.127 68.904C124.687 68.584 125.127 68.152 125.447 67.608C125.767 67.064 125.927 66.448 125.927 65.76C125.927 65.072 125.767 64.456 125.447 63.912C125.127 63.352 124.687 62.92 124.127 62.616C123.583 62.296 122.967 62.136 122.279 62.136C121.671 62.136 121.111 62.24 120.599 62.448C120.103 62.64 119.671 62.936 119.303 63.336V68.208C119.655 68.576 120.087 68.864 120.599 69.072C121.127 69.28 121.687 69.384 122.279 69.384ZM142.2 72.24C140.84 72.24 139.512 71.992 138.215 71.496C136.919 70.984 135.767 70.264 134.76 69.336L136.752 66.84C137.728 67.704 138.664 68.328 139.56 68.712C140.472 69.096 141.432 69.288 142.44 69.288C143.144 69.288 143.752 69.208 144.264 69.048C144.776 68.872 145.168 68.624 145.44 68.304C145.728 67.984 145.872 67.608 145.872 67.176C145.872 66.6 145.664 66.16 145.248 65.856C144.832 65.536 144.12 65.288 143.112 65.112L139.776 64.536C138.352 64.296 137.264 63.792 136.512 63.024C135.776 62.256 135.408 61.264 135.408 60.048C135.408 59.008 135.672 58.104 136.2 57.336C136.744 56.568 137.504 55.984 138.48 55.584C139.472 55.168 140.648 54.96 142.008 54.96C143.24 54.96 144.464 55.168 145.68 55.584C146.912 56 148 56.576 148.944 57.312L147.072 59.904C145.312 58.56 143.544 57.888 141.768 57.888C141.144 57.888 140.6 57.968 140.136 58.128C139.672 58.288 139.312 58.512 139.056 58.8C138.816 59.072 138.696 59.4 138.696 59.784C138.696 60.296 138.88 60.696 139.248 60.984C139.616 61.256 140.232 61.464 141.096 61.608L144.264 62.136C145.944 62.408 147.2 62.944 148.032 63.744C148.864 64.528 149.28 65.568 149.28 66.864C149.28 67.952 148.992 68.904 148.416 69.72C147.84 70.52 147.016 71.144 145.944 71.592C144.888 72.024 143.64 72.24 142.2 72.24ZM156.701 72.192C155.309 72.192 154.253 71.88 153.533 71.256C152.829 70.616 152.477 69.688 152.477 68.472V62.232H149.909V59.496H152.477V56.304L155.765 55.56V59.496H159.341V62.232H155.765V67.8C155.765 68.376 155.893 68.792 156.149 69.048C156.405 69.288 156.853 69.408 157.493 69.408C157.813 69.408 158.101 69.392 158.357 69.36C158.629 69.312 158.925 69.232 159.245 69.12V71.832C158.909 71.944 158.485 72.032 157.973 72.096C157.477 72.16 157.053 72.192 156.701 72.192ZM166.9 72.24C165.652 72.24 164.524 71.952 163.516 71.376C162.508 70.8 161.708 70.024 161.116 69.048C160.524 68.072 160.228 66.976 160.228 65.76C160.228 64.544 160.516 63.448 161.092 62.472C161.684 61.48 162.484 60.696 163.492 60.12C164.516 59.544 165.652 59.256 166.9 59.256C168.148 59.256 169.276 59.544 170.284 60.12C171.308 60.696 172.108 61.48 172.684 62.472C173.276 63.448 173.572 64.544 173.572 65.76C173.572 66.976 173.276 68.072 172.684 69.048C172.108 70.024 171.316 70.8 170.308 71.376C169.3 71.952 168.164 72.24 166.9 72.24ZM166.9 69.384C167.556 69.384 168.14 69.224 168.652 68.904C169.18 68.584 169.596 68.152 169.9 67.608C170.22 67.048 170.38 66.432 170.38 65.76C170.38 65.072 170.22 64.456 169.9 63.912C169.596 63.368 169.18 62.936 168.652 62.616C168.14 62.28 167.556 62.112 166.9 62.112C166.26 62.112 165.676 62.28 165.148 62.616C164.62 62.936 164.204 63.368 163.9 63.912C163.596 64.456 163.444 65.072 163.444 65.76C163.444 66.432 163.596 67.048 163.9 67.608C164.204 68.152 164.62 68.584 165.148 68.904C165.676 69.224 166.26 69.384 166.9 69.384ZM175.593 72V59.496H178.881V60.888C179.281 60.344 179.761 59.928 180.321 59.64C180.881 59.352 181.513 59.208 182.217 59.208C182.825 59.224 183.281 59.32 183.585 59.496V62.376C183.345 62.264 183.081 62.184 182.793 62.136C182.505 62.072 182.209 62.04 181.905 62.04C181.265 62.04 180.681 62.2 180.153 62.52C179.625 62.84 179.201 63.296 178.881 63.888V72H175.593ZM191.018 72.24C189.77 72.24 188.634 71.952 187.61 71.376C186.602 70.8 185.802 70.024 185.21 69.048C184.618 68.072 184.322 66.976 184.322 65.76C184.322 64.544 184.602 63.448 185.162 62.472C185.738 61.496 186.514 60.72 187.49 60.144C188.466 59.568 189.554 59.28 190.754 59.28C191.954 59.28 193.018 59.576 193.946 60.168C194.874 60.76 195.602 61.56 196.13 62.568C196.674 63.576 196.946 64.72 196.946 66V66.864H187.682C187.826 67.36 188.058 67.808 188.378 68.208C188.714 68.608 189.122 68.92 189.602 69.144C190.098 69.368 190.626 69.48 191.186 69.48C191.746 69.48 192.258 69.392 192.722 69.216C193.202 69.04 193.61 68.792 193.946 68.472L196.106 70.44C195.338 71.064 194.546 71.52 193.73 71.808C192.93 72.096 192.026 72.24 191.018 72.24ZM187.634 64.512H193.706C193.594 64.016 193.386 63.584 193.082 63.216C192.794 62.832 192.442 62.536 192.026 62.328C191.626 62.104 191.178 61.992 190.682 61.992C190.17 61.992 189.706 62.096 189.29 62.304C188.874 62.512 188.522 62.808 188.234 63.192C187.962 63.56 187.762 64 187.634 64.512Z" fill="black"/>
<g clip-path="url(#clip0_32_631)">
<path d="M47.3732 33C45.5605 33.1254 43.4419 34.2856 42.2073 35.7965C41.0811 37.1671 40.1546 39.2028 40.5158 41.1812C42.4963 41.2428 44.5427 40.055 45.7284 38.5186C46.8377 37.0885 47.677 35.0655 47.3732 33Z" fill="black"/>
<path d="M54.537 44.4069C52.7967 42.2245 50.3508 40.958 48.0409 40.958C44.9916 40.958 43.7017 42.4179 41.5831 42.4179C39.3986 42.4179 37.739 40.9623 35.1019 40.9623C32.5115 40.9623 29.7533 42.5454 28.0044 45.2526C25.5458 49.0648 25.9666 56.2324 29.9509 62.3375C31.3768 64.522 33.2808 66.9785 35.7713 66.9997C37.9876 67.021 38.6124 65.5781 41.615 65.5632C44.6176 65.5462 45.1871 67.0189 47.3992 66.9955C49.8918 66.9764 51.8999 64.2542 53.3258 62.0698C54.3479 60.5036 54.7283 59.7153 55.5209 57.9473C49.7558 55.7522 48.8314 47.554 54.537 44.4069Z" fill="black"/>
</g>
<defs>
<clipPath id="clip0_32_631">
<rect width="34" height="34" fill="white" transform="translate(24 33)"/>
</clipPath>
</defs>
</svg>
