<svg width="44" height="44" viewBox="0 0 44 44" fill="none" xmlns="http://www.w3.org/2000/svg">
<g clip-path="url(#clip0_32_293)">
<path d="M33.7241 20.1045L31.0912 16.7981C31.0313 16.8492 30.9642 16.8906 30.8916 16.9217L28.5345 17.7074C28.4544 17.7336 28.3706 17.7471 28.2863 17.7473C28.078 17.7472 27.8781 17.6644 27.7308 17.517L27.5006 17.2869L25.699 19.0885L24.588 17.9775L26.3895 16.1758L26.1594 15.9456C26.0564 15.8424 25.9841 15.7126 25.9506 15.5707C25.9171 15.4287 25.9238 15.2803 25.9699 15.1419L26.4106 13.8187H18.1357L19.8116 15.9142L23.1643 20.1044L33.7241 20.1045ZM29.0042 12.6398L32.2145 9.42944L34.2459 11.4612L31.0359 14.6716L29.0042 12.6398Z" fill="#E73D47"/>
<path d="M27.6141 15.1782L28.4988 16.0628L29.7778 15.6361L28.0399 13.8983L27.6141 15.1782ZM16.5002 14.2911L11.8496 20.1045H21.1507L19.6004 18.1671L16.5002 14.2911ZM28.2859 24.8188H29.8573V26.3902H28.2859V24.8188ZM39.2858 24.4934V8.64422L32.2279 15.7044L35.9707 20.4022C36.0116 20.454 36.0454 20.5112 36.0712 20.5721C36.0712 20.5783 36.0792 20.5829 36.0816 20.5902C36.1157 20.6762 36.1345 20.7678 36.1364 20.8603C36.1364 20.8721 36.1429 20.8813 36.1429 20.8925V27.6385L39.2858 24.4934ZM33.3251 8.31806L41.6427 0.000244141L43.6746 2.03209L35.3568 10.3497L33.3251 8.31806ZM14.9288 24.8188H18.0716V29.5331H14.9288V24.8188Z" fill="#E73D47"/>
<path d="M21.9999 29.5331V21.676H10.9999V29.5331H13.3571V24.0331C13.3571 23.8247 13.4398 23.6249 13.5872 23.4775C13.7345 23.3302 13.9344 23.2474 14.1428 23.2474H18.857C19.0654 23.2474 19.2652 23.3302 19.4126 23.4775C19.5599 23.6249 19.6427 23.8247 19.6427 24.0331V29.5331H21.9999ZM3.14284 32.6759V1.24756H1.57142C0.703602 1.24756 0 1.95106 0 2.81898V33.0978C0.47722 32.8206 1.01949 32.6749 1.57142 32.6758L3.14284 32.6759Z" fill="#E73D47"/>
<path d="M32.6748 31.1045H10.2146C10.0062 31.1045 9.80637 31.0217 9.65902 30.8743C9.51167 30.727 9.42889 30.5271 9.42889 30.3187V20.8902C9.42889 20.879 9.43498 20.8698 9.43498 20.8579C9.43719 20.7649 9.45592 20.6731 9.49028 20.5867C9.49028 20.5814 9.49637 20.5775 9.49872 20.5721C9.52549 20.5105 9.55977 20.4523 9.60077 20.3991L15.8864 12.542C15.8864 12.542 15.8953 12.5374 15.8991 12.5325C15.9724 12.4439 16.0642 12.3725 16.168 12.3232C16.2719 12.274 16.3852 12.2481 16.5002 12.2473H27.1748L33.4605 5.96167H4.71464V33.4615C4.71464 33.6699 4.63186 33.8697 4.48451 34.0171C4.33716 34.1644 4.13731 34.2472 3.92893 34.2472H1.57181C1.33874 34.2471 1.10857 34.2988 0.897984 34.3987C0.687395 34.4986 0.501659 34.644 0.354238 34.8245C0.206817 35.005 0.101403 35.2161 0.0456374 35.4424C-0.0101285 35.6687 -0.0148499 35.9046 0.0318154 36.1329C0.0380028 36.1651 0.0514581 36.1942 0.0598063 36.2249C0.0759133 36.294 0.0971275 36.3614 0.122761 36.4274C0.140833 36.4708 0.166957 36.5061 0.188761 36.551C0.210957 36.5955 0.236689 36.6492 0.267332 36.6937C0.324488 36.7785 0.389782 36.8576 0.462286 36.9297C0.534767 37.0022 0.613535 37.0674 0.697802 37.1253C0.73198 37.1472 0.769498 37.163 0.804855 37.1833C0.855926 37.2147 0.908077 37.2432 0.962193 37.2692C1.02161 37.2918 1.083 37.3107 1.14516 37.3256C1.182 37.3359 1.21735 37.3517 1.25487 37.3594C1.35927 37.38 1.46554 37.3904 1.57181 37.39H26.389L32.6748 31.1045ZM6.28606 8.31889C6.28606 8.11051 6.36884 7.91066 6.51619 7.76331C6.66354 7.61597 6.86338 7.53319 7.07177 7.53319H9.42889V9.1046H7.85748V10.676H6.28606V8.31889ZM9.42889 34.2473H7.07177C6.86338 34.2473 6.66354 34.1645 6.51619 34.0172C6.36884 33.8698 6.28606 33.67 6.28606 33.4616V31.1045H7.85748V32.6759H9.42889V34.2473ZM39.2858 38.9615V33.7869L34.1112 38.9614L39.2858 38.9615Z" fill="#E73D47"/>
<path d="M22.3252 43.6757H43.9998V22.0011L22.3252 43.6757ZM40.8569 38.1758V39.7472C40.8569 39.9556 40.7741 40.1554 40.6268 40.3028C40.4795 40.4501 40.2796 40.5329 40.0712 40.5329H32.2141C32.0587 40.533 31.9068 40.4869 31.7775 40.4006C31.6483 40.3143 31.5476 40.1915 31.4881 40.048C31.4286 39.9044 31.4131 39.7464 31.4434 39.594C31.4738 39.4415 31.5487 39.3015 31.6586 39.1917L39.5157 31.3345C39.6256 31.2246 39.7656 31.1497 39.918 31.1193C40.0704 31.089 40.2284 31.1045 40.372 31.164C40.5156 31.2234 40.6383 31.3242 40.7246 31.4534C40.8109 31.5826 40.857 31.7346 40.8569 31.89V38.1758ZM34.5713 29.2076V21.6758H23.5713V29.5329H34.2458L34.5713 29.2076ZM31.4284 27.1757C31.4284 27.3841 31.3456 27.584 31.1983 27.7313C31.0509 27.8787 30.8511 27.9615 30.6427 27.9615H27.4999C27.2915 27.9615 27.0916 27.8787 26.9443 27.7313C26.7969 27.584 26.7142 27.3841 26.7142 27.1757V24.0329C26.7142 23.8245 26.7969 23.6247 26.9443 23.4773C27.0916 23.33 27.2915 23.2472 27.4999 23.2472H30.6427C30.8511 23.2472 31.0509 23.33 31.1983 23.4773C31.3456 23.6247 31.4284 23.8245 31.4284 24.0329V27.1757Z" fill="#E73D47"/>
</g>
<defs>
<clipPath id="clip0_32_293">
<rect width="44" height="44" fill="white"/>
</clipPath>
</defs>
</svg>
