<svg width="44" height="44" viewBox="0 0 44 44" fill="none" xmlns="http://www.w3.org/2000/svg">
<path d="M42.1083 17.325C41.8108 16.6668 41.4798 16.0243 41.1164 15.4L36.4359 28.1142C36.2574 28.5892 35.9978 29.0296 35.6687 29.4158C36.9251 29.2915 38.1357 28.8786 39.2063 28.2094C40.2769 27.5402 41.1784 26.6328 41.8406 25.558C42.5029 24.4831 42.9079 23.2698 43.0241 22.0126C43.1403 20.7555 42.9646 19.4885 42.5107 18.3104C42.3869 17.9778 42.2527 17.6492 42.1083 17.325ZM15.2444 5.86666C12.5134 6.83882 10.0065 8.35205 7.87394 10.3158C5.74138 12.2795 4.02697 14.6533 2.83333 17.2951C1.63969 19.9369 0.991362 22.7924 0.927161 25.6906C0.862959 28.5889 1.3842 31.4703 2.45969 34.1623C2.4881 34.2201 2.50735 34.2769 2.53577 34.3347C3.10714 35.6991 4.03738 36.8834 5.22771 37.7617C6.41804 38.64 7.824 39.1795 9.29631 39.3229C10.7686 39.4664 12.2523 39.2084 13.5898 38.5764C14.9272 37.9444 16.0686 36.962 16.8926 35.7335C18.616 33.1374 21.0902 31.1286 23.9849 29.975C24.0765 29.9383 24.1682 29.9108 24.2599 29.8769C24.5858 29.125 25.0707 28.4528 25.6814 27.9063C26.2921 27.3599 27.014 26.9523 27.7973 26.7117C27.7782 26.0213 27.9197 25.336 28.2107 24.7097L35.4524 9.02824C32.6078 6.87194 29.2731 5.45449 25.7465 4.90275C22.22 4.35101 18.6116 4.6822 15.2444 5.86666ZM9.62527 29.7917C8.90007 29.7917 8.19116 29.5766 7.58818 29.1737C6.9852 28.7708 6.51523 28.1982 6.23771 27.5282C5.96019 26.8582 5.88758 26.1209 6.02906 25.4097C6.17054 24.6984 6.51975 24.0451 7.03255 23.5323C7.54534 23.0195 8.19868 22.6703 8.90994 22.5288C9.6212 22.3873 10.3584 22.4599 11.0284 22.7374C11.6984 23.015 12.2711 23.4849 12.674 24.0879C13.0769 24.6909 13.2919 25.3998 13.2919 26.125C13.2919 27.0975 12.9056 28.0301 12.218 28.7177C11.5304 29.4054 10.5977 29.7917 9.62527 29.7917ZM14.2086 19.25C13.4834 19.25 12.7745 19.0349 12.1715 18.632C11.5685 18.2292 11.0986 17.6565 10.821 16.9865C10.5435 16.3165 10.4709 15.5793 10.6124 14.868C10.7539 14.1567 11.1031 13.5034 11.6159 12.9906C12.1287 12.4778 12.782 12.1286 13.4933 11.9871C14.2045 11.8456 14.9418 11.9182 15.6118 12.1958C16.2818 12.4733 16.8544 12.9433 17.2573 13.5462C17.6602 14.1492 17.8753 14.8581 17.8753 15.5833C17.8753 16.5558 17.489 17.4884 16.8013 18.1761C16.1137 18.8637 15.1811 19.25 14.2086 19.25ZM25.2086 16.0417C24.4834 16.0417 23.7745 15.8266 23.1715 15.4237C22.5685 15.0208 22.0986 14.4482 21.821 13.7782C21.5435 13.1082 21.4709 12.3709 21.6124 11.6597C21.7539 10.9484 22.1031 10.2951 22.6159 9.78227C23.1287 9.26948 23.782 8.92026 24.4933 8.77878C25.2045 8.6373 25.9418 8.70992 26.6118 8.98744C27.2818 9.26496 27.8544 9.73492 28.2573 10.3379C28.6602 10.9409 28.8753 11.6498 28.8753 12.375C28.8753 13.3475 28.489 14.2801 27.8013 14.9677C27.1137 15.6554 26.1811 16.0417 25.2086 16.0417ZM41.6884 3.80508C41.2817 3.63615 40.8254 3.63134 40.4152 3.79166C40.005 3.95197 39.6728 4.26496 39.4884 4.66491L29.8781 25.4778C29.6568 25.9566 29.5852 26.491 29.6727 27.0111C29.7602 27.5313 30.0028 28.0128 30.3685 28.3928C29.4752 28.1833 28.5364 28.2978 27.7196 28.716C26.9029 29.1342 26.2612 29.8289 25.9089 30.6762C24.4249 34.2604 26.7724 35.8325 25.2874 39.4167C26.9804 39.2275 28.593 38.5936 29.9616 37.5793C31.3301 36.5649 32.4057 35.2064 33.0791 33.6417C33.3961 32.8712 33.4559 32.0189 33.2494 31.2117C33.0429 30.4045 32.5813 29.6856 31.9333 29.1619C32.5194 29.2375 33.1137 29.1121 33.6194 28.8062C34.125 28.5004 34.512 28.0322 34.7172 27.478L42.6372 5.96291C42.7876 5.55028 42.7729 5.09553 42.5961 4.69349C42.4193 4.29146 42.0942 3.97319 41.6884 3.80508Z" fill="#E73D47"/>
</svg>
