<svg id="Capa_1" enable-background="new 0 0 512 512" height="512" viewBox="0 0 512 512" width="512" xmlns="http://www.w3.org/2000/svg"><g><g><path d="m407.039 485.698c0 14.52-11.771 26.302-26.302 26.302h-243.903c-7.26 0-13.831-2.945-18.599-7.703-4.758-4.768-7.703-11.339-7.703-18.599 0-14.531 11.781-26.302 26.302-26.302h7.713v-43.644l-5.149-35.313v-59.009c0-46.167 37.424-83.58 83.58-83.58h71.614c46.167 0 83.58 37.413 83.58 83.58v59.009l-5.149 35.313v43.644h7.713c7.26 0 13.841 2.945 18.599 7.703 4.759 4.759 7.704 11.339 7.704 18.599z" fill="#f4dd45"/><path d="m289.855 237.861c-45.971.206-83.168 37.547-83.168 83.57v190.569h-69.853c-7.26 0-13.831-2.945-18.599-7.703-4.758-4.768-7.703-11.339-7.703-18.599 0-14.531 11.781-26.302 26.302-26.302h7.713v-43.644l-5.149-35.313v-59.009c0-46.167 37.424-83.58 83.58-83.58h66.475c.135.001.269.001.402.011z" fill="#eab14d"/><path d="m160.777 435.563c-16.916 0-30.629-13.713-30.629-30.629 0-2.328.26-4.596.752-6.775 3.973-17.597 29.877-14.711 29.877 3.329h196.023c0-18.04 25.903-20.926 29.877-3.329.492 2.179.752 4.447.752 6.775 0 16.916-13.713 30.629-30.629 30.629" fill="#eaac9d"/><path d="m356.796 366.593v53.836c0 39.449-31.98 71.436-71.436 71.436h-53.152c-39.449 0-71.436-31.98-71.436-71.436v-53.222c12.164-.353 28.902-2.428 46.932-6.092 36.95-7.511 79.364-21.708 99.095-41.44.001 0 19.52 39.887 49.997 46.918z" fill="#ffcbbe"/><path d="m279.14 491.866h-46.932c-39.449 0-71.436-31.98-71.436-71.436v-53.222c12.164-.353 28.902-2.428 46.932-6.092v59.315c0 39.448 31.98 71.435 71.436 71.435z" fill="#eaac9d"/><path d="m277.38 449.782c-2.612 0-5.095-1.538-6.173-4.096-2.112-5.009-6.986-8.245-12.417-8.245-5.432 0-10.306 3.236-12.418 8.245-1.437 3.408-5.364 5.005-8.772 3.568-3.407-1.437-5.006-5.364-3.568-8.772 4.209-9.983 13.928-16.435 24.758-16.435s20.548 6.451 24.758 16.435c1.437 3.408-.161 7.335-3.568 8.772-.851.359-1.733.528-2.6.528z" fill="#dd636e"/><g fill="#e490b7"><ellipse cx="316.523" cy="425.506" rx="16.044" ry="9.756"/><ellipse cx="201.055" cy="425.506" rx="16.044" ry="9.756"/></g><path d="m268.333 415.986h-19.088c-3.698 0-6.696-2.998-6.696-6.696s2.998-6.696 6.696-6.696h19.088c3.698 0 6.696 2.998 6.696 6.696s-2.998 6.696-6.696 6.696z" fill="#eaac9d"/><g fill="#df9380"><path d="m310.234 415.483c-1.586 0-3.178-.56-4.455-1.699l-22.281-19.877c-1.991-1.777-2.738-4.566-1.899-7.1.838-2.534 3.101-4.328 5.76-4.566l29.739-2.665c3.681-.33 6.937 2.388 7.267 6.072.33 3.683-2.388 6.937-6.072 7.267l-14.348 1.286 10.75 9.59c2.76 2.462 3.001 6.695.539 9.455-1.324 1.482-3.158 2.237-5 2.237z"/><path d="m207.334 415.483c-1.843 0-3.677-.756-4.999-2.238-2.462-2.76-2.22-6.992.539-9.455l10.75-9.59-14.348-1.286c-3.684-.33-6.402-3.584-6.072-7.267.33-3.684 3.585-6.401 7.267-6.072l29.739 2.665c2.658.238 4.922 2.032 5.76 4.566.839 2.534.092 5.323-1.899 7.1l-22.281 19.877c-1.277 1.14-2.87 1.7-4.456 1.7z"/></g></g><path d="m508.492 201.496c-1.107 10.097-9.285 17.985-19.419 18.694-.838.059-1.671.118-2.504.172-6.179.419-10.983 5.551-10.983 11.746v23.417c0 7.877-9.016 12.348-15.282 7.576-11.434-8.71-26.646-21.665-35.98-35.099-2.208-3.181-5.857-5.035-9.731-5.013-28.737.145-57.473-.779-86.21-2.799-8.012-.559-14.814-5.594-17.845-12.676-.806-1.859-1.343-3.869-1.574-5.97-4.256-38.876-4.256-77.758 0-116.639 1.107-10.086 9.291-17.936 19.409-18.645 42.809-3.004 85.613-3.605 128.417-1.805 10.757.446 21.52 1.048 32.278 1.805 10.123.709 18.312 8.56 19.419 18.645 4.256 38.866 4.256 77.726.005 116.591z" fill="#80b4fb"/><path d="m3.508 283.199c1.107 10.097 9.285 17.985 19.419 18.694.838.059 1.671.118 2.504.172 6.179.419 10.983 5.551 10.983 11.746v23.417c0 7.877 9.016 12.348 15.282 7.576 11.434-8.71 26.646-21.665 35.98-35.099 2.208-3.181 5.857-5.035 9.731-5.013 28.737.145 57.473-.779 86.21-2.799 8.012-.559 14.814-5.594 17.845-12.676.806-1.859 1.343-3.869 1.574-5.97 4.256-38.876 4.256-77.758 0-116.639-1.107-10.086-9.291-17.936-19.409-18.645-42.809-3.004-85.613-3.605-128.417-1.806-10.757.446-21.52 1.048-32.278 1.806-10.123.709-18.312 8.56-19.419 18.645-4.256 38.865-4.256 77.725-.005 116.591z" fill="#90dfc3"/><path d="m74.395 138.053c1.107 10.097 9.285 17.985 19.419 18.694.838.059 1.671.118 2.504.172 6.179.419 10.983 5.551 10.983 11.746v23.417c0 7.877 9.016 12.348 15.282 7.576 11.434-8.71 26.646-21.665 35.98-35.099 2.208-3.181 5.857-5.035 9.731-5.013 28.737.145 57.473-.779 86.21-2.799 8.012-.559 14.814-5.594 17.845-12.676.806-1.859 1.343-3.869 1.574-5.97 4.256-38.876 4.256-77.758 0-116.639-1.107-10.086-9.291-17.936-19.408-18.645-42.809-3.004-85.613-3.605-128.417-1.806-10.758.447-21.521 1.049-32.278 1.806-10.124.709-18.313 8.56-19.42 18.646-4.255 38.865-4.255 77.725-.005 116.59z" fill="#dd636e"/><g fill="#454045"><g><path d="m374.822 165.253c-4.267 0-7.726-3.459-7.726-7.726v-53.424c0-4.267 3.459-7.726 7.726-7.726s7.726 3.459 7.726 7.726v53.424c.001 4.267-3.458 7.726-7.726 7.726z"/><path d="m374.822 195.03c-4.267 0-7.726-3.459-7.726-7.726v-.515c0-4.267 3.459-7.726 7.726-7.726s7.726 3.459 7.726 7.726v.515c.001 4.266-3.458 7.726-7.726 7.726z"/></g><g><path d="m408.726 165.253c-4.267 0-7.726-3.459-7.726-7.726v-53.424c0-4.267 3.459-7.726 7.726-7.726s7.726 3.459 7.726 7.726v53.424c0 4.267-3.459 7.726-7.726 7.726z"/><path d="m408.726 195.03c-4.267 0-7.726-3.459-7.726-7.726v-.515c0-4.267 3.459-7.726 7.726-7.726s7.726 3.459 7.726 7.726v.515c0 4.266-3.459 7.726-7.726 7.726z"/></g><g><path d="m442.629 165.253c-4.267 0-7.726-3.459-7.726-7.726v-53.424c0-4.267 3.459-7.726 7.726-7.726s7.726 3.459 7.726 7.726v53.424c.001 4.267-3.459 7.726-7.726 7.726z"/><path d="m442.629 195.03c-4.267 0-7.726-3.459-7.726-7.726v-.515c0-4.267 3.459-7.726 7.726-7.726s7.726 3.459 7.726 7.726v.515c.001 4.266-3.459 7.726-7.726 7.726z"/></g></g><path d="m227.264 57.746h-16.734l7.084-21.605c1.329-4.054-.88-8.419-4.935-9.748-4.055-1.334-8.42.88-9.748 4.934l-8.662 26.42h-19.799l7.084-21.605c1.329-4.054-.88-8.419-4.935-9.748-4.056-1.334-8.42.88-9.748 4.934l-8.662 26.42h-21.758c-4.267 0-7.726 3.459-7.726 7.726s3.459 7.726 7.726 7.726h16.691l-5.945 18.132h-21.7c-4.267 0-7.726 3.459-7.726 7.726s3.459 7.726 7.726 7.726h16.634l-7.26 22.144c-1.329 4.054.88 8.419 4.935 9.748.799.263 1.611.387 2.408.387 3.249 0 6.273-2.066 7.34-5.321l8.839-26.958h19.798l-7.26 22.144c-1.329 4.054.88 8.419 4.935 9.748.799.263 1.611.387 2.408.387 3.249 0 6.273-2.066 7.34-5.321l8.839-26.958h21.858c4.267 0 7.726-3.459 7.726-7.726s-3.459-7.726-7.726-7.726h-16.791l5.945-18.132h21.8c4.267 0 7.726-3.459 7.726-7.726-.001-4.269-3.46-7.728-7.727-7.728zm-44.007 33.585h-19.798l5.945-18.132h19.798z" fill="#f4dd45"/><path d="m82.026 247.942 22.869-22.869c3.018-3.017 3.018-7.909 0-10.927-3.017-3.017-7.909-3.017-10.927 0l-22.868 22.869-22.869-22.869c-3.017-3.017-7.909-3.017-10.927 0s-3.018 7.909 0 10.927l22.869 22.869-22.869 22.868c-3.018 3.017-3.018 7.909 0 10.927 1.509 1.509 3.486 2.263 5.463 2.263s3.955-.755 5.463-2.263l22.87-22.869 22.869 22.869c1.509 1.509 3.486 2.263 5.463 2.263s3.955-.755 5.463-2.263c3.018-3.017 3.018-7.909 0-10.927z" fill="#454045"/></g></svg>