<svg width="44" height="44" viewBox="0 0 44 44" fill="none" xmlns="http://www.w3.org/2000/svg">
<g clip-path="url(#clip0_32_305)">
<path d="M29.8203 20.7969H1.28906C0.576555 20.7969 0 21.3734 0 22.0859V40.1328C0 42.2653 1.73473 44 3.86719 44H27.2422C29.3746 44 31.1094 42.2653 31.1094 40.1328V22.0859C31.1094 21.3734 30.5328 20.7969 29.8203 20.7969ZM23.2031 28.5312C23.2031 32.7962 19.7337 36.2656 15.4688 36.2656C11.2038 36.2656 7.73438 32.7962 7.73438 28.5312V27.2422C7.73438 26.5297 8.31093 25.9531 9.02344 25.9531C9.73595 25.9531 10.3125 26.5297 10.3125 27.2422V28.5312C10.3125 31.375 12.625 33.6875 15.4688 33.6875C18.3125 33.6875 20.625 31.375 20.625 28.5312V27.2422C20.625 26.5297 21.2016 25.9531 21.9141 25.9531C22.6266 25.9531 23.2031 26.5297 23.2031 27.2422V28.5312Z" fill="#E73D47"/>
<path d="M42.7109 10.4844H36.0938V7.73438C36.0938 3.46938 32.6244 0 28.3594 0C24.0944 0 20.625 3.46938 20.625 7.73438V10.4844H14.0078C13.2953 10.4844 12.7188 11.0609 12.7188 11.7734V18.2188H29.8203C31.9528 18.2188 33.6875 19.9535 33.6875 22.0859V40.1328C33.6875 41.5893 33.1835 42.9194 32.3655 44H40.1328C42.2653 44 44 42.2653 44 40.1328V11.7734C44 11.0609 43.4234 10.4844 42.7109 10.4844ZM33.5156 10.4844H23.2031V7.73438C23.2031 4.89062 25.5156 2.57812 28.3594 2.57812C31.2031 2.57812 33.5156 4.89062 33.5156 7.73438V10.4844Z" fill="#E73D47"/>
</g>
<defs>
<clipPath id="clip0_32_305">
<rect width="44" height="44" fill="white"/>
</clipPath>
</defs>
</svg>
