<svg width="44" height="44" viewBox="0 0 44 44" fill="none" xmlns="http://www.w3.org/2000/svg">
<path d="M41.4219 2.14844H2.57812C1.15672 2.14844 0 3.30516 0 4.72656V30.3359C0 31.7573 1.15672 32.9141 2.57812 32.9141H41.4219C42.8433 32.9141 44 31.7573 44 30.3359V4.72656C44 3.30516 42.8433 2.14844 41.4219 2.14844ZM35.75 39.2734H28.7891V35.4922H15.2109V39.2734H8.25C7.53844 39.2734 6.96094 39.8509 6.96094 40.5625C6.96094 41.2741 7.53844 41.8516 8.25 41.8516H35.75C36.4616 41.8516 37.0391 41.2741 37.0391 40.5625C37.0391 39.8509 36.4616 39.2734 35.75 39.2734Z" fill="#E73D47"/>
</svg>
