<svg id="Capa_1" enable-background="new 0 0 511.182 511.182" height="512" viewBox="0 0 511.182 511.182" width="512" xmlns="http://www.w3.org/2000/svg"><g><path d="m95.569 71.228v160.396c0 9.643 7.817 17.46 17.46 17.46h285.943c9.643 0 17.46-7.817 17.46-17.46v-160.396c0-35.422-28.715-64.137-64.137-64.137-10.901 0-21.47 3.749-29.934 10.617l-3.518 2.855c-1.068.866-2.58.922-3.709.137l-7.338-5.103c-7.962-5.538-17.428-8.506-27.126-8.506h-120.964c-35.422 0-64.137 28.715-64.137 64.137z" fill="#365e7d"/><path d="m352.295 7.091c-5.418 0-10.754.928-15.79 2.703 26.433 7.922 45.701 32.423 45.701 61.434v160.396c0 9.643-7.817 17.46-17.46 17.46h34.227c9.643 0 17.46-7.817 17.46-17.46v-160.396c-.001-35.422-28.716-64.137-64.138-64.137z" fill="#2b4d66"/><path d="m301.771 344.621h-18.801-53.939-18.801c-37.413 0-67.742 30.329-67.742 67.742v83.1c0 4.765 3.863 8.628 8.628 8.628h209.77c4.765 0 8.628-3.863 8.628-8.628v-83.1c-.001-37.412-30.33-67.742-67.743-67.742z" fill="#95d6a4"/><path d="m301.771 344.622h-33.008c37.413 0 67.742 30.329 67.742 67.742v83.1c0 4.765-3.863 8.628-8.628 8.628h33.008c4.765 0 8.627-3.863 8.627-8.628v-83.1c.001-37.413-30.328-67.742-67.741-67.742z" fill="#78c2a4"/><path d="m274.881 294.671-36.221-2.131c-9.248 0-9.654 43.328-9.654 43.328v26.524c0 14.895 12.075 26.97 26.97 26.97 14.895 0 26.97-12.075 26.97-26.97v-26.524s1.183-41.197-8.065-41.197z" fill="#eaac9d"/><path d="m256.001 344.622c-71.877 0-130.145-58.268-130.145-130.144v-78.716c0-1.89 1.537-3.415 3.427-3.419 60.234-.111 113.469-8.738 160.955-39.423 1.419-.917 3.315-.624 4.332.725 21.444 28.468 50.691 36.346 88.165 38.514 1.911.111 3.411 1.68 3.411 3.595v78.724c-.001 71.876-58.269 130.144-130.145 130.144z" fill="#ffcbbe"/><path d="m382.734 132.159c-11.027-.638-21.336-1.778-30.949-3.783v86.102c0 66.052-49.209 120.606-112.965 129.014 5.622.742 11.355 1.13 17.18 1.13 71.877 0 130.144-58.268 130.144-130.144v-78.724c.001-1.915-1.499-3.484-3.41-3.595z" fill="#eaac9d"/><path d="m200.741 212.046c-4.142 0-7.5-3.357-7.5-7.5v-5.289c0-4.143 3.358-7.5 7.5-7.5s7.5 3.357 7.5 7.5v5.289c0 4.142-3.358 7.5-7.5 7.5z" fill="#365e7d"/><path d="m311.26 212.046c-4.143 0-7.5-3.357-7.5-7.5v-5.289c0-4.143 3.357-7.5 7.5-7.5s7.5 3.357 7.5 7.5v5.289c0 4.142-3.357 7.5-7.5 7.5z" fill="#365e7d"/><g fill="#da4a54"><path d="m256 316.384c-14.122 0-25.57-11.448-25.57-25.57v-29.048c0-14.122 11.448-25.57 25.57-25.57 14.122 0 25.57 11.448 25.57 25.57v29.048c0 14.122-11.448 25.57-25.57 25.57z"/><path d="m483.989 93.528c-4.143 0-7.5-3.357-7.5-7.5v-20.592c0-4.143 3.357-7.5 7.5-7.5 3.373 0 6.513-1.35 8.841-3.802 2.325-2.449 3.51-5.663 3.334-9.05-.329-6.338-5.564-11.403-11.919-11.531-6.226-.122-11.48 4.381-12.331 10.479-.077.56-.117 1.136-.117 1.711 0 4.143-3.357 7.5-7.5 7.5s-7.5-3.357-7.5-7.5c0-1.266.088-2.537.261-3.781 1.876-13.438 13.402-23.411 26.933-23.411.186 0 .371.002.557.006 14.18.285 25.862 11.596 26.598 25.75.391 7.535-2.251 14.693-7.438 20.156-3.354 3.531-7.6 6.075-12.218 7.408v14.156c-.001 4.144-3.359 7.501-7.501 7.501z"/><path d="m483.989 123.823c-4.143 0-7.5-3.357-7.5-7.5v-5.159c0-4.143 3.357-7.5 7.5-7.5s7.5 3.357 7.5 7.5v5.159c0 4.142-3.358 7.5-7.5 7.5z"/><path d="m461.739 206.961c-4.143 0-7.5-3.357-7.5-7.5v-14.78c0-4.143 3.357-7.5 7.5-7.5 1.836 0 3.544-.735 4.812-2.069 1.266-1.333 1.91-3.084 1.814-4.93-.176-3.39-3.085-6.202-6.485-6.271-.045 0-.09-.001-.136-.001-3.304 0-6.119 2.429-6.576 5.701-.042.303-.063.617-.063.935 0 4.143-3.357 7.5-7.5 7.5s-7.5-3.357-7.5-7.5c0-1.008.07-2.02.208-3.007 1.492-10.692 10.664-18.629 21.43-18.629.146 0 .292.002.439.005 11.284.228 20.58 9.229 21.164 20.49.311 5.995-1.791 11.689-5.917 16.035-2.293 2.415-5.11 4.249-8.189 5.39v8.632c-.001 4.141-3.359 7.499-7.501 7.499z"/><path d="m461.739 228.708c-4.143 0-7.5-3.357-7.5-7.5v-3.704c0-4.143 3.357-7.5 7.5-7.5s7.5 3.357 7.5 7.5v3.704c0 4.142-3.358 7.5-7.5 7.5z"/><g><path d="m27.193 48.845c-4.142 0-7.5 3.357-7.5 7.5v14.156c-4.619 1.333-8.865 3.877-12.219 7.409-5.186 5.462-7.827 12.62-7.436 20.155.734 14.154 12.417 25.465 26.598 25.75 13.774.309 25.587-9.782 27.488-23.403.174-1.248.262-2.521.262-3.783 0-4.143-3.358-7.5-7.5-7.5s-7.5 3.357-7.5 7.5c0 .573-.04 1.149-.118 1.713-.839 6.014-6.009 10.479-12.08 10.479-.083 0-.166-.001-.25-.002-6.355-.128-11.591-5.193-11.92-11.531-.176-3.387 1.008-6.601 3.334-9.05 2.327-2.452 5.467-3.802 8.841-3.802 4.142 0 7.5-3.357 7.5-7.5v-20.591c0-4.142-3.358-7.5-7.5-7.5z"/><path d="m27.193 18.55c-4.142 0-7.5 3.357-7.5 7.5v5.159c0 4.143 3.358 7.5 7.5 7.5s7.5-3.357 7.5-7.5v-5.159c0-4.142-3.358-7.5-7.5-7.5z"/></g><g><path d="m49.442 170.656c-4.142 0-7.5 3.357-7.5 7.5v8.632c-3.079 1.141-5.896 2.975-8.189 5.39-4.126 4.347-6.227 10.041-5.916 16.035.584 11.262 9.879 20.263 21.162 20.49 10.937.225 20.357-7.786 21.87-18.622.139-.992.208-2.004.208-3.009 0-4.143-3.358-7.5-7.5-7.5s-7.5 3.357-7.5 7.5c0 .314-.021.63-.064.937-.457 3.271-3.272 5.699-6.577 5.699-.045 0-.09-.001-.136-.001-3.399-.069-6.308-2.882-6.484-6.271-.096-1.846.549-3.596 1.814-4.93 1.267-1.334 2.976-2.069 4.812-2.069 4.142 0 7.5-3.357 7.5-7.5v-14.78c0-4.143-3.358-7.501-7.5-7.501z"/><path d="m49.442 148.909c-4.142 0-7.5 3.357-7.5 7.5v3.704c0 4.143 3.358 7.5 7.5 7.5s7.5-3.357 7.5-7.5v-3.704c0-4.142-3.358-7.5-7.5-7.5z"/></g></g></g></svg>