<svg width="44" height="44" viewBox="0 0 44 44" fill="none" xmlns="http://www.w3.org/2000/svg">
<g clip-path="url(#clip0_32_357)">
<path d="M38.2867 20.145C37.7497 21.7982 36.8371 23.1146 35.9925 24.3331C34.7405 26.141 33.5169 27.8475 33.5169 30.5482V34.9193C33.5169 39.3033 29.932 43.9975 24.5349 43.9975H23.4789L21.1992 32.6001C21.0265 31.7357 20.2609 31.1084 19.3793 31.1084C18.4985 31.1084 17.7329 31.7357 17.5602 32.6001L15.2806 43.9975H14.2236C8.82742 43.9975 5.24683 39.3033 5.24683 34.9193V30.5482C5.24683 27.8363 4.01721 26.1324 2.76353 24.3288C1.30105 22.2235 -0.358208 19.8373 0.0679915 15.8976C0.544029 11.4921 4.39701 6.78241 8.69337 5.70231C12.5936 4.72102 16.4956 5.70402 19.381 8.33684C20.6759 7.16221 22.1943 6.30551 23.8295 5.81487C23.5347 6.83483 23.3775 7.9115 23.3775 9.02511C23.3775 15.4215 28.5812 20.6253 34.9777 20.6253C36.1274 20.6253 37.2375 20.4569 38.2867 20.145Z" fill="#E73D47"/>
<path d="M34.9774 0.00268555C30.0023 0.00268555 25.9551 4.04986 25.9551 9.02505C25.9551 14.0002 30.0023 18.0474 34.9774 18.0474C39.9526 18.0474 43.9998 14.0002 43.9998 9.02505C43.9998 4.04986 39.9526 0.00268555 34.9774 0.00268555ZM38.8442 10.314H36.2663V12.8918H33.6885V10.314H31.1107V7.73614H33.6885V5.15832H36.2663V7.73614H38.8442V10.314Z" fill="#E73D47"/>
</g>
<defs>
<clipPath id="clip0_32_357">
<rect width="44" height="44" fill="white"/>
</clipPath>
</defs>
</svg>
