<svg width="260" height="64" viewBox="0 0 260 64" fill="none" xmlns="http://www.w3.org/2000/svg">
<rect width="260" height="64" rx="10" fill="white"/>
<mask id="mask0_32_543" style="mask-type:alpha" maskUnits="userSpaceOnUse" x="0" y="0" width="260" height="64">
<rect width="260" height="64" rx="10" fill="white"/>
</mask>
<g mask="url(#mask0_32_543)">
<path d="M26 0H50L10 64H-14L26 0Z" fill="#274896" fill-opacity="0.1"/>
<path d="M71 0H95L55 64H31L71 0Z" fill="#274896" fill-opacity="0.1"/>
<path d="M116 0H140L100 64H76L116 0Z" fill="#274896" fill-opacity="0.1"/>
<path d="M161 0H185L145 64H121L161 0Z" fill="#274896" fill-opacity="0.1"/>
<path d="M206 0H230L190 64H166L206 0Z" fill="#274896" fill-opacity="0.1"/>
<path d="M251 0H275L235 64H211L251 0Z" fill="#274896" fill-opacity="0.1"/>
</g>
<path d="M53.5 39V35.5C53.5 35.2679 53.4078 35.0454 53.2437 34.8813C53.0796 34.7172 52.8571 34.625 52.625 34.625C52.3929 34.625 52.1704 34.7172 52.0063 34.8813C51.8422 35.0454 51.75 35.2679 51.75 35.5V39C51.75 39.2321 51.6578 39.4546 51.4937 39.6187C51.3296 39.7828 51.1071 39.875 50.875 39.875H35.125C34.8929 39.875 34.6704 39.7828 34.5063 39.6187C34.3422 39.4546 34.25 39.2321 34.25 39V35.5C34.25 35.2679 34.1578 35.0454 33.9937 34.8813C33.8296 34.7172 33.6071 34.625 33.375 34.625C33.1429 34.625 32.9204 34.7172 32.7563 34.8813C32.5922 35.0454 32.5 35.2679 32.5 35.5V39C32.5 39.6962 32.7766 40.3639 33.2688 40.8562C33.7611 41.3484 34.4288 41.625 35.125 41.625H50.875C51.5712 41.625 52.2389 41.3484 52.7312 40.8562C53.2234 40.3639 53.5 39.6962 53.5 39ZM47.9175 34.4325L43.5425 37.9325C43.388 38.0546 43.1969 38.121 43 38.121C42.8031 38.121 42.612 38.0546 42.4575 37.9325L38.0825 34.4325C37.9231 34.282 37.826 34.0772 37.8103 33.8585C37.7947 33.6399 37.8617 33.4233 37.9982 33.2517C38.1346 33.0801 38.3304 32.966 38.5469 32.9319C38.7635 32.8977 38.9849 32.9461 39.1675 33.0675L42.125 35.43V23.25C42.125 23.0179 42.2172 22.7954 42.3813 22.6313C42.5454 22.4672 42.7679 22.375 43 22.375C43.2321 22.375 43.4546 22.4672 43.6187 22.6313C43.7828 22.7954 43.875 23.0179 43.875 23.25V35.43L46.8325 33.0675C46.9206 32.9843 47.025 32.9204 47.1392 32.8797C47.2533 32.839 47.3746 32.8224 47.4955 32.831C47.6163 32.8397 47.7341 32.8733 47.8412 32.9298C47.9484 32.9863 48.0427 33.0645 48.1181 33.1593C48.1935 33.2542 48.2484 33.3637 48.2792 33.4808C48.3101 33.598 48.3163 33.7203 48.2975 33.84C48.2786 33.9597 48.2351 34.0741 48.1697 34.1761C48.1043 34.2781 48.0184 34.3654 47.9175 34.4325Z" fill="#274896"/>
<path d="M77.832 26.88C79.016 26.88 80.0507 27.1093 80.936 27.568C81.832 28.016 82.52 28.6667 83 29.52C83.4907 30.3627 83.736 31.3493 83.736 32.48C83.736 33.6107 83.4907 34.592 83 35.424C82.52 36.256 81.832 36.896 80.936 37.344C80.0507 37.7813 79.016 38 77.832 38H74.2V26.88H77.832ZM77.832 36.512C79.1333 36.512 80.1307 36.16 80.824 35.456C81.5173 34.752 81.864 33.76 81.864 32.48C81.864 31.1893 81.5173 30.1813 80.824 29.456C80.1307 28.7307 79.1333 28.368 77.832 28.368H76.024V36.512H77.832ZM89.3678 38.144C88.5358 38.144 87.7838 37.9573 87.1118 37.584C86.4398 37.2 85.9118 36.6667 85.5278 35.984C85.1438 35.2907 84.9518 34.4907 84.9518 33.584C84.9518 32.688 85.1491 31.8933 85.5438 31.2C85.9384 30.5067 86.4771 29.9733 87.1598 29.6C87.8424 29.2267 88.6051 29.04 89.4478 29.04C90.2904 29.04 91.0531 29.2267 91.7358 29.6C92.4184 29.9733 92.9571 30.5067 93.3518 31.2C93.7464 31.8933 93.9438 32.688 93.9438 33.584C93.9438 34.48 93.7411 35.2747 93.3358 35.968C92.9304 36.6613 92.3758 37.2 91.6718 37.584C90.9784 37.9573 90.2104 38.144 89.3678 38.144ZM89.3678 36.56C89.8371 36.56 90.2744 36.448 90.6798 36.224C91.0958 36 91.4318 35.664 91.6878 35.216C91.9438 34.768 92.0718 34.224 92.0718 33.584C92.0718 32.944 91.9491 32.4053 91.7038 31.968C91.4584 31.52 91.1331 31.184 90.7278 30.96C90.3224 30.736 89.8851 30.624 89.4158 30.624C88.9464 30.624 88.5091 30.736 88.1038 30.96C87.7091 31.184 87.3944 31.52 87.1598 31.968C86.9251 32.4053 86.8078 32.944 86.8078 33.584C86.8078 34.5333 87.0478 35.2693 87.5278 35.792C88.0184 36.304 88.6318 36.56 89.3678 36.56ZM107.587 29.184L104.851 38H102.931L101.155 31.488L99.3789 38H97.4589L94.7069 29.184H96.5629L98.4029 36.272L100.275 29.184H102.179L103.971 36.24L105.795 29.184H107.587ZM113.398 29.04C114.091 29.04 114.71 29.184 115.254 29.472C115.809 29.76 116.241 30.1867 116.55 30.752C116.859 31.3173 117.014 32 117.014 32.8V38H115.206V33.072C115.206 32.2827 115.009 31.68 114.614 31.264C114.219 30.8373 113.681 30.624 112.998 30.624C112.315 30.624 111.771 30.8373 111.366 31.264C110.971 31.68 110.774 32.2827 110.774 33.072V38H108.95V29.184H110.774V30.192C111.073 29.8293 111.451 29.5467 111.91 29.344C112.379 29.1413 112.875 29.04 113.398 29.04ZM121.165 26.16V38H119.341V26.16H121.165ZM127.383 38.144C126.551 38.144 125.799 37.9573 125.127 37.584C124.455 37.2 123.927 36.6667 123.543 35.984C123.159 35.2907 122.967 34.4907 122.967 33.584C122.967 32.688 123.165 31.8933 123.559 31.2C123.954 30.5067 124.493 29.9733 125.175 29.6C125.858 29.2267 126.621 29.04 127.463 29.04C128.306 29.04 129.069 29.2267 129.751 29.6C130.434 29.9733 130.973 30.5067 131.367 31.2C131.762 31.8933 131.959 32.688 131.959 33.584C131.959 34.48 131.757 35.2747 131.351 35.968C130.946 36.6613 130.391 37.2 129.687 37.584C128.994 37.9573 128.226 38.144 127.383 38.144ZM127.383 36.56C127.853 36.56 128.29 36.448 128.695 36.224C129.111 36 129.447 35.664 129.703 35.216C129.959 34.768 130.087 34.224 130.087 33.584C130.087 32.944 129.965 32.4053 129.719 31.968C129.474 31.52 129.149 31.184 128.743 30.96C128.338 30.736 127.901 30.624 127.431 30.624C126.962 30.624 126.525 30.736 126.119 30.96C125.725 31.184 125.41 31.52 125.175 31.968C124.941 32.4053 124.823 32.944 124.823 33.584C124.823 34.5333 125.063 35.2693 125.543 35.792C126.034 36.304 126.647 36.56 127.383 36.56ZM133.155 33.552C133.155 32.6667 133.336 31.8827 133.699 31.2C134.072 30.5173 134.573 29.9893 135.203 29.616C135.843 29.232 136.547 29.04 137.315 29.04C138.008 29.04 138.611 29.1787 139.123 29.456C139.645 29.7227 140.061 30.0587 140.371 30.464V29.184H142.211V38H140.371V36.688C140.061 37.104 139.64 37.4507 139.107 37.728C138.573 38.0053 137.965 38.144 137.283 38.144C136.525 38.144 135.832 37.952 135.203 37.568C134.573 37.1733 134.072 36.6293 133.699 35.936C133.336 35.232 133.155 34.4373 133.155 33.552ZM140.371 33.584C140.371 32.976 140.243 32.448 139.987 32C139.741 31.552 139.416 31.2107 139.011 30.976C138.605 30.7413 138.168 30.624 137.699 30.624C137.229 30.624 136.792 30.7413 136.387 30.976C135.981 31.2 135.651 31.536 135.395 31.984C135.149 32.4213 135.027 32.944 135.027 33.552C135.027 34.16 135.149 34.6933 135.395 35.152C135.651 35.6107 135.981 35.9627 136.387 36.208C136.803 36.4427 137.24 36.56 137.699 36.56C138.168 36.56 138.605 36.4427 139.011 36.208C139.416 35.9733 139.741 35.632 139.987 35.184C140.243 34.7253 140.371 34.192 140.371 33.584ZM143.998 33.552C143.998 32.6667 144.18 31.8827 144.542 31.2C144.916 30.5173 145.417 29.9893 146.046 29.616C146.686 29.232 147.396 29.04 148.174 29.04C148.75 29.04 149.316 29.168 149.87 29.424C150.436 29.6693 150.884 30 151.214 30.416V26.16H153.054V38H151.214V36.672C150.916 37.0987 150.5 37.4507 149.966 37.728C149.444 38.0053 148.841 38.144 148.158 38.144C147.39 38.144 146.686 37.952 146.046 37.568C145.417 37.1733 144.916 36.6293 144.542 35.936C144.18 35.232 143.998 34.4373 143.998 33.552ZM151.214 33.584C151.214 32.976 151.086 32.448 150.83 32C150.585 31.552 150.26 31.2107 149.854 30.976C149.449 30.7413 149.012 30.624 148.542 30.624C148.073 30.624 147.636 30.7413 147.23 30.976C146.825 31.2 146.494 31.536 146.238 31.984C145.993 32.4213 145.87 32.944 145.87 33.552C145.87 34.16 145.993 34.6933 146.238 35.152C146.494 35.6107 146.825 35.9627 147.23 36.208C147.646 36.4427 148.084 36.56 148.542 36.56C149.012 36.56 149.449 36.4427 149.854 36.208C150.26 35.9733 150.585 35.632 150.83 35.184C151.086 34.7253 151.214 34.192 151.214 33.584ZM165.558 32.288C166.156 32.3947 166.662 32.7093 167.078 33.232C167.494 33.7547 167.702 34.3467 167.702 35.008C167.702 35.5733 167.553 36.0853 167.254 36.544C166.966 36.992 166.545 37.3493 165.99 37.616C165.436 37.872 164.79 38 164.054 38H159.606V26.88H163.846C164.604 26.88 165.254 27.008 165.798 27.264C166.342 27.52 166.753 27.8667 167.03 28.304C167.308 28.7307 167.446 29.2107 167.446 29.744C167.446 30.384 167.276 30.9173 166.934 31.344C166.593 31.7707 166.134 32.0853 165.558 32.288ZM161.43 31.552H163.686C164.284 31.552 164.748 31.4187 165.078 31.152C165.42 30.8747 165.59 30.48 165.59 29.968C165.59 29.4667 165.42 29.0773 165.078 28.8C164.748 28.512 164.284 28.368 163.686 28.368H161.43V31.552ZM163.894 36.512C164.513 36.512 164.998 36.3627 165.35 36.064C165.702 35.7653 165.878 35.3493 165.878 34.816C165.878 34.272 165.692 33.84 165.318 33.52C164.945 33.2 164.449 33.04 163.83 33.04H161.43V36.512H163.894ZM171.508 30.464C171.775 30.016 172.127 29.6693 172.564 29.424C173.012 29.168 173.54 29.04 174.148 29.04V30.928H173.684C172.97 30.928 172.426 31.1093 172.052 31.472C171.69 31.8347 171.508 32.464 171.508 33.36V38H169.684V29.184H171.508V30.464ZM179.649 38.144C178.817 38.144 178.065 37.9573 177.393 37.584C176.721 37.2 176.193 36.6667 175.809 35.984C175.425 35.2907 175.233 34.4907 175.233 33.584C175.233 32.688 175.43 31.8933 175.825 31.2C176.22 30.5067 176.758 29.9733 177.441 29.6C178.124 29.2267 178.886 29.04 179.729 29.04C180.572 29.04 181.334 29.2267 182.017 29.6C182.7 29.9733 183.238 30.5067 183.633 31.2C184.028 31.8933 184.225 32.688 184.225 33.584C184.225 34.48 184.022 35.2747 183.617 35.968C183.212 36.6613 182.657 37.2 181.953 37.584C181.26 37.9573 180.492 38.144 179.649 38.144ZM179.649 36.56C180.118 36.56 180.556 36.448 180.961 36.224C181.377 36 181.713 35.664 181.969 35.216C182.225 34.768 182.353 34.224 182.353 33.584C182.353 32.944 182.23 32.4053 181.985 31.968C181.74 31.52 181.414 31.184 181.009 30.96C180.604 30.736 180.166 30.624 179.697 30.624C179.228 30.624 178.79 30.736 178.385 30.96C177.99 31.184 177.676 31.52 177.441 31.968C177.206 32.4053 177.089 32.944 177.089 33.584C177.089 34.5333 177.329 35.2693 177.809 35.792C178.3 36.304 178.913 36.56 179.649 36.56ZM185.42 33.584C185.42 32.6773 185.601 31.8827 185.964 31.2C186.337 30.5067 186.849 29.9733 187.5 29.6C188.151 29.2267 188.897 29.04 189.74 29.04C190.807 29.04 191.687 29.296 192.38 29.808C193.084 30.3093 193.559 31.0293 193.804 31.968H191.836C191.676 31.5307 191.42 31.1893 191.068 30.944C190.716 30.6987 190.273 30.576 189.74 30.576C188.993 30.576 188.396 30.8427 187.948 31.376C187.511 31.8987 187.292 32.6347 187.292 33.584C187.292 34.5333 187.511 35.2747 187.948 35.808C188.396 36.3413 188.993 36.608 189.74 36.608C190.796 36.608 191.495 36.144 191.836 35.216H193.804C193.548 36.112 193.068 36.8267 192.364 37.36C191.66 37.8827 190.785 38.144 189.74 38.144C188.897 38.144 188.151 37.9573 187.5 37.584C186.849 37.2 186.337 36.6667 185.964 35.984C185.601 35.2907 185.42 34.4907 185.42 33.584ZM200.182 29.04C200.854 29.04 201.451 29.184 201.974 29.472C202.507 29.76 202.923 30.1867 203.222 30.752C203.531 31.3173 203.686 32 203.686 32.8V38H201.878V33.072C201.878 32.2827 201.681 31.68 201.286 31.264C200.891 30.8373 200.353 30.624 199.67 30.624C198.987 30.624 198.443 30.8373 198.038 31.264C197.643 31.68 197.446 32.2827 197.446 33.072V38H195.622V26.16H197.446V30.208C197.755 29.8347 198.145 29.5467 198.614 29.344C199.094 29.1413 199.617 29.04 200.182 29.04ZM213.997 29.184V38H212.173V36.96C211.885 37.3227 211.506 37.6107 211.037 37.824C210.578 38.0267 210.087 38.128 209.565 38.128C208.871 38.128 208.247 37.984 207.693 37.696C207.149 37.408 206.717 36.9813 206.397 36.416C206.087 35.8507 205.933 35.168 205.933 34.368V29.184H207.741V34.096C207.741 34.8853 207.938 35.4933 208.333 35.92C208.727 36.336 209.266 36.544 209.949 36.544C210.631 36.544 211.17 36.336 211.565 35.92C211.97 35.4933 212.173 34.8853 212.173 34.096V29.184H213.997ZM218.227 30.464C218.494 30.016 218.846 29.6693 219.283 29.424C219.731 29.168 220.259 29.04 220.867 29.04V30.928H220.403C219.688 30.928 219.144 31.1093 218.771 31.472C218.408 31.8347 218.227 32.464 218.227 33.36V38H216.403V29.184H218.227V30.464ZM230.624 33.376C230.624 33.7067 230.602 34.0053 230.56 34.272H223.824C223.877 34.976 224.138 35.5413 224.608 35.968C225.077 36.3947 225.653 36.608 226.336 36.608C227.317 36.608 228.01 36.1973 228.416 35.376H230.384C230.117 36.1867 229.632 36.8533 228.928 37.376C228.234 37.888 227.37 38.144 226.336 38.144C225.493 38.144 224.736 37.9573 224.064 37.584C223.402 37.2 222.88 36.6667 222.496 35.984C222.122 35.2907 221.936 34.4907 221.936 33.584C221.936 32.6773 222.117 31.8827 222.48 31.2C222.853 30.5067 223.37 29.9733 224.032 29.6C224.704 29.2267 225.472 29.04 226.336 29.04C227.168 29.04 227.909 29.2213 228.56 29.584C229.21 29.9467 229.717 30.4587 230.08 31.12C230.442 31.7707 230.624 32.5227 230.624 33.376ZM228.72 32.8C228.709 32.128 228.469 31.5893 228 31.184C227.53 30.7787 226.949 30.576 226.256 30.576C225.626 30.576 225.088 30.7787 224.64 31.184C224.192 31.5787 223.925 32.1173 223.84 32.8H228.72Z" fill="#274896"/>
</svg>
