<svg width="44" height="44" viewBox="0 0 44 44" fill="none" xmlns="http://www.w3.org/2000/svg">
<g clip-path="url(#clip0_32_340)">
<path d="M6.73039 5.19253H6.72669C6.52174 5.19209 6.31874 5.23225 6.12941 5.3107C5.94007 5.38914 5.76815 5.50432 5.62357 5.64957C5.47617 5.79586 5.3593 5.96998 5.27975 6.16182C5.20019 6.35365 5.15955 6.55938 5.16016 6.76706V30.3768C5.16016 31.2425 5.86728 31.9486 6.73661 31.9508C10.4015 31.9596 16.5417 32.7234 20.7775 37.1562V12.448C20.7775 12.1545 20.7026 11.8788 20.5611 11.6506C17.0845 6.0518 10.4036 5.20113 6.73039 5.19253ZM38.8394 30.3768V6.76691C38.8394 6.34439 38.6748 5.9475 38.376 5.64942C38.2314 5.50421 38.0595 5.38906 37.8702 5.31061C37.6809 5.23217 37.4779 5.19199 37.273 5.19239H37.2692C33.5961 5.20113 26.9152 6.0518 23.4384 11.6506C23.297 11.8788 23.2222 12.1545 23.2222 12.448V37.156C27.458 32.7233 33.5982 31.9594 37.2631 31.9507C38.1323 31.9485 38.8394 31.2424 38.8394 30.3768Z" fill="#E73D47"/>
<path d="M42.4258 10.6372H41.2841V30.3767C41.2841 32.5872 39.4831 34.3897 37.2692 34.3952C34.1606 34.4026 29.0349 35.0105 25.4048 38.4462C31.6831 36.909 38.3015 37.9083 42.0733 38.7678C42.3044 38.8211 42.5445 38.8214 42.7757 38.7687C43.0069 38.716 43.2232 38.6117 43.4083 38.4635C43.5934 38.3165 43.7427 38.1295 43.8452 37.9165C43.9477 37.7035 44.0006 37.4701 44 37.2337V12.2114C44.0001 11.3434 43.2938 10.6372 42.4258 10.6372ZM2.71586 30.3767V10.6372H1.57423C0.706373 10.6372 0 11.3434 0 12.2114V37.2333C0 37.7148 0.215704 38.1631 0.591706 38.4631C0.776797 38.6113 0.993063 38.7157 1.22427 38.7684C1.45548 38.8211 1.69562 38.8208 1.92667 38.7674C5.69854 37.9077 12.3171 36.9086 18.595 38.4457C14.9651 35.0102 9.83944 34.4025 6.73084 34.3951C4.51705 34.3897 2.71586 32.5872 2.71586 30.3767Z" fill="#E73D47"/>
</g>
<defs>
<clipPath id="clip0_32_340">
<rect width="44" height="44" fill="white"/>
</clipPath>
</defs>
</svg>
