<svg id="SvgjsSvg1054" width="288" height="288" xmlns="http://www.w3.org/2000/svg" version="1.1" xmlns:xlink="http://www.w3.org/1999/xlink" xmlns:svgjs="http://svgjs.com/svgjs"><defs id="SvgjsDefs1055"></defs><g id="SvgjsG1056"><svg xmlns="http://www.w3.org/2000/svg" fill="none" viewBox="0 0 24 24" width="288" height="288"><g clip-path="url(#a)"><path fill="#274896" d="M14.0057 14.7044C13.4086 15.1024 12.7151 15.3129 12 15.3129C11.285 15.3129 10.5914 15.1024 9.99431 14.7044L0.159797 8.14783C0.105506 8.11153 0.0522208 8.07375 0 8.03453L0 18.7781C0 20.0099 0.999609 20.9875 2.20936 20.9875H21.7906C23.0224 20.9875 24 19.9879 24 18.7781V8.03448C23.9476 8.07381 23.8942 8.11167 23.8398 8.14802L14.0057 14.7044Z" class="colorfff svgShape"></path><path fill="#274896" d="M0.939845 6.97773L10.7744 13.5343C11.1466 13.7825 11.5733 13.9066 12 13.9066C12.4267 13.9066 12.8534 13.7825 13.2256 13.5343L23.0602 6.97773C23.6487 6.58562 24 5.92937 24 5.22109C24 4.00323 23.0092 3.01248 21.7914 3.01248H2.20861C0.990798 3.01253 1.16255e-06 4.00328 1.16255e-06 5.22226C-0.000363928 5.5697 0.085267 5.91183 0.249256 6.21814C0.413246 6.52444 0.650496 6.7854 0.939845 6.97773Z" class="colorfff svgShape"></path></g><defs><clipPath id="a"><rect width="24" height="24" fill="#274896" class="colorfff svgShape"></rect></clipPath></defs></svg></g></svg>