<svg width="44" height="44" viewBox="0 0 44 44" fill="none" xmlns="http://www.w3.org/2000/svg">
<g clip-path="url(#clip0_32_277)">
<path d="M2.65039 20.695V21.9849C2.65047 22.2653 2.74185 22.5381 2.91072 22.762C3.07959 22.9859 3.31676 23.1487 3.58637 23.2258C3.96175 23.3328 12.8944 25.8548 21.9996 25.8548C31.1048 25.8548 40.0374 23.3328 40.4127 23.2258C40.6823 23.1486 40.9195 22.9858 41.0884 22.762C41.2572 22.5381 41.3486 22.2653 41.3487 21.9849V20.695C41.3487 19.982 40.7718 19.405 40.0588 19.405H3.94033C3.22734 19.405 2.65039 19.982 2.65039 20.695ZM37.4789 31.0145C38.1919 31.0145 38.7688 30.4376 38.7688 29.7246V26.3051C36.937 26.7375 34.18 27.3159 30.9666 27.7634C30.6419 32.4489 26.7662 36.1743 21.9996 36.1743C17.233 36.1743 13.3572 32.4489 13.0325 27.7634C9.81844 27.3158 7.06174 26.7372 5.23028 26.305V29.7246C5.23028 30.4376 5.80723 31.0145 6.52022 31.0145H8.34936C8.64915 32.0689 9.07371 33.0855 9.61918 34.053L8.31789 35.3543C7.81404 35.8581 7.81404 36.6745 8.31789 37.1783L11.966 40.8265C12.4699 41.3303 13.2862 41.3303 13.7901 40.8265L15.0914 39.5252C16.0588 40.0706 17.0754 40.4951 18.1298 40.795V42.7101C18.1298 43.4231 18.7068 44.0001 19.4198 44.0001H24.5795C25.2925 44.0001 25.8695 43.4231 25.8695 42.7101V40.795C26.9239 40.4952 27.9404 40.0706 28.9079 39.5252L30.2092 40.8265C30.713 41.3303 31.5294 41.3303 32.0333 40.8265L35.6814 37.1783C36.1852 36.6745 36.1852 35.8581 35.6814 35.3543L34.3801 34.053C34.9256 33.0855 35.35 32.0689 35.6499 31.0145H37.4789ZM19.95 14.1306C19.3003 14.4247 18.535 14.1336 18.2444 13.4857L14.2175 4.47101C9.6136 6.89361 6.3073 11.4907 5.47907 16.8251H38.52C37.6918 11.4907 34.3855 6.89353 29.7816 4.47101L25.7548 13.4857C25.4639 14.1341 24.6982 14.4243 24.0491 14.1306C23.4003 13.8384 23.1106 13.075 23.4041 12.425L27.8615 2.45431C28.1819 1.74364 27.8132 0.876967 27.0608 0.67307C23.7462 -0.224415 20.2525 -0.224356 16.9379 0.673242C16.1855 0.877139 15.8168 1.74381 16.1372 2.45448L20.595 12.425C20.8885 13.075 20.6 13.8384 19.95 14.1306Z" fill="#E73D47"/>
</g>
<defs>
<clipPath id="clip0_32_277">
<rect width="44" height="44" fill="white"/>
</clipPath>
</defs>
</svg>
