<svg id="Capa_1" enable-background="new 0 0 512 512" height="512" viewBox="0 0 512 512" width="512" xmlns="http://www.w3.org/2000/svg"><g><g><path d="m335.31 482.452v28.973h-163.894v-28.973c0-37.487 30.404-67.891 67.891-67.891h28.103c37.497 0 67.9 30.404 67.9 67.891z" fill="#bed8fb"/><path d="m275.373 415.031c-33.755 3.922-59.937 32.615-59.937 67.42v28.973h-44.02v-28.973c0-37.497 30.404-67.901 67.891-67.901h28.103c2.691.001 5.352.161 7.963.481z" fill="#9dc6fb"/><path d="m234.334 435.448v28.547c0 10.507 8.521 19.028 19.028 19.028 5.247 0 10.01-2.127 13.45-5.578 3.451-3.439 5.578-8.202 5.578-13.45v-23.98" fill="#e28086"/><path d="m253.938 393.325h-38.05v45.823c0 10.507 8.518 19.025 19.025 19.025 10.507 0 19.025-8.518 19.025-19.025 0 10.507 8.518 19.025 19.025 19.025 10.507 0 19.025-8.518 19.025-19.025v-45.823z" fill="#d3effb"/><path d="m321.156 158.498c-12.127 0-22.717 6.56-28.431 16.321-13.377-20.913-36.789-34.79-63.457-34.79-41.584 0-75.295 33.711-75.295 75.295v87.371h134.253v18.469h65.862v-129.735c-.001-18.187-14.745-32.931-32.932-32.931z" fill="#6c6570"/><path d="m262.185 147.595c-7.562 3.685-14.419 8.608-20.303 14.493-13.628 13.628-22.055 32.447-22.055 53.242v87.366h-65.855v-87.366c0-20.795 8.427-39.613 22.055-53.242 13.617-13.628 32.447-22.055 53.242-22.055 11.801.001 22.973 2.724 32.916 7.562z" fill="#545058"/><path d="m342.953 341.331h-179.182c-14.388 0-26.052-11.664-26.052-26.052 0-14.388 11.664-26.052 26.052-26.052h179.182c14.388 0 26.052 11.664 26.052 26.052.001 14.388-11.663 26.052-26.052 26.052z" fill="#eaac9d"/><path d="m328.788 255.849v93.748c0 41.588-33.263 76.06-74.85 76.371-41.919.313-76.001-33.577-76.001-75.423v-94.695c0-.207.001-.414.003-.621.191-23.671 25.806-38.202 46.511-26.728 8.567 4.747 18.424 7.45 28.912 7.45 23.471 0 43.786-13.537 53.538-33.233 13.525 13.627 21.887 32.4 21.887 53.131z" fill="#ffddce"/><path d="m275.534 422.6c-6.829 2.141-14.074 3.308-21.594 3.369-41.919.315-76.004-33.578-76.004-75.425v-95.314c.183-22.923 24.212-37.271 44.537-27.743v123.057c.001 33.872 22.325 62.518 53.061 72.056z" fill="#ffcbbe"/><path d="m253.362 356.18c-12.667 0-24.577-4.933-33.534-13.891-3.018-3.017-3.018-7.909 0-10.927s7.91-3.017 10.927 0c6.039 6.039 14.067 9.364 22.608 9.364s16.569-3.326 22.608-9.364c3.017-3.018 7.909-3.017 10.927 0s3.018 7.909 0 10.927c-8.958 8.958-20.868 13.891-33.536 13.891z" fill="#e28086"/><g fill="#545058"><path d="m233.681 306.307c-4.267 0-7.726-3.459-7.726-7.726v-15.237c0-4.267 3.459-7.726 7.726-7.726s7.726 3.459 7.726 7.726v15.237c0 4.267-3.459 7.726-7.726 7.726z"/><path d="m273.043 306.307c-4.267 0-7.726-3.459-7.726-7.726v-15.237c0-4.267 3.459-7.726 7.726-7.726s7.726 3.459 7.726 7.726v15.237c.001 4.267-3.459 7.726-7.726 7.726z"/></g><path d="m271.652 501.31v10.115h-36.577v-10.115c0-10.095 8.184-18.288 18.288-18.288 5.052 0 9.614 2.051 12.926 5.362 3.322 3.312 5.363 7.874 5.363 12.926z" fill="#e28086"/></g><g><path d="m267.552 7.76 7.167 14.522c1.876 3.802 5.504 6.437 9.699 7.047l16.026 2.329c10.566 1.535 14.785 14.52 7.139 21.973l-11.597 11.304c-3.036 2.959-4.422 7.223-3.705 11.402l2.738 15.962c1.805 10.523-9.241 18.548-18.691 13.58l-14.335-7.536c-3.753-1.973-8.236-1.973-11.989 0l-14.335 7.536c-9.451 4.968-20.496-3.057-18.691-13.58l2.738-15.962c.717-4.179-.669-8.443-3.705-11.402l-11.597-11.304c-7.646-7.453-3.427-20.437 7.139-21.973l16.026-2.329c4.196-.61 7.823-3.245 9.699-7.047l7.167-14.522c4.729-9.574 18.381-9.574 23.107 0z" fill="#ffe07d"/><path d="m263.356 2.848c-1.706 1.177-3.167 2.811-4.201 4.912l-7.162 14.522c-1.879 3.798-5.504 6.436-9.705 7.044l-16.022 2.329c-10.566 1.54-14.79 14.522-7.138 21.976l11.592 11.3c3.04 2.961 4.422 7.225 3.704 11.403l-2.733 15.966c-.932 5.401 1.532 10.147 5.433 12.808l-1.453.766c-9.444 4.975-20.491-3.056-18.691-13.574l2.74-15.967c.719-4.177-.671-8.442-3.703-11.403l-11.6-11.3c-7.644-7.454-3.427-20.436 7.138-21.976l16.03-2.329c4.193-.608 7.825-3.246 9.697-7.044l7.17-14.522c3.687-7.485 12.831-9.119 18.904-4.911z" fill="#ffd064"/></g><g><g><path d="m67.04 50.918 7.167 14.522c1.876 3.802 5.504 6.437 9.699 7.047l16.026 2.329c10.566 1.535 14.785 14.52 7.139 21.973l-11.597 11.304c-3.036 2.959-4.422 7.223-3.705 11.402l2.738 15.962c1.805 10.523-9.24 18.548-18.691 13.58l-14.335-7.536c-3.753-1.973-8.236-1.973-11.989 0l-14.335 7.536c-9.451 4.968-20.496-3.057-18.691-13.58l2.738-15.962c.717-4.179-.669-8.443-3.705-11.402l-11.595-11.304c-7.646-7.453-3.427-20.437 7.139-21.973l16.026-2.329c4.196-.61 7.823-3.245 9.699-7.047l7.167-14.522c4.727-9.574 18.38-9.574 23.105 0z" fill="#ffe07d"/><path d="m62.844 46.006c-1.706 1.177-3.167 2.811-4.201 4.912l-7.162 14.522c-1.879 3.798-5.504 6.436-9.705 7.044l-16.022 2.329c-10.566 1.54-14.79 14.522-7.138 21.976l11.592 11.3c3.04 2.961 4.422 7.225 3.704 11.403l-2.732 15.967c-.932 5.401 1.532 10.147 5.433 12.808l-1.453.766c-9.444 4.975-20.491-3.056-18.691-13.574l2.74-15.967c.719-4.177-.671-8.442-3.703-11.403l-11.6-11.3c-7.644-7.454-3.427-20.436 7.138-21.976l16.03-2.329c4.193-.608 7.825-3.246 9.697-7.044l7.17-14.522c3.686-7.486 12.831-9.12 18.903-4.912z" fill="#ffd064"/></g><g><path d="m468.063 50.918 7.167 14.522c1.876 3.802 5.504 6.437 9.699 7.047l16.026 2.329c10.566 1.535 14.785 14.52 7.139 21.973l-11.597 11.304c-3.036 2.959-4.422 7.223-3.705 11.402l2.738 15.962c1.805 10.523-9.241 18.548-18.691 13.58l-14.335-7.536c-3.753-1.973-8.236-1.973-11.989 0l-14.335 7.536c-9.451 4.968-20.496-3.057-18.691-13.58l2.738-15.962c.717-4.179-.669-8.443-3.705-11.402l-11.597-11.304c-7.646-7.453-3.427-20.437 7.139-21.973l16.026-2.329c4.196-.61 7.823-3.245 9.699-7.047l7.167-14.522c4.729-9.574 18.382-9.574 23.107 0z" fill="#ffe07d"/><path d="m463.867 46.006c-1.706 1.177-3.167 2.811-4.201 4.912l-7.162 14.522c-1.879 3.798-5.504 6.436-9.705 7.044l-16.022 2.329c-10.566 1.54-14.79 14.522-7.138 21.976l11.592 11.3c3.04 2.961 4.422 7.225 3.704 11.403l-2.732 15.967c-.932 5.401 1.532 10.147 5.433 12.808l-1.453.766c-9.444 4.975-20.491-3.056-18.691-13.574l2.74-15.967c.719-4.177-.671-8.442-3.703-11.403l-11.6-11.3c-7.644-7.454-3.427-20.436 7.138-21.976l16.03-2.329c4.193-.608 7.825-3.246 9.697-7.044l7.17-14.522c3.687-7.486 12.831-9.12 18.903-4.912z" fill="#ffd064"/></g></g></g></svg>