<svg id="SvgjsSvg1012" width="288" height="288" xmlns="http://www.w3.org/2000/svg" version="1.1" xmlns:xlink="http://www.w3.org/1999/xlink" xmlns:svgjs="http://svgjs.com/svgjs"><defs id="SvgjsDefs1013"></defs><g id="SvgjsG1014"><svg xmlns="http://www.w3.org/2000/svg" fill="none" viewBox="0 0 64 64" width="288" height="288"><path fill="#274896" d="M57.1837 26.0461L50.6867 29.4497L36.2188 31.5442V34.6764H51.8213V41.9297L43.7922 43.9176C43.3558 44.0242 43.0455 44.4218 43.0455 44.8776L43.0261 62.0606H47.9716L47.9425 49.3188C47.9425 48.7758 48.3885 48.3297 48.9316 48.3297H56.5243C58.8128 48.3297 60.6649 46.4776 60.6649 44.1891V29.5273C60.6649 27.5976 59.1037 26.0461 57.1837 26.0461ZM52.0831 25.7067C54.9728 25.7067 57.3097 23.3697 57.3097 20.48C57.3097 17.5903 54.9728 15.2533 52.0831 15.2533C49.1934 15.2533 46.8564 17.5903 46.8564 20.48C46.8564 23.36 49.1934 25.7067 52.0831 25.7067ZM23.5352 22.6618C26.4249 22.6618 28.7619 20.3248 28.7619 17.4352C28.7619 14.5455 26.4249 12.2085 23.5352 12.2085C20.6455 12.2085 18.3085 14.5455 18.3085 17.4352C18.3182 20.3248 20.6552 22.6618 23.5352 22.6618ZM33.6879 13.1297H42.9097L46.1097 15.3309V7.53454C46.1097 4.44121 43.6079 1.93939 40.5146 1.93939H33.6879C30.5946 1.93939 28.0928 4.44121 28.0928 7.53454C28.0928 10.6279 30.5946 13.1297 33.6879 13.1297ZM32.9122 4.8H40.9607C41.494 4.8 41.9304 5.23636 41.9304 5.7697C41.9304 6.30303 41.494 6.73939 40.9607 6.73939H32.9122C32.3788 6.73939 31.9425 6.30303 31.9425 5.7697C31.9425 5.23636 32.3788 4.8 32.9122 4.8ZM32.9122 8.3297H37.0916C37.6249 8.3297 38.0613 8.76606 38.0613 9.29939C38.0613 9.83273 37.6249 10.2691 37.0916 10.2691H32.9122C32.3788 10.2691 31.9425 9.83273 31.9425 9.29939C31.9425 8.76606 32.3788 8.3297 32.9122 8.3297ZM11.4043 47.5345H35.6661V62.0606H11.4043V47.5345ZM18.0176 31.6606C18.0176 31.1273 18.454 30.6909 18.9873 30.6909C19.5207 30.6909 19.957 31.1273 19.957 31.6606V34.6764H27.1231V31.6606C27.1231 31.1273 27.5594 30.6909 28.0928 30.6909C28.6261 30.6909 29.0625 31.1273 29.0625 31.6606V34.6764H33.4649V29.7503C33.4649 29.5661 33.4552 29.3818 33.4358 29.1976C33.174 26.5697 30.7982 24.6594 28.151 24.6594H18.9194C16.2819 24.6594 13.9061 26.5697 13.6346 29.1976C13.6152 29.3818 13.6055 29.5661 13.6055 29.7503V34.6764H18.0079V31.6606H18.0176Z" class="colorE73D47 svgShape"></path><path fill="#274896" d="M3.33594 36.6158H43.7432V40.2425H3.33594V36.6158ZM11.4135 45.5952H35.6753L41.959 42.1818H5.12018L11.4135 45.5952Z" class="colorE73D47 svgShape"></path></svg></g></svg>