<svg width="44" height="44" viewBox="0 0 44 44" fill="none" xmlns="http://www.w3.org/2000/svg">
<g clip-path="url(#clip0_32_412)">
<path d="M42.7064 23.384H41.3523C40.7625 14.5017 34.1639 7.21652 25.5837 5.63999C25.8142 5.14508 25.9523 4.44744 25.9523 3.86633C25.9523 1.73439 24.2179 0 22.0859 0C19.954 0 18.2196 1.73439 18.2196 3.86633C18.2196 4.44744 18.3576 5.14508 18.5882 5.63999C10.0079 7.21652 3.23751 14.5016 2.6478 23.384H1.29369C0.581352 23.384 0.00488281 23.9261 0.00488281 24.6385C0.00488281 25.3508 0.581266 25.9273 1.29369 25.9273H42.7064C43.4187 25.9273 43.9952 25.3508 43.9952 24.6385C43.9952 23.9261 43.4187 23.384 42.7064 23.384ZM22.0859 5.30681C21.3749 5.30681 20.7971 4.57746 20.7971 3.86633C20.7971 3.1552 21.3749 2.57752 22.0859 2.57752C22.797 2.57752 23.3747 3.1552 23.3747 3.86633C23.3747 4.57746 22.7971 5.30681 22.0859 5.30681ZM3.8713 31.0823C3.14951 31.0823 2.58249 31.6493 2.58249 32.3711V42.7014C2.58249 43.423 3.14951 43.9902 3.8713 43.9902H7.73763V31.0823H3.8713ZM39.9777 29.979C38.9708 28.9721 37.3398 28.9721 36.333 29.9789L28.9528 37.3247C28.0282 38.2493 26.8115 38.7634 25.5129 38.8149H21.983C21.2761 38.8149 20.6942 38.2889 20.6942 37.5261C20.6942 36.763 21.276 36.2373 21.983 36.2373H25.9523C27.37 36.2373 28.5299 35.0774 28.5299 33.6597C28.5299 32.2421 27.37 31.1166 25.9523 31.1166H23.3748C22.9225 31.1166 22.5814 31.1327 22.2149 30.8073C21.7579 30.4073 21.2614 29.9083 20.7973 29.613C18.2211 27.7946 14.4958 27.3531 11.3891 28.9764C11.0652 29.1458 10.7939 29.4007 10.6046 29.7133C10.4153 30.026 10.3152 30.3846 10.3152 30.7501V43.9902C26.7084 44.0122 25.2085 43.99 25.3067 43.9902C28.0605 43.9902 30.6505 42.918 32.5975 40.9697L39.9778 33.5894C40.9846 32.5826 40.9846 30.9859 39.9777 29.979Z" fill="#E73D47"/>
</g>
<defs>
<clipPath id="clip0_32_412">
<rect width="44" height="44" fill="white"/>
</clipPath>
</defs>
</svg>
