<svg id="Layer_1" enable-background="new 0 0 512 512" height="512" viewBox="0 0 512 512" width="512" xmlns="http://www.w3.org/2000/svg"><g><g clip-rule="evenodd" fill-rule="evenodd"><path d="m512 439.276v-245.171h-512v245.172c0 23.131 18.766 41.897 41.897 41.897h428.234c23.132-.001 41.869-18.767 41.869-41.898z" fill="#d3effb"/><path d="m512 439.276v-245.171h-29.991v245.172c0 23.131-18.765 41.897-41.897 41.897h30.019c23.132-.001 41.869-18.767 41.869-41.898z" fill="#b1e4f9"/><path d="m256 30.827c44.079 0 79.796 35.718 79.796 79.769 0 29.821-16.356 55.814-40.593 69.506-3.742 2.126-5.924 5.046-5.924 9.496v19.53h-66.53v-19.53c0-4.224-2.381-7.483-5.981-9.525-24.208-13.691-40.536-39.656-40.536-69.477 0-44.051 35.717-79.769 79.768-79.769z" fill="#ffe07d"/><path d="m256 30.827c44.079 0 79.796 35.718 79.796 79.769 0 29.821-16.356 55.814-40.593 69.506-3.742 2.126-5.924 5.046-5.924 9.496v19.53h-30.02v-19.53c0-4.45 2.183-7.37 5.953-9.496 24.208-13.691 40.564-39.685 40.564-69.506 0-38.92-27.893-71.321-64.772-78.351 4.848-.935 9.865-1.418 14.996-1.418z" fill="#ffd064"/></g><path d="m263.512 183.078v26.05h-14.995v-26.05l-35.434-69.309c-3.43 1.475-7.455.199-9.383-3.09-2.098-3.571-.907-8.135 2.665-10.232l15.279-8.93c2.466-1.445 5.414-1.332 7.682.057l11.395 6.662 11.509-6.719c2.466-1.445 5.386-1.332 7.653.057l11.424 6.662 11.509-6.719c2.438-1.445 5.386-1.332 7.653.057l15.194 8.873c3.543 2.098 4.734 6.661 2.664 10.232-1.928 3.289-5.981 4.564-9.383 3.09zm-26.561-69.733-10.432-6.095 29.481 57.686 29.509-57.686-10.319 6.038c-2.267 1.36-5.216 1.503-7.682.057l-11.508-6.746-11.396 6.689c-2.267 1.36-5.215 1.503-7.653.057z" fill="#ffc250"/><path clip-rule="evenodd" d="m222.749 209.128h66.53v13.211c0 18.397-14.911 33.278-33.279 33.278-18.369 0-33.251-14.881-33.251-33.278z" fill="#407093" fill-rule="evenodd"/><path clip-rule="evenodd" d="m259.26 209.128h30.02v13.211c0 18.397-14.911 33.278-33.279 33.278-5.386 0-10.488-1.275-14.995-3.571 10.828-5.471 18.255-16.725 18.255-29.707v-13.211z" fill="#365e7d" fill-rule="evenodd"/><path clip-rule="evenodd" d="m470.131 397.381c-19.134 0-28.148 8.106-35.717 19.983-2.466 3.884-6.18 4.11-6.18 0v-223.26c0-23.131 18.766-41.867 41.896-41.867 23.131 0 41.869 18.736 41.869 41.867v245.172c.001-23.13-22.762-41.895-41.868-41.895zm-428.234 0c19.105 0 27.95 8.22 35.688 19.983 2.126 3.203 6.18 3.288 6.18 0v-223.26c0-23.131-18.737-41.867-41.868-41.867s-41.897 18.737-41.897 41.868v245.172c0-23.131 22.763-41.896 41.897-41.896z" fill="#b1e4f9" fill-rule="evenodd"/><path clip-rule="evenodd" d="m455.136 155.015c4.649-1.813 9.694-2.777 14.995-2.777 23.131 0 41.869 18.736 41.869 41.867v245.172c0-18.425-14.457-34.072-29.991-39.685v-205.487c0-17.831-11.169-33.081-26.873-39.09zm-401.362 243.669c11.311 2.75 17.887 9.695 23.812 18.681 2.126 3.203 6.18 3.288 6.18 0v-223.26c0-23.131-18.737-41.867-41.868-41.867-5.301 0-10.347.964-14.996 2.777 15.704 6.01 26.872 21.26 26.872 39.09z" fill="#90d8f9" fill-rule="evenodd"/><path d="m328.455 422.693c-2.92 2.92-7.682 2.92-10.602 0-2.948-2.92-2.948-7.682 0-10.602l17.632-17.631c2.92-2.948 7.682-2.948 10.602 0l17.66 17.631c2.92 2.92 2.92 7.682 0 10.602-2.948 2.92-7.682 2.92-10.602 0l-4.848-4.848v9.299c0 7.568-3.09 14.456-8.079 19.417-4.989 4.989-11.849 8.079-19.418 8.079h-123.251c-7.569 0-14.458-3.09-19.446-8.079-4.96-4.961-8.05-11.849-8.05-19.417v-62.392c0-4.139 3.345-7.512 7.483-7.512 4.139 0 7.512 3.373 7.512 7.512v62.392c0 3.43 1.389 6.547 3.685 8.815 2.268 2.268 5.386 3.685 8.816 3.685h123.251c3.43 0 6.548-1.417 8.816-3.685 2.268-2.269 3.685-5.386 3.685-8.815v-9.299z" fill="#365e7d"/><path clip-rule="evenodd" d="m180.541 268.346 55.56 96.208c1.928 3.346.369 5.188-3.005 5.188h-111.091c-3.827 0-4.961-1.814-3.005-5.188l55.531-96.208c1.758-3.005 4.337-2.892 6.01 0z" fill="#95d6a4" fill-rule="evenodd"/><path clip-rule="evenodd" d="m180.541 268.346 55.56 96.208c1.928 3.346.369 5.188-3.005 5.188h-29.991c3.345 0 4.933-1.842 2.976-5.188l-43.54-75.431 11.99-20.777c1.758-3.005 4.337-2.892 6.01 0z" fill="#78c2a4" fill-rule="evenodd"/><path clip-rule="evenodd" d="m340.785 369.741c29.368 0 53.32-23.924 53.32-53.291 0-29.368-23.953-53.321-53.32-53.321s-53.292 23.953-53.292 53.321c.001 29.367 23.925 53.291 53.292 53.291z" fill="#fc7070" fill-rule="evenodd"/><path clip-rule="evenodd" d="m340.785 369.741c-5.216 0-10.233-.736-14.995-2.126 22.139-6.491 38.296-26.929 38.296-51.165 0-24.237-16.157-44.675-38.296-51.167 4.762-1.389 9.779-2.154 14.995-2.154 29.453 0 53.32 23.868 53.32 53.321 0 29.424-23.867 53.291-53.32 53.291z" fill="#d15a63" fill-rule="evenodd"/></g></svg>