<svg width="44" height="44" viewBox="0 0 44 44" fill="none" xmlns="http://www.w3.org/2000/svg">
<g clip-path="url(#clip0_32_349)">
<path d="M1.28906 44H24.6641C25.3761 44 25.9531 43.4229 25.9531 42.7109V41.3359C25.9531 39.9119 24.799 38.7578 23.375 38.7578V37.2166C23.375 35.1759 21.7147 33.5156 19.674 33.5156H6.27911C4.23844 33.5156 2.57812 35.1759 2.57812 37.2166V38.7578C1.15414 38.7578 0 39.9119 0 41.3359V42.7109C0 43.4225 0.577414 44 1.28906 44ZM16.1334 28.3889C16.9902 29.5258 18.6068 29.7531 19.7438 28.8961C20.8811 28.0394 21.1081 26.4227 20.2513 25.2853L12.4936 14.9906C11.6365 13.8533 10.0202 13.6264 8.88319 14.4831C7.74589 15.3401 7.51859 16.9565 8.37564 18.0938L16.1334 28.3889ZM34.664 14.4247C35.5211 15.5617 37.1375 15.789 38.2748 14.9319C39.4117 14.0752 39.639 12.4589 38.782 11.3215L31.0241 1.02691C30.1674 -0.110392 28.5508 -0.337696 27.4137 0.519358C26.2768 1.37641 26.0495 2.99273 26.9065 4.13011L34.664 14.4247ZM29.0093 21.914C30.9146 20.4783 32.3451 18.6954 33.2397 16.8182L24.2129 4.83935C22.1618 5.18207 20.0539 6.06525 18.1483 7.50135C16.2429 8.93711 14.8124 10.72 13.9178 12.5968L22.9447 24.5764C24.9957 24.2336 27.1036 23.35 29.0093 21.914ZM32.49 22.2497C31.8899 22.8613 31.2577 23.4478 30.5608 23.9732C29.8636 24.4982 29.1254 24.9443 28.3724 25.3529L30.0533 27.5836L34.1712 24.4807L32.49 22.2497ZM35.7228 26.5395L31.6049 29.6424L39.3627 39.9374C40.2198 41.0747 41.8361 41.3017 42.9731 40.445C44.1104 39.5879 44.3374 37.9716 43.4807 36.8342L35.7228 26.5395Z" fill="#E73D47"/>
</g>
<defs>
<clipPath id="clip0_32_349">
<rect width="44" height="44" fill="white"/>
</clipPath>
</defs>
</svg>
