<svg width="24" height="24" viewBox="0 0 24 24" fill="none" xmlns="http://www.w3.org/2000/svg">
<path d="M7.49995 12C7.49985 11.9015 7.51921 11.804 7.55692 11.713C7.59464 11.622 7.64995 11.5394 7.7197 11.4698L15.2197 3.9698C15.5128 3.67673 15.9873 3.67673 16.2802 3.9698C16.5731 4.26286 16.5733 4.73742 16.2802 5.0303L9.31045 12L16.2802 18.9698C16.5733 19.2629 16.5733 19.7374 16.2802 20.0303C15.9871 20.3232 15.5126 20.3234 15.2197 20.0303L7.7197 12.5303C7.64995 12.4607 7.59464 12.3781 7.55692 12.2871C7.51921 12.1961 7.49985 12.0985 7.49995 12Z" fill="#274896"/>
</svg>
