<svg id="SvgjsSvg1001" width="288" height="288" xmlns="http://www.w3.org/2000/svg" version="1.1" xmlns:xlink="http://www.w3.org/1999/xlink" xmlns:svgjs="http://svgjs.com/svgjs"><defs id="SvgjsDefs1002"></defs><g id="SvgjsG1008"><svg xmlns="http://www.w3.org/2000/svg" fill="none" viewBox="0 0 28 28" width="288" height="288"><g clip-path="url(#a)"><path fill="#274896" d="M14 0C6.26921 0 0 6.26921 0 14C0 21.7308 6.26921 28 14 28C21.7308 28 28 21.7308 28 14C28 6.26921 21.7308 0 14 0ZM9.9318 21.1641H6.52214V10.9061H9.93174L9.9318 21.1641ZM8.22702 9.50534H8.20482C7.06065 9.50534 6.32067 8.71773 6.32067 7.73336C6.32067 6.72678 7.08329 5.96094 8.24972 5.96094C9.41609 5.96094 10.1339 6.72678 10.1561 7.73336C10.1561 8.71773 9.41609 9.5054 8.22702 9.5054V9.50534ZM22.2263 21.1641H18.817V15.6763C18.817 14.2972 18.3234 13.3565 17.0897 13.3565C16.1478 13.3565 15.5869 13.991 15.3403 14.6035C15.2502 14.8227 15.2282 15.129 15.2282 15.4355V21.1641H11.8187C11.8187 21.1641 11.8634 11.8684 11.8187 10.9061H15.2282V12.3585C15.6813 11.6596 16.492 10.6654 18.301 10.6654C20.5442 10.6654 22.2263 12.1314 22.2263 15.2821V21.1641Z" class="colorfff svgShape"></path></g><defs><clipPath id="a"><rect width="28" height="28" fill="#274896" class="colorfff svgShape"></rect></clipPath></defs></svg></g></svg>