<svg height="512" viewBox="0 0 58 58" width="512" xmlns="http://www.w3.org/2000/svg"><g id="Page-1" fill="none" fill-rule="evenodd"><g id="067---Flight-Luggage" fill-rule="nonzero"><path id="Shape" d="m25.63 22.95-1.63 1.05-2.48-1.05-.17-.74c-.3579227-1.4984878-1.2280375-2.8248823-2.46-3.75-1.2649671-.9523728-2.8066081-1.4650826-4.39-1.46-3.214129-.0585533-6.04814099 2.0969507-6.85 5.21l-.17.74-2.48 1.05-1.63-1.05.39-1.66c1.20940557-4.9293355 5.6650778-8.3685835 10.74-8.29 5.0749222-.0785835 9.5305944 3.3606645 10.74 8.29z" fill="#3b97d3"/><path id="Shape" d="m29 58h-27c-1.10320187-.0032948-1.9967052-.8967981-2-2v-31.05c.0032948-1.1032019.89679813-1.9967052 2-2h25c1.1032019.0032948 1.9967052.8967981 2 2z" fill="#84b5cb"/><g fill="#ff5364"><path id="Shape" d="m53 34c-.5522847 0-1-.4477153-1-1v-3c0-.5522847.4477153-1 1-1s1 .4477153 1 1v3c0 .5522847-.4477153 1-1 1z"/><path id="Shape" d="m49 58h-7c-.5522847 0-1-.4477153-1-1s.4477153-1 1-1h7c1.6568542 0 3-1.3431458 3-3v-2c0-.5522847.4477153-1 1-1s1 .4477153 1 1v2c-.0033061 2.7600532-2.2399468 4.9966939-5 5z"/><path id="Shape" d="m53 48c-.5522847 0-1-.4477153-1-1v-3c0-.5522847.4477153-1 1-1s1 .4477153 1 1v3c0 .5522847-.4477153 1-1 1z"/><path id="Shape" d="m53 41c-.5522847 0-1-.4477153-1-1v-3c0-.5522847.4477153-1 1-1s1 .4477153 1 1v3c0 .5522847-.4477153 1-1 1z"/></g><path id="Shape" d="m8 55h-4c-.55228475 0-1-.4477153-1-1v-4c0-.5522847.44771525-1 1-1s1 .4477153 1 1v3h3c.55228475 0 1 .4477153 1 1s-.44771525 1-1 1z" fill="#fff"/><path id="Shape" d="m4 32c-.55228475 0-1-.4477153-1-1v-4.05c0-.5522847.44771525-1 1-1h4c.55228475 0 1 .4477153 1 1s-.44771525 1-1 1h-3v3.05c0 .5522847-.44771525 1-1 1z" fill="#fff"/><path id="Shape" d="m29 32.95v5h-7v-4c0-.5522847.4477153-1 1-1z" fill="#84b5cb"/><path id="Shape" d="m41 33.95v6.05h-5v-6.05c0-.5522847-.4477153-1-1-1h-12c-.5522847 0-1 .4477153-1 1v6.05h-5v-6.05c0-3.3137085 2.6862915-6 6-6h12c3.3137085 0 6 2.6862915 6 6z" fill="#d25627"/><path id="Shape" d="m35.838 6.411 5.069 2.93.75.43 5.743-4.389c.2658629-.20536359.41208-.52957788.3900131-.8647947-.022067-.33521682-.2095235-.63746575-.5000131-.8062053l-1.742-1.011c-.2741641-.16133211-.6093652-.18032683-.9-.051z" fill="#95a5a5"/><path id="Shape" d="m21.268 8.471 8.75 5.05 2.24 1.29.969 5.93.21 1.31c.0492189.298178.2288744.5588618.49.711l1.721.989c.2954358.1765236.6608844.1887249.9674364.0323.306552-.1564248.5111274-.4594932.5415636-.8023l.491-5.05 1.91 1.1 4.84 2.791c.5864375.3373505 1.2252974.5739653 1.89.7.6871015.128273 1.3916969.1316604 2.08.01l.69 2.44c.0840093.2017774.235707.367973.429.47l1.97 1.42c.3090648.1832455.6926808.1865957 1.004899.0087761.3122181-.1778196.5050383-.5094712.505101-.8687761l.033-6.951v-.051l4.7-8.119c.2723619-.4841668.1085581-1.0972101-.369-1.381l-2.141-1.23c-.2992893-.17323695-.6675478-.17665379-.97-.009l-7.909 4.19-4.651-2.681-.75-.43-5.069-2.93-3.841-2.219-6.031-3.48c-2.043613-1.22977224-4.6861114-.71595311-6.12 1.19-.7453391 1.04080903-1.0162882 2.34805887-.7460284 3.59936755.2702598 1.25130867 1.0565738 2.33020899 2.1650284 2.97063245z" fill="#bdc3c7"/><path id="Shape" d="m37.645 17.933 1.91 1.1.63-6.51c.046307-.410763-.1695744-.8065456-.54-.99-.1126277-.0574773-.2344816-.0947105-.36-.11-.5494401-.0521958-1.0372823.3506097-1.09.9z" fill="#95a5a5"/><path id="Shape" d="m31.185 8.233c-.0417227-.26291426-.1865524-.49834181-.4024081-.65413333s-.4849197-.21908727-.7475919-.17586667c-.5442308.0924485-.9136932.60435418-.83 1.15l.81 4.97 2.24 1.29z" fill="#95a5a5"/><path id="Shape" d="m44.545 16.353 1.74 6.17c.6871015.128273 1.3916969.1316604 2.08.01l-1.9-6.72c-.074479-.3675347-.3483281-.6625075-.7093265-.7640411s-.7484605.0074401-1.0036082.2822648c-.2551476.2748247-.3350891.669301-.2070653 1.0217763z" fill="#95a5a5"/><path id="Shape" d="m46 39.95v16.05c-.0032948 1.1032019-.8967981 1.9967052-2 2h-29c-1.1032019-.0032948-1.9967052-.8967981-2-2v-16.05c0-1.1045695.8954305-2 2-2h29c1.1045695 0 2 .8954305 2 2z" fill="#f29c1f"/><path id="Shape" d="m20 47.95v10.05h-2v-10.05c0-.5522847.4477153-1 1-1s1 .4477153 1 1z" fill="#e57e25"/><path id="Shape" d="m39 55c-.5522847 0-1-.4477153-1-1v-3c0-.5522847.4477153-1 1-1s1 .4477153 1 1v3c0 .5522847-.4477153 1-1 1z" fill="#e57e25"/><path id="Shape" d="m40 37.95v3.47c0 .5522847-.4477153 1-1 1s-1-.4477153-1-1v-3.47z" fill="#e57e25"/><path id="Shape" d="m41 51h-4c-.5522847 0-1-.4477153-1-1v-5.586c.0000566-.2651948.1054506-.5195073.293-.707l2-2c.3904999-.3903819 1.0235001-.3903819 1.414 0l2 2c.1875494.1874927.2929434.4418052.293.707v5.586c0 .5522847-.4477153 1-1 1z" fill="#f9eab0"/><path id="Shape" d="m19 44.945c-.5522847 0-1-.4477153-1-1v-2c0-.5522847.4477153-1 1-1s1 .4477153 1 1v2c0 .5522847-.4477153 1-1 1z" fill="#e57e25"/></g></g></svg>