<svg width="44" height="44" viewBox="0 0 44 44" fill="none" xmlns="http://www.w3.org/2000/svg">
<g clip-path="url(#clip0_32_403)">
<path d="M22.001 17.3653C26.7887 17.3653 30.6837 13.4704 30.6837 8.68267C30.6837 3.89496 26.7887 0 22.001 0C17.2133 0 13.3184 3.89496 13.3184 8.68267C13.3184 13.4704 17.2133 17.3653 22.001 17.3653ZM33.652 21.573C33.6483 21.5719 33.6412 21.5692 33.6375 21.5683C32.5069 21.2921 29.045 20.8079 29.045 20.8079C28.8564 20.7499 28.6528 20.7666 28.4762 20.8545C28.2996 20.9424 28.1635 21.0948 28.096 21.2801L22.885 35.5778C22.5844 36.4025 21.4179 36.4025 21.1173 35.5778L15.9064 21.2801C15.8524 21.1318 15.7542 21.0036 15.625 20.913C15.4958 20.8224 15.3418 20.7737 15.184 20.7735C15.1093 20.7735 11.5498 21.2726 10.3647 21.5673C7.1265 22.3724 5.08398 25.5567 5.08398 28.8753V40.7719C5.08398 42.5547 6.52932 44 8.31213 44H35.6872C37.4701 44 38.9154 42.5547 38.9154 40.7719V28.8357C38.9152 25.5316 36.7927 22.5993 33.652 21.573Z" fill="#E73D47"/>
<path d="M23.9666 20.5352C23.7586 20.3085 23.4546 20.1946 23.147 20.1946H20.853C20.5454 20.1946 20.2413 20.3087 20.0334 20.5352C19.8794 20.7019 19.7828 20.9134 19.7576 21.139C19.7324 21.3645 19.7799 21.5922 19.8933 21.7888L21.1196 23.6375L20.5456 28.4805L21.6761 31.4879C21.7863 31.7904 22.214 31.7904 22.3242 31.4879L23.4548 28.4805L22.8807 23.6375L24.107 21.7888C24.2203 21.5922 24.2678 21.3645 24.2425 21.1389C24.2172 20.9134 24.1206 20.7019 23.9666 20.5352Z" fill="#E73D47"/>
</g>
<defs>
<clipPath id="clip0_32_403">
<rect width="44" height="44" fill="white"/>
</clipPath>
</defs>
</svg>
