<svg width="44" height="44" viewBox="0 0 44 44" fill="none" xmlns="http://www.w3.org/2000/svg">
<path fill-rule="evenodd" clip-rule="evenodd" d="M8.96522 18.811H15.5345V32.8025C15.4626 32.7993 15.3911 32.7952 15.3191 32.7911C11.3169 28.1289 9.17376 23.4745 8.96522 18.811ZM23.4783 18.811C23.2698 23.4745 21.1266 28.128 17.1245 32.7911C17.053 32.7952 16.981 32.7993 16.9095 32.8025V18.811H23.4783ZM7.5893 18.811C7.77814 23.3806 9.68984 27.9589 13.3221 32.5317C6.81609 31.2272 1.85739 25.6214 1.54297 18.811H7.5893ZM25.0481 18.811V24.5255C25.0481 24.8902 25.193 25.2399 25.4509 25.4978C25.7087 25.7556 26.0585 25.9005 26.4231 25.9005H28.6891C26.5822 29.2692 23.1483 31.7241 19.1214 32.5317C22.7533 27.9593 24.6654 23.381 24.8543 18.811H25.0481ZM13.285 3.72312C9.61972 8.29225 7.74055 12.8687 7.58426 17.436H1.54297C1.85647 10.6389 6.7973 5.04083 13.285 3.72312ZM16.9095 3.44491C16.9879 3.44858 17.0667 3.45271 17.146 3.45775C21.1986 8.11946 23.3111 12.7725 23.4834 17.436H16.9095V3.44491ZM25.0481 17.436H24.8593C24.703 12.8687 22.8238 8.29271 19.1586 3.72312C21.7678 4.25493 24.1829 5.48752 26.1445 7.2885C26.0667 7.80168 26.0278 8.32 26.0281 8.83904C26.0281 9.86846 26.1793 10.8566 26.458 11.7792H26.4231C26.0585 11.7792 25.7087 11.9241 25.4509 12.182C25.193 12.4398 25.0481 12.7896 25.0481 13.1542V17.436ZM15.5345 3.44491V17.436H8.96018C9.13251 12.7729 11.245 8.11946 15.2976 3.45775C15.3764 3.45271 15.4552 3.44858 15.5345 3.44491ZM30.7273 25.9005H38.1519V43.0834H30.7273V25.9005ZM27.9045 11.7792C27.5706 10.835 27.401 9.84056 27.4031 8.83904C27.4031 4.46654 30.5559 0.916748 34.4398 0.916748C38.3233 0.916748 41.4766 4.46654 41.4766 8.83904C41.4766 9.87762 41.2983 10.8699 40.9752 11.7792H27.9045Z" fill="#E73D47"/>
<path fill-rule="evenodd" clip-rule="evenodd" d="M26.4229 13.1543H42.4567V24.5255H26.4229V13.1543Z" fill="#E73D47"/>
</svg>
