<svg width="44" height="44" viewBox="0 0 44 44" fill="none" xmlns="http://www.w3.org/2000/svg">
<g clip-path="url(#clip0_32_375)">
<path d="M15.4172 37.1282C16.2107 37.8249 17.0299 38.5437 17.8724 39.2889L17.8899 39.3043L20.6929 41.7255C21.0685 42.0499 21.5346 42.2121 22.0007 42.2121C22.4668 42.2121 22.933 42.0498 23.3086 41.7255L26.111 39.3043L26.1284 39.2891C31.6772 34.3819 35.8374 30.625 38.8473 26.961C42.3627 22.6817 44.0001 18.8125 44.0001 14.7844C44.0001 7.49667 38.2916 1.78809 31.0041 1.78809C27.7287 1.78809 24.4924 3.02142 22.0007 5.15936C19.5083 3.02129 16.2719 1.78809 12.9964 1.78809C5.70871 1.78795 0 7.49667 0 14.7843C0 23.5935 6.13334 28.9779 15.4172 37.1282ZM13.9983 17.9994H19.3326V12.6647H24.6672V17.9994H30.0017V23.3339H24.6672V28.6682H19.3326V23.3339H13.9983V17.9994Z" fill="#E73D47"/>
</g>
<defs>
<clipPath id="clip0_32_375">
<rect width="44" height="44" fill="white"/>
</clipPath>
</defs>
</svg>
