<svg width="44" height="44" viewBox="0 0 44 44" fill="none" xmlns="http://www.w3.org/2000/svg">
<g clip-path="url(#clip0_32_267)">
<path d="M33.9314 8.68258C33.88 8.49126 33.8261 8.30061 33.7699 8.11067L35.1488 4.67133C35.213 4.50701 35.2164 4.32521 35.1586 4.15856C35.1008 3.99191 34.9855 3.85131 34.8334 3.762C29.3627 0.638 25.7473 0 22.0001 0C18.2528 0 14.6374 0.638 9.16673 3.762C9.01462 3.85131 8.89932 3.99191 8.84151 4.15856C8.7837 4.32521 8.78717 4.50701 8.8513 4.67133L10.2302 8.11067C10.174 8.30061 10.1201 8.49126 10.0687 8.68258C7.14291 18.9639 6.61473 24.1559 8.35282 25.5127C11.0702 27.5172 14.252 28.799 17.6001 29.238V31.5333C17.6001 31.7278 17.6773 31.9144 17.8149 32.0519C17.9524 32.1894 18.1389 32.2667 18.3334 32.2667C18.5279 32.2667 18.7144 32.1894 18.8519 32.0519C18.9895 31.9144 19.0667 31.7278 19.0667 31.5333V29.2893C19.9802 29.7487 20.979 30.0134 22.0001 30.0667C23.0211 30.0134 24.02 29.7487 24.9334 29.2893V31.5333C24.9334 31.7278 25.0107 31.9144 25.1482 32.0519C25.2857 32.1894 25.4722 32.2667 25.6667 32.2667C25.8612 32.2667 26.0477 32.1894 26.1853 32.0519C26.3228 31.9144 26.4001 31.7278 26.4001 31.5333V29.238C29.75 28.7974 32.9338 27.5158 35.6547 25.5127C37.3854 24.156 36.8572 18.9639 33.9314 8.68258ZM30.0667 20.5333C30.0667 24.8674 24.6547 28.6 22.0001 28.6C19.3454 28.6 13.9334 24.8674 13.9334 20.5333V16.6174C20.3136 15.3853 24.1561 13.4568 25.5127 12.6794C26.3636 13.6326 28.2774 15.6346 30.0667 16.4781V20.5333ZM31.1667 10.6698C28.2405 9.152 23.6572 8.8 22.0001 8.8C20.3429 8.8 15.7596 9.152 12.8334 10.6698L10.4501 4.72267C15.3267 2.03133 18.6121 1.46667 22.0001 1.46667C25.3881 1.46667 28.6734 2.03133 33.5501 4.72267L31.1667 10.6698Z" fill="#E73D47"/>
<path d="M23.7409 23.6289C23.2355 23.998 22.6258 24.1969 22 24.1969C21.3742 24.1969 20.7645 23.998 20.2591 23.6289C20.1595 23.5428 20.0385 23.485 19.9089 23.4618C19.7793 23.4385 19.6458 23.4506 19.5225 23.4968C19.3992 23.5429 19.2906 23.6215 19.208 23.7241C19.1255 23.8267 19.0721 23.9497 19.0534 24.08C19.0349 24.2104 19.0518 24.3434 19.1024 24.465C19.153 24.5866 19.2354 24.6924 19.3409 24.7712C20.9107 25.9711 23.0892 25.9711 24.6591 24.7712C24.7646 24.6924 24.847 24.5866 24.8976 24.465C24.9482 24.3434 24.9651 24.2104 24.9466 24.08C24.9279 23.9497 24.8745 23.8267 24.792 23.7241C24.7094 23.6215 24.6008 23.5429 24.4775 23.4968C24.3542 23.4506 24.2207 23.4385 24.0911 23.4618C23.9615 23.485 23.8405 23.5428 23.7409 23.6289ZM27.8667 18.3334C27.8667 19.1433 27.21 19.8 26.4 19.8C25.59 19.8 24.9333 19.1433 24.9333 18.3334C24.9333 17.5234 25.59 16.8667 26.4 16.8667C27.21 16.8667 27.8667 17.5234 27.8667 18.3334ZM19.0667 18.3334C19.0667 19.1433 18.41 19.8 17.6 19.8C16.79 19.8 16.1333 19.1433 16.1333 18.3334C16.1333 17.5234 16.79 16.8667 17.6 16.8667C18.41 16.8667 19.0667 17.5234 19.0667 18.3334ZM20.5333 5.86668H21.2667V6.60002C21.2667 6.79451 21.3439 6.98103 21.4815 7.11856C21.619 7.25609 21.8055 7.33335 22 7.33335C22.1945 7.33335 22.381 7.25609 22.5185 7.11856C22.6561 6.98103 22.7333 6.79451 22.7333 6.60002V5.86668H23.4667C23.6612 5.86668 23.8477 5.78942 23.9852 5.65189C24.1227 5.51437 24.2 5.32784 24.2 5.13335C24.2 4.93886 24.1227 4.75233 23.9852 4.6148C23.8477 4.47728 23.6612 4.40002 23.4667 4.40002H22.7333V3.66668C22.7333 3.47219 22.6561 3.28566 22.5185 3.14814C22.381 3.01061 22.1945 2.93335 22 2.93335C21.8055 2.93335 21.619 3.01061 21.4815 3.14814C21.3439 3.28566 21.2667 3.47219 21.2667 3.66668V4.40002H20.5333C20.3388 4.40002 20.1523 4.47728 20.0148 4.6148C19.8773 4.75233 19.8 4.93886 19.8 5.13335C19.8 5.32784 19.8773 5.51437 20.0148 5.65189C20.1523 5.78942 20.3388 5.86668 20.5333 5.86668ZM21.2667 42.35L14.454 40.304C14.3036 40.2574 14.1719 40.164 14.0783 40.0374C13.9846 39.9107 13.9338 39.7575 13.9333 39.6V37.1214L11.4032 35.8528C11.3171 35.8097 11.2405 35.7501 11.1777 35.6772C11.1149 35.6044 11.0672 35.5198 11.0372 35.4285C11.0072 35.3371 10.9956 35.2407 11.003 35.1448C11.0105 35.0489 11.0368 34.9555 11.0806 34.8698L11.8726 33.2861L12.6793 31.683C4.49378 32.8188 0 36.8961 0 43.2667C0 43.4612 0.0772617 43.6477 0.214788 43.7852C0.352315 43.9228 0.538841 44 0.733333 44H21.2667V42.35ZM31.3303 31.6917L32.1273 33.2933L32.9194 34.8699C32.9632 34.9556 32.9895 35.049 32.9969 35.1449C33.0044 35.2407 32.9928 35.3371 32.9628 35.4285C32.9329 35.5199 32.8851 35.6044 32.8223 35.6773C32.7595 35.7501 32.6829 35.8098 32.5969 35.8529L30.0667 37.1214V39.6C30.0662 39.7575 30.0154 39.9107 29.9217 40.0374C29.8281 40.164 29.6964 40.2574 29.546 40.304L22.7333 42.35V44H43.2667C43.4612 44 43.6477 43.9228 43.7852 43.7852C43.9227 43.6477 44 43.4612 44 43.2667C44 36.9145 39.5327 32.8417 31.3303 31.6917Z" fill="#E73D47"/>
<path d="M21.2666 40.8101V37.8319L15.1872 31.7455C15.0474 31.6105 14.8609 31.5345 14.6666 31.5334H14.3879L13.6325 33.0294L12.7158 34.8699L14.9968 36.0139C15.1183 36.0742 15.2205 36.1673 15.2917 36.2827C15.363 36.3981 15.4005 36.5312 15.3999 36.6668V39.0573L21.2666 40.8101ZM30.3673 33.0441L29.6193 31.5334H29.3332C29.1388 31.5349 28.9524 31.611 28.8126 31.7461L22.7332 37.8319V40.8101L28.5999 39.0573V36.6668C28.5994 36.5312 28.6369 36.3981 28.7081 36.2827C28.7794 36.1674 28.8816 36.0743 29.0031 36.014L31.284 34.87L30.3673 33.0441Z" fill="#E73D47"/>
</g>
<defs>
<clipPath id="clip0_32_267">
<rect width="44" height="44" fill="white"/>
</clipPath>
</defs>
</svg>
