<svg width="44" height="44" viewBox="0 0 44 44" fill="none" xmlns="http://www.w3.org/2000/svg">
<g clip-path="url(#clip0_32_285)">
<path d="M40.5792 3.39185C36.0543 -1.13062 28.694 -1.13062 24.169 3.39185L14.6019 12.9589L25.4639 23.8209C27.6995 21.9592 30.5338 20.7936 33.6634 20.7936C35.4585 20.7936 37.1666 21.1665 38.7209 21.8323L40.5792 19.8021C45.1029 15.2784 45.1029 7.91688 40.5792 3.39185ZM23.6559 25.659L12.7788 14.782L3.41521 24.1548C-1.10846 28.6784 -1.10846 36.04 3.41521 40.565C7.94008 45.0872 15.3863 45.1735 19.9113 40.6508L21.8095 38.7435C21.1437 37.1893 20.7708 35.4811 20.7708 33.686C20.7709 30.6368 21.8795 27.8688 23.6559 25.659ZM23.3494 33.6861C23.3494 38.9407 27.2933 43.229 32.3741 43.87V23.5021C27.2933 24.1431 23.3494 28.4313 23.3494 33.6861ZM34.9526 23.5021V43.87C40.0333 43.229 43.9773 38.9407 43.9773 33.686C43.9773 28.4314 40.0334 24.1431 34.9526 23.5021Z" fill="#E73D47"/>
</g>
<defs>
<clipPath id="clip0_32_285">
<rect width="44" height="44" fill="white"/>
</clipPath>
</defs>
</svg>
