<svg width="24" height="24" viewBox="0 0 24 24" fill="none" xmlns="http://www.w3.org/2000/svg">
<path d="M16.5 12C16.5001 11.9015 16.4808 11.804 16.4431 11.713C16.4054 11.622 16.35 11.5394 16.2803 11.4698L8.7803 3.9698C8.48723 3.67673 8.01267 3.67673 7.7198 3.9698C7.42692 4.26286 7.42673 4.73742 7.7198 5.0303L14.6895 12L7.7198 18.9698C7.42674 19.2629 7.42674 19.7374 7.7198 20.0303C8.01286 20.3232 8.48742 20.3234 8.7803 20.0303L16.2803 12.5303C16.35 12.4607 16.4054 12.3781 16.4431 12.2871C16.4808 12.1961 16.5001 12.0985 16.5 12Z" fill="#274896"/>
</svg>
