<svg id="Layer_1" enable-background="new 0 0 512 512" height="512" viewBox="0 0 512 512" width="512" xmlns="http://www.w3.org/2000/svg"><g><path d="m492.796 330.707c5.457-20.316 8.383-41.667 8.383-63.705 0-135.309-109.689-244.998-244.998-244.998s-244.998 109.689-244.998 244.998 109.689 244.998 244.998 244.998c3.918 0 7.811-.102 11.683-.284z" fill="#86d8fc"/><path d="m91.742 80.559h161.488v161.488h-161.488z" fill="#9c8ee8" transform="matrix(.707 -.707 .707 .707 -63.539 169.211)"/><path d="m289.183 1.967-35.953 78.593 78.592-35.952c-1.306-3.179-3.234-6.102-5.712-8.579l-3.686-3.686-24.663-24.665c-2.477-2.477-5.4-4.405-8.578-5.711z" fill="#b5b0f7"/><path d="m289.183 1.967c-3.131-1.285-6.51-1.967-9.961-1.967h-106.736l80.744 80.56z" fill="#9c8ee8"/><path d="m91.742 80.56 80.744-80.56h-53.256-18.909-34.571c-3.45 0-6.829.682-9.96 1.967z" fill="#7255ce"/><path d="m253.23 80.56 80.559 80.744v-106.737c0-3.45-.682-6.83-1.967-9.96z" fill="#9c8ee8"/><path d="m331.822 278c1.286-3.131 1.967-6.51 1.967-9.96v-106.737l-80.559 80.744z" fill="#9c8ee8"/><path d="m253.23 242.048 35.952 78.592c3.179-1.305 6.101-3.234 8.578-5.711l24.664-24.664 3.686-3.686c2.477-2.477 4.406-5.4 5.712-8.579z" fill="#b5b0f7"/><path d="m91.742 80.56-35.952-78.593c-3.179 1.306-6.102 3.234-8.579 5.712l-28.349 28.349c-2.477 2.477-4.406 5.4-5.712 8.579z" fill="#836cd9"/><path d="m13.15 44.607c-1.286 3.131-1.967 6.51-1.967 9.96v106.736l80.559-80.743z" fill="#7255ce"/><path d="m91.742 242.048-80.559-80.744v106.736c0 3.45.682 6.829 1.967 9.96z" fill="#7255ce"/><path d="m55.79 320.639 35.952-78.592-78.592 35.953c1.306 3.179 3.234 6.102 5.712 8.579l5.85 5.85 22.5 22.5c2.477 2.477 5.399 4.405 8.578 5.71z" fill="#836cd9"/><path d="m55.79 320.639c3.131 1.286 6.51 1.967 9.96 1.967h106.737l-80.744-80.559z" fill="#7255ce"/><path d="m253.23 242.048-80.744 80.559h106.736c3.45 0 6.829-.682 9.96-1.967z" fill="#9c8ee8"/><path d="m91.742 80.56h161.488v161.488h-161.488z" fill="#9c8ee8"/><g fill="#b5b0f7"><path d="m139.041 80.56-47.299 47.298v66.891l47.299 47.299h66.89l47.299-47.299v-66.891l-47.298-47.298z"/><path d="m172.486 47.114v-47.114l80.744 80.56h-47.298z"/><path d="m253.23 80.56v47.298l33.446 33.445h47.114z"/><path d="m11.183 161.303h47.114l33.445 33.446v47.299z"/><path d="m91.742 242.048h47.299l33.445 33.445v47.114z"/></g><path d="m172.486 0v47.114l-33.445 33.446h-47.299z" fill="#836cd9"/><path d="m91.742 80.56v47.298l-33.445 33.445h-47.114z" fill="#836cd9"/><path d="m333.79 161.303h-47.114l-33.446 33.446v47.299z" fill="#836cd9"/><path d="m172.486 275.493v47.114l80.744-80.559h-47.299z" fill="#836cd9"/><path d="m457.696 406.35-28.528-28.528-114.19 114.189 10.14 10.14c54.445-15.936 101.027-50.261 132.578-95.801z" fill="#9c8ee8"/><path d="m475.282 376.716c7.308-14.567 13.204-29.962 17.514-46.009h-63.628z" fill="#9c8ee8"/><path d="m348.423 411.267 80.744-80.559h-53.256-18.909-34.572c-3.45 0-6.829.682-9.96 1.967z" fill="#7255ce"/><path d="m348.423 411.267-35.952-78.592c-3.179 1.306-6.102 3.234-8.579 5.712l-28.349 28.349c-2.477 2.477-4.406 5.4-5.712 8.579z" fill="#836cd9"/><path d="m269.832 375.314c-1.286 3.131-1.967 6.51-1.967 9.96v106.737l80.559-80.744z" fill="#7255ce"/><path d="m267.864 492.011v19.705c6.107-.287 12.155-.801 18.137-1.527z" fill="#7255ce"/><path d="m348.423 494.022c42.525-17.296 79.089-46.187 105.776-82.755h-105.776z" fill="#9c8ee8"/><path d="m454.2 411.267h-58.477l-47.299 47.299v35.457c42.524-17.297 79.088-46.188 105.776-82.756z" fill="#b5b0f7"/><path d="m475.282 376.716-46.114-46.009v47.114l28.528 28.528c6.527-9.419 12.41-19.317 17.586-29.633z" fill="#b5b0f7"/><path d="m314.978 492.011h-47.114l18.137 18.179c13.404-1.627 26.471-4.338 39.117-8.039z" fill="#b5b0f7"/><path d="m429.168 330.707v47.115l-33.446 33.445h-47.299z" fill="#836cd9"/><path d="m348.423 411.267v47.299l-33.445 33.445h-47.114z" fill="#836cd9"/><path d="" fill="#3d3b3b"/><path d="m419.691 84.566c-23.73 9.958-48.871 27.233-48.871 55.748v107.819c0 23.574 19.111 42.685 42.685 42.685h53.564s18.743.342 33.724-10.145c.249-4.527.386-9.083.386-13.671 0-72.47-31.474-137.58-81.488-182.436z" fill="#b0ebff"/><path d="m230.835 392.958c0-19.024-15.422-34.446-34.446-34.446h-104.647c-20.058 0-37.38 14.449-49.338 28.224 35.849 63.868 99.479 110.032 174.523 122.119 15.161-15.103 13.908-40.407 13.908-40.407z" fill="#b0ebff"/></g></svg>