<svg height="512pt" viewBox="-4 0 512 512.00105" width="512pt" xmlns="http://www.w3.org/2000/svg"><path d="m69.058594 343.367188c-38.140625 0-69.058594-30.917969-69.058594-69.058594s30.917969-69.0625 69.058594-69.0625h366.367187c38.140625 0 69.0625 30.921875 69.0625 69.0625s-30.921875 69.058594-69.0625 69.058594" fill="#ffc0ad"/><path d="m435.425781 293.742188c-4.335937 0-7.847656-3.511719-7.847656-7.847657 0-23.472656 11.613281-31.789062 18.535156-34.65625 10.910157-4.519531 24.816407-1.402343 33.800781 7.585938 3.066407 3.066406 3.066407 8.03125.003907 11.097656-3.066407 3.0625-8.035157 3.0625-11.097657 0-4.550781-4.550781-11.574218-6.3125-16.703124-4.1875-5.703126 2.363281-8.847657 9.523437-8.847657 20.160156 0 4.335938-3.511719 7.847657-7.84375 7.847657zm0 0" fill="#ef9f87"/><path d="m69.058594 293.742188c-4.332032 0-7.84375-3.511719-7.84375-7.847657 0-10.636719-3.140625-17.796875-8.847656-20.160156-5.128907-2.125-12.152344-.363281-16.703126 4.1875-3.0625 3.0625-8.03125 3.0625-11.09375 0s-3.0625-8.03125 0-11.097656c8.988282-8.988281 22.886719-12.105469 33.804688-7.585938 6.917969 2.867188 18.53125 11.183594 18.53125 34.65625 0 4.335938-3.511719 7.847657-7.847656 7.847657zm0 0" fill="#ef9f87"/><path d="m435.425781 127.078125v199.980469c0 101.421875-81.671875 184.890625-183.09375 184.941406-101.210937.050781-183.269531-81.988281-183.269531-183.183594v-201.738281c0-70.183594 56.894531-127.078125 127.078125-127.078125h112.207031c70.183594 0 127.078125 56.894531 127.078125 127.078125zm0 0" fill="#ffe8d0"/><path d="m250.839844 511.988281c-100.53125-.742187-181.78125-82.472656-181.78125-183.167969v-201.742187c0-70.179687 56.886718-127.078125 127.070312-127.078125h23.109375c-41.28125 0-74.753906 56.898438-74.753906 127.078125v201.738281c0 100.375 47.480469 181.898438 106.355469 183.171875zm0 0" fill="#ffc0ad"/><path d="m435.425781 127.078125v47.421875c-73.265625 0-129.765625-13.058594-171.714843-29.3125-69.125-26.769531-98.71875-62.222656-98.71875-62.222656-2.28125 8.222656-6.988282 16.96875-13.796876 25.242187-16.582031 20.167969-45.578124 37.523438-82.128906 37.523438v-18.652344c0-48.160156 26.789063-90.066406 66.28125-111.617187 18.054688-9.855469 38.765625-15.460938 60.785156-15.460938h112.214844c70.183594 0 127.078125 56.898438 127.078125 127.078125zm0 0" fill="#555a80"/><path d="m263.710938 145.1875c-69.125-26.769531-98.71875-62.222656-98.71875-62.222656-2.28125 8.222656-6.988282 16.96875-13.796876 25.242187l-15.847656-92.746093c18.054688-9.855469 38.765625-15.460938 60.785156-15.460938h46.855469c-52.722656 20.816406-23.023437 124.640625 20.722657 145.1875zm0 0" fill="#2a2d49"/><path d="m351.714844 424.550781c0-54.9375-44.535156-99.46875-99.472656-99.46875-54.933594 0-99.46875 44.53125-99.46875 99.46875zm0 0" fill="#555a80"/><path d="m183.117188 353.035156c17.898437-17.3125 42.273437-27.953125 69.128906-27.953125 26.863281 0 51.226562 10.640625 69.125 27.953125-45.023438 13.933594-93.226563 13.933594-138.253906 0zm0 0" fill="#fff"/><path d="m329.019531 424.546875h-153.554687c18.242187-22.125 45.859375-36.226563 76.78125-36.226563 6.445312 0 12.742187.605469 18.832031 1.789063 23.179687 4.433594 43.503906 16.925781 57.941406 34.4375zm0 0" fill="#d83a6f"/><path d="m329.019531 424.546875h-115.898437c14.449218-17.523437 34.761718-30.003906 57.957031-34.4375 23.179687 4.433594 43.503906 16.925781 57.941406 34.4375zm0 0" fill="#f96eb3"/><path d="m165 82.964844v.019531c-.011719-.011719-.011719-.019531-.011719-.019531-7.84375 28.242187-44.375 62.765625-95.925781 62.765625v-18.652344c0-69.773437 56.21875-126.410156 125.835938-127.0585938-38.445313 1.0976568-48.527344 53.4531248-29.898438 82.9453128zm0 0" fill="#2a2d49"/><path d="m323.078125 314.40625c6.289063-6.746094 14.320313-12.039062 23.714844-15.078125 9.394531-3.042969 19.007812-3.460937 28.054687-1.679687 13.433594-14.410157 18.867188-35.476563 12.367188-55.546876-9.535156-29.46875-41.15625-45.621093-70.625-36.085937-29.46875 9.539063-45.621094 41.160156-36.085938 70.628906 6.5 20.070313 23.246094 33.957031 42.574219 37.761719zm0 0" fill="#fff"/><path d="m181.410156 314.40625c-6.289062-6.746094-14.320312-12.039062-23.714844-15.078125-9.398437-3.042969-19.007812-3.460937-28.054687-1.679687-13.433594-14.410157-18.867187-35.476563-12.367187-55.546876 9.539062-29.46875 41.15625-45.621093 70.625-36.085937 29.46875 9.539063 45.621093 41.160156 36.082031 70.628906-6.496094 20.070313-23.242188 33.957031-42.570313 37.761719zm0 0" fill="#fff"/><g fill="#474d6b"><path d="m351.738281 259.542969c0 10.472656-8.488281 18.960937-18.960937 18.960937s-18.960938-8.488281-18.960938-18.960937c0-10.472657 8.488282-18.960938 18.960938-18.960938s18.960937 8.488281 18.960937 18.960938zm0 0"/><path d="m190.671875 259.542969c0 10.472656-8.488281 18.960937-18.960937 18.960937-10.46875 0-18.960938-8.488281-18.960938-18.960937 0-10.472657 8.492188-18.960938 18.960938-18.960938 10.472656 0 18.960937 8.488281 18.960937 18.960938zm0 0"/></g></svg>