<svg width="44" height="44" viewBox="0 0 44 44" fill="none" xmlns="http://www.w3.org/2000/svg">
<g clip-path="url(#clip0_32_383)">
<path d="M24.6503 7.94516C26.114 7.94516 27.3006 6.75858 27.3006 5.29485C27.3006 3.83112 26.114 2.64453 24.6503 2.64453C23.1866 2.64453 22 3.83112 22 5.29485C22 6.75858 23.1866 7.94516 24.6503 7.94516Z" fill="#E73D47"/>
<path d="M29.9516 4.24116C31.1228 4.24116 32.0722 3.29174 32.0722 2.12058C32.0722 0.949416 31.1228 0 29.9516 0C28.7805 0 27.8311 0.949416 27.8311 2.12058C27.8311 3.29174 28.7805 4.24116 29.9516 4.24116Z" fill="#E73D47"/>
<path d="M38.8577 36.1795L27.8309 18.5482V13.2533H31.0117V9.54272H12.9876V13.2533H16.1685V18.5482L5.14163 36.1795C4.70546 36.9872 4.48647 37.8943 4.5061 38.812C4.52572 39.7297 4.7833 40.6266 5.25361 41.4149C5.72392 42.2032 6.39085 42.8559 7.18912 43.309C7.98739 43.7622 8.88964 44.0003 9.80756 44.0001H34.1926C35.1105 44.0002 36.0126 43.7619 36.8108 43.3087C37.6089 42.8555 38.2757 42.2028 38.7459 41.4146C39.2162 40.6263 39.4737 39.7295 39.4933 38.8118C39.5129 37.8942 39.2939 36.9872 38.8577 36.1795ZM13.583 29.68L19.8791 19.6126V13.2525H24.1203V19.6126L30.4164 29.68H13.583Z" fill="#E73D47"/>
</g>
<defs>
<clipPath id="clip0_32_383">
<rect width="44" height="44" fill="white"/>
</clipPath>
</defs>
</svg>
