<?xml version="1.0" encoding="UTF-8"?>
<svg version="1.1" xmlns="http://www.w3.org/2000/svg" width="598" height="417">
<path d="M0 0 C0.76855316 -0.00979385 1.53710632 -0.01958771 2.32894897 -0.02967834 C19.48793723 -0.20332782 35.86061068 0.12323933 52.6171875 4.23828125 C53.97505371 4.55176514 53.97505371 4.55176514 55.36035156 4.87158203 C106.36684658 16.7635958 150.25908298 49.71485363 177.953125 93.86328125 C193.03412899 118.39301809 201.71130266 144.80972352 205.6171875 173.23828125 C205.87737671 174.86709229 205.87737671 174.86709229 206.14282227 176.52880859 C206.90329305 182.47558834 206.80313804 188.42870013 206.80249023 194.41381836 C206.80465149 196.63871138 206.82277301 198.86308669 206.84179688 201.08789062 C206.89637353 214.62496674 205.50349002 227.77525256 202.4296875 240.98828125 C202.21683105 241.90947754 202.00397461 242.83067383 201.78466797 243.77978516 C196.35464782 266.3604873 187.38079669 289.13903055 173.4375 307.80078125 C170.66100411 311.51866416 168.16055568 315.37940897 165.6796875 319.30078125 C163.55900648 322.32114513 161.28762845 324.69810571 158.6171875 327.23828125 C154.88830431 330.86903593 151.49757532 334.67001115 148.16796875 338.6640625 C147.65621094 339.18355469 147.14445312 339.70304687 146.6171875 340.23828125 C145.9571875 340.23828125 145.2971875 340.23828125 144.6171875 340.23828125 C144.6171875 340.89828125 144.6171875 341.55828125 144.6171875 342.23828125 C143.9571875 342.23828125 143.2971875 342.23828125 142.6171875 342.23828125 C142.6171875 342.89828125 142.6171875 343.55828125 142.6171875 344.23828125 C140.67578125 346.0078125 140.67578125 346.0078125 138.0546875 348.05078125 C137.1471875 348.76105469 136.2396875 349.47132813 135.3046875 350.203125 C133.0818985 351.88637074 130.84063363 353.51788135 128.5546875 355.11328125 C125.58546639 356.91625179 125.58546639 356.91625179 124.6171875 359.23828125 C122.63829789 359.96522029 120.63764192 360.63644376 118.6171875 361.23828125 C118.6171875 361.89828125 118.6171875 362.55828125 118.6171875 363.23828125 C117.33521484 363.86283203 117.33521484 363.86283203 116.02734375 364.5 C112.62282491 366.23540766 109.34907601 368.11537572 106.0546875 370.05078125 C88.451426 380.23828125 88.451426 380.23828125 82.6171875 380.23828125 C82.2871875 380.89828125 81.9571875 381.55828125 81.6171875 382.23828125 C79.75390625 382.94921875 79.75390625 382.94921875 77.3046875 383.61328125 C72.42009248 384.98598484 67.65001364 386.5817845 62.8671875 388.2734375 C29.49139776 398.18187508 -10.13478991 398.13556633 -43.3828125 388.23828125 C-44.61 387.88894531 -45.8371875 387.53960937 -47.1015625 387.1796875 C-55.97287465 384.59276584 -64.2092642 381.29611311 -72.4765625 377.1796875 C-74.42455599 376.21766612 -76.38587102 375.28853837 -78.3515625 374.36328125 C-86.81536588 370.32523061 -94.57190342 365.68801272 -102.2734375 360.33984375 C-104.63346564 358.74474936 -106.8513668 357.49249753 -109.3828125 356.23828125 C-111.04947917 354.57161458 -112.71614583 352.90494792 -114.3828125 351.23828125 C-115.70185664 350.21950732 -117.0362337 349.22037255 -118.3828125 348.23828125 C-121.69357534 345.80790853 -124.54730956 343.22302118 -127.3828125 340.23828125 C-127.92292969 339.71878906 -128.46304688 339.19929688 -129.01953125 338.6640625 C-130.51197882 337.22727731 -131.95159404 335.73606801 -133.3828125 334.23828125 C-133.3828125 333.57828125 -133.3828125 332.91828125 -133.3828125 332.23828125 C-134.3728125 331.90828125 -135.3628125 331.57828125 -136.3828125 331.23828125 C-138.20410539 329.14923771 -139.89776777 327.06601172 -141.5703125 324.86328125 C-142.05935059 324.22769287 -142.54838867 323.59210449 -143.05224609 322.93725586 C-144.50366733 321.0434673 -145.9439201 319.14159706 -147.3828125 317.23828125 C-148.10339844 316.29855469 -148.82398438 315.35882813 -149.56640625 314.390625 C-165.97217552 292.50526277 -176.92161489 267.65747006 -183.1328125 241.11328125 C-183.33173096 240.26773682 -183.53064941 239.42219238 -183.7355957 238.55102539 C-186.746146 224.95253372 -187.76552267 211.43957628 -187.6953125 197.55078125 C-187.69382202 196.81393097 -187.69233154 196.07708069 -187.6907959 195.31790161 C-187.64655162 183.08650357 -186.83664784 171.24819466 -184.3828125 159.23828125 C-184.23827637 158.50448242 -184.09374023 157.77068359 -183.94482422 157.01464844 C-180.10180037 137.92294858 -173.11615866 120.78315662 -164.41088867 103.40454102 C-163.28321772 101.14126711 -163.28321772 101.14126711 -162.3828125 98.23828125 C-161.7228125 98.23828125 -161.0628125 98.23828125 -160.3828125 98.23828125 C-160.11597656 97.51898438 -159.84914062 96.7996875 -159.57421875 96.05859375 C-154.30797282 83.59226732 -144.37787591 73.31156744 -135.37109375 63.44921875 C-133.7867743 61.68748042 -132.28890252 59.90739338 -130.8203125 58.05078125 C-126.84178754 53.46017552 -122.20959231 49.6763845 -117.4453125 45.92578125 C-115.29300375 44.39954367 -115.29300375 44.39954367 -114.3828125 42.23828125 C-112.73140885 41.21327209 -111.06094499 40.21891834 -109.3828125 39.23828125 C-106.61098152 37.30444568 -103.85107718 35.35778785 -101.11132812 33.37890625 C-98.27088307 31.37232285 -95.86973992 29.73275996 -92.3828125 29.23828125 C-92.3828125 28.57828125 -92.3828125 27.91828125 -92.3828125 27.23828125 C-83.97219062 22.9298428 -75.51867903 18.76635961 -66.8828125 14.92578125 C-66.15465332 14.6009375 -65.42649414 14.27609375 -64.67626953 13.94140625 C-57.37068022 10.72340849 -50.17878673 7.99827591 -42.3828125 6.23828125 C-41.65513672 6.07094482 -40.92746094 5.9036084 -40.17773438 5.73120117 C-26.90093268 2.72559216 -13.64988954 0.14533487 0 0 Z M-109.3828125 84.23828125 C-107.24142415 88.07630362 -105.16999627 91.75091084 -102.421875 95.19140625 C-101.87490967 95.88347168 -101.32794434 96.57553711 -100.7644043 97.28857422 C-100.184729 98.01447754 -99.60505371 98.74038086 -99.0078125 99.48828125 C-93.91357766 105.94909791 -88.93312979 112.47642632 -84.0703125 119.11328125 C-83.18811035 120.31706421 -83.18811035 120.31706421 -82.28808594 121.54516602 C-81.16007813 123.08511004 -80.03230026 124.62522253 -78.90478516 126.16552734 C-75.43805826 130.88681566 -71.90590056 135.55899075 -68.3828125 140.23828125 C-66.38180557 142.90419299 -64.38236295 145.57127699 -62.3828125 148.23828125 C-61.35158834 149.61330063 -60.32033875 150.98830094 -59.2890625 152.36328125 C-51.8828125 162.23828125 -51.8828125 162.23828125 -49.70703125 165.140625 C-48.02375537 167.38404983 -46.33882054 169.62617229 -44.65234375 171.8671875 C-37.31080647 181.62970018 -30.04867257 191.44898245 -22.81811523 201.29394531 C-21.80246969 202.66979173 -20.75827739 204.02477636 -19.69482422 205.36401367 C-18.3828125 207.23828125 -18.3828125 207.23828125 -18.45703125 209.2109375 C-19.6570854 211.83890418 -21.21909441 213.56425453 -23.1953125 215.67578125 C-23.9996875 216.54332031 -24.8040625 217.41085938 -25.6328125 218.3046875 C-26.07238281 218.77277832 -26.51195312 219.24086914 -26.96484375 219.72314453 C-28.48987651 221.35268195 -29.99993532 222.99520497 -31.5078125 224.640625 C-39.81042152 233.68962124 -39.81042152 233.68962124 -42.73828125 236.49609375 C-44.61162317 238.08138472 -44.61162317 238.08138472 -44.3828125 240.23828125 C-45.0428125 240.23828125 -45.7028125 240.23828125 -46.3828125 240.23828125 C-47.78343977 241.58423696 -47.78343977 241.58423696 -49.2578125 243.42578125 C-52.44627121 247.17535589 -55.7237753 250.81813232 -59.0703125 254.42578125 C-59.58529297 254.98177002 -60.10027344 255.53775879 -60.63085938 256.1105957 C-61.69063526 257.25449375 -62.75069593 258.39812802 -63.81103516 259.54150391 C-65.32061824 261.17114081 -66.82704617 262.8036169 -68.33203125 264.4375 C-73.66190169 270.22363088 -79.01162224 275.99047507 -84.3828125 281.73828125 C-99.44215506 295.16357254 -99.44215506 295.16357254 -109.3828125 310.23828125 C-98.31589285 312.06821851 -98.31589285 312.06821851 -88.01074219 308.70019531 C-83.23733629 304.51640854 -78.79069019 299.61197443 -75.3828125 294.23828125 C-75.3828125 293.57828125 -75.3828125 292.91828125 -75.3828125 292.23828125 C-74.7228125 292.23828125 -74.0628125 292.23828125 -73.3828125 292.23828125 C-71.81417168 290.68749055 -71.81417168 290.68749055 -70.1953125 288.67578125 C-67.85001492 285.91289445 -65.47451845 283.27148368 -62.8828125 280.73828125 C-59.90914978 277.81056917 -57.17102523 274.74362702 -54.4453125 271.5859375 C-50.37306331 266.95066901 -46.14548222 262.45438933 -41.95019531 257.93066406 C-40.45343406 256.31453494 -38.96027619 254.69517907 -37.46875 253.07421875 C-31.80089242 246.91562515 -26.10366645 240.78519532 -20.3828125 234.67578125 C-19.74754639 233.99668701 -19.11228027 233.31759277 -18.45776367 232.61791992 C-17.85552979 231.9757251 -17.2532959 231.33353027 -16.6328125 230.671875 C-16.06949219 230.07101074 -15.50617188 229.47014648 -14.92578125 228.85107422 C-13.63316 227.49995776 -12.29425072 226.19333173 -10.9453125 224.8984375 C-9.1543576 223.37551594 -9.1543576 223.37551594 -9.3828125 221.23828125 C-5.27424847 225.14330174 -1.8529244 229.34074608 1.5546875 233.86328125 C2.11824951 234.60545898 2.68181152 235.34763672 3.26245117 236.11230469 C7.96048253 242.31928276 12.57192333 248.58911149 17.17358398 254.86767578 C21.58740135 260.87697313 26.08529302 266.81765952 30.6171875 272.73828125 C37.49040506 281.71865305 44.23378986 290.78777552 50.90478516 299.91918945 C51.46987793 300.68448975 52.0349707 301.44979004 52.6171875 302.23828125 C53.09307816 303.23575882 53.09307816 303.23575882 53.57858276 304.25338745 C55.03074482 306.86139998 56.22799226 308.42358891 58.6171875 310.23828125 C63.98203609 311.38093995 69.28605552 311.17031318 74.734375 311.01953125 C76.31760798 311.00459763 77.90087811 310.99321589 79.48416138 310.98522949 C83.63785085 310.95478156 87.789278 310.87628873 91.94207764 310.78759766 C96.1850321 310.70554344 100.42835466 310.66917668 104.671875 310.62890625 C112.98801381 310.54328138 121.30231872 310.40687044 129.6171875 310.23828125 C128.66457381 308.79548462 127.71011606 307.35390543 126.75488281 305.9128418 C126.2235675 305.1099321 125.6922522 304.3070224 125.14483643 303.4797821 C123.36317492 300.86557165 121.42228475 298.45493127 119.3671875 296.05078125 C116.08323316 292.1024116 113.00273589 288.06571447 110.0546875 283.86328125 C105.80334923 277.81225505 101.36557807 271.92013026 96.8671875 266.05078125 C91.04026167 258.44445306 85.2984516 250.78388311 79.63037109 243.05859375 C74.0164278 235.40861329 68.32327011 227.81965606 62.6171875 220.23828125 C60.65778086 217.63491968 58.69925723 215.03090014 56.7421875 212.42578125 C56.2579834 211.78125 55.7737793 211.13671875 55.27490234 210.47265625 C50.58655433 204.21948204 45.95502294 197.92469507 41.33642578 191.61987305 C40.77938965 190.86101807 40.22235352 190.10216309 39.6484375 189.3203125 C38.86726563 188.25031006 38.86726563 188.25031006 38.0703125 187.15869141 C36.83582467 185.52722614 35.50125933 183.9722678 34.1484375 182.4375 C32.6171875 180.23828125 32.6171875 180.23828125 32.84814453 178.30395508 C33.71041164 175.98787825 34.68204006 174.76309876 36.390625 172.98828125 C36.96232422 172.38628906 37.53402344 171.78429687 38.12304688 171.1640625 C39.04827148 170.21080078 39.04827148 170.21080078 39.9921875 169.23828125 C41.28173862 167.88457988 42.57079601 166.53040801 43.859375 165.17578125 C44.4997168 164.50675781 45.14005859 163.83773437 45.79980469 163.1484375 C48.27684416 160.54495056 50.69805479 157.89571659 53.1171875 155.23828125 C56.17408297 151.88482129 59.25275738 148.55835747 62.375 145.265625 C63.01630859 144.58693359 63.65761719 143.90824219 64.31835938 143.20898438 C65.57865513 141.87703728 66.84284552 140.54876206 68.11132812 139.22460938 C68.68302734 138.61939453 69.25472656 138.01417969 69.84375 137.390625 C70.35502441 136.85429443 70.86629883 136.31796387 71.39306641 135.76538086 C72.84367963 134.13650355 72.84367963 134.13650355 73.6171875 131.23828125 C74.2771875 131.23828125 74.9371875 131.23828125 75.6171875 131.23828125 C77.15484906 129.73503849 77.15484906 129.73503849 78.74609375 127.76171875 C81.28680218 124.77241752 83.87270175 121.86505542 86.58203125 119.02734375 C87.56333008 117.99673828 87.56333008 117.99673828 88.56445312 116.9453125 C89.91604095 115.53138451 91.2703047 114.12001061 92.62695312 112.7109375 C93.5947168 111.69193359 93.5947168 111.69193359 94.58203125 110.65234375 C95.45782837 109.7389624 95.45782837 109.7389624 96.35131836 108.80712891 C97.82650538 107.31484167 97.82650538 107.31484167 97.6171875 105.23828125 C98.2771875 105.23828125 98.9371875 105.23828125 99.6171875 105.23828125 C101.05185766 103.85870709 101.05185766 103.85870709 102.5546875 101.98828125 C106.26950646 97.60448006 110.13939638 93.38722239 114.06030273 89.18847656 C116.52175697 87.03439506 116.52175697 87.03439506 117.6171875 84.23828125 C106.40112966 83.01082338 106.40112966 83.01082338 95.8203125 85.73828125 C93.81800139 87.78864783 92.22882975 89.8710561 90.6171875 92.23828125 C89.36154776 93.68907154 88.09100277 95.12711815 86.8046875 96.55078125 C85.99064453 97.50404297 85.99064453 97.50404297 85.16015625 98.4765625 C83.6171875 100.23828125 83.6171875 100.23828125 81.91796875 101.84375 C80.38982107 103.16419673 80.38982107 103.16419673 80.6171875 105.23828125 C79.9571875 105.23828125 79.2971875 105.23828125 78.6171875 105.23828125 C77.28466441 106.51702084 77.28466441 106.51702084 75.8671875 108.30078125 C72.33569304 112.45634437 68.66032298 116.45011557 64.9296875 120.42578125 C59.7389547 125.96455835 54.57111771 131.52290369 49.43676758 137.11401367 C47.5938429 139.11705232 45.76244615 141.1007656 43.78515625 142.97265625 C42.39112554 144.19621212 42.39112554 144.19621212 42.6171875 146.23828125 C41.9571875 146.23828125 41.2971875 146.23828125 40.6171875 146.23828125 C39.14848022 147.65148044 39.14848022 147.65148044 37.6171875 149.55078125 C34.53701664 153.1779592 31.38849301 156.72536953 28.1796875 160.23828125 C27.31472656 161.18703125 26.44976562 162.13578125 25.55859375 163.11328125 C24.91792969 163.81453125 24.27726563 164.51578125 23.6171875 165.23828125 C20.16666517 164.08810714 19.64605851 163.28299403 17.578125 160.40625 C17.00255859 159.61412109 16.42699219 158.82199219 15.83398438 158.00585938 C15.22619141 157.15443359 14.61839844 156.30300781 13.9921875 155.42578125 C12.71913356 153.66899282 11.44569702 151.91248158 10.171875 150.15625 C9.55666992 149.30337402 8.94146484 148.45049805 8.30761719 147.57177734 C6.27655308 144.76806406 4.20512504 141.99987411 2.1171875 139.23828125 C-2.35791755 133.2964751 -6.75307495 127.29684112 -11.15576172 121.30126953 C-15.27517664 115.70531399 -19.41916167 110.14296889 -23.84448242 104.78320312 C-25.78840011 102.27255927 -27.02344443 99.87419508 -28.20947266 96.93432617 C-30.63676431 91.58609393 -33.27593422 87.34592031 -38.3828125 84.23828125 C-49.28079275 81.47574074 -60.99026864 82.55766983 -72.11968994 83.07098389 C-76.3218321 83.24621347 -80.52571179 83.32280234 -84.73046875 83.40820312 C-92.95270655 83.58950149 -101.16644314 83.8788067 -109.3828125 84.23828125 Z " fill="#264795" transform="translate(289.3828125,10.76171875)"/>
<path d="M0 0 C4.6952493 -0.24885128 9.38660166 -0.42936152 14.08691406 -0.54931641 C15.68199553 -0.59934425 17.27662433 -0.66739914 18.87011719 -0.75439453 C32.03374407 -1.45458745 32.03374407 -1.45458745 36.65039062 1.96069336 C38.72409989 4.53369336 40.36422224 7.13178694 42 10 C43.07472314 11.47885984 44.16784181 12.94457315 45.28125 14.39453125 C46.35575888 15.86602616 47.42862652 17.33872069 48.5 18.8125 C53.58952234 25.76892137 58.75984295 32.65639794 64 39.5 C71.45557842 49.24526303 78.75043383 59.10096097 86 69 C93.28053001 78.9366389 100.59971582 88.83248958 108.11230469 98.59521484 C112.6758278 104.53991287 117.11633608 110.57002873 121.54541016 116.61523438 C126.7606543 123.71524551 132.09928678 130.71750084 137.45141602 137.71459961 C141.37729288 142.85280186 145.24431132 148.02313164 149.01953125 153.2734375 C151.62186259 156.8561343 154.27819224 160.39697954 156.9375 163.9375 C157.4538501 164.62537598 157.9702002 165.31325195 158.50219727 166.02197266 C160.81279093 169.09765147 163.12718399 172.17028412 165.453125 175.234375 C169.42500469 180.48392228 173.30329752 185.78424922 177.0625 191.1875 C177.45719482 191.75299561 177.85188965 192.31849121 178.25854492 192.90112305 C181 196.87657091 181 196.87657091 181 198 C151.17295381 200.50566462 151.17295381 200.50566462 143.39013672 196.73583984 C139.47989025 193.36994323 137.38330191 189.03103073 135.23291016 184.41308594 C132.98430322 180.0120501 129.87089099 176.22463301 126.875 172.3125 C125.68343208 170.69734932 124.49456297 169.08020363 123.30859375 167.4609375 C120.56598443 163.74726452 117.77021255 160.08283836 114.9375 156.4375 C111.08837241 151.47696036 107.4026746 146.4190567 103.75 141.3125 C98.62791866 134.15651665 93.30903509 127.18186485 87.87988281 120.25683594 C84.21211107 115.5740058 80.63830045 110.84354519 77.16796875 106.01171875 C69.25485968 95.01891318 61.16416808 84.16086909 52.90454102 73.42651367 C47.57285529 66.48034331 42.39268556 59.42548624 37.2109375 52.3671875 C33.18201728 46.88004746 29.09456729 41.43831704 25 36 C23.51970409 34.0278238 22.04028627 32.05499121 20.56103516 30.08203125 C19.02026921 28.02703407 17.47889107 25.97249707 15.9375 23.91796875 C14.08114705 21.44303344 12.22683573 18.96659811 10.375 16.48828125 C9.199375 14.91626953 9.199375 14.91626953 8 13.3125 C7.319375 12.40113281 6.63875 11.48976563 5.9375 10.55078125 C4.59211239 8.77953506 3.19134436 7.04954884 1.75 5.35546875 C0 3 0 3 0 0 Z " fill="#264795" transform="translate(209,109)"/>
<path d="" fill="#274896" transform="translate(0,0)"/>
</svg>
