<svg width="44" height="44" viewBox="0 0 44 44" fill="none" xmlns="http://www.w3.org/2000/svg">
<g clip-path="url(#clip0_32_366)">
<path d="M23.4512 33.7435C23.4512 39.3989 28.0603 43.9999 33.7258 43.9999C39.3913 43.9999 44.0003 39.399 44.0003 33.7435C44.0003 28.0881 39.3912 23.4871 33.7257 23.4871C28.0602 23.4871 23.4512 28.0882 23.4512 33.7435ZM27.9231 30.3439C27.9231 29.5882 28.5368 28.9756 29.2938 28.9756C30.0508 28.9756 30.6645 29.5883 30.6645 30.3439C30.6645 31.0997 30.0508 31.7122 29.2938 31.7122C28.5368 31.7122 27.9231 31.0997 27.9231 30.3439ZM37.1115 39.483C36.7255 39.7403 36.2818 39.8984 35.82 39.943C35.3582 39.9876 34.8925 39.9174 34.4643 39.7387C33.9451 39.5227 33.3421 39.5227 32.8223 39.7389C32.3948 39.9171 31.9301 39.9875 31.469 39.9437C31.008 39.9 30.5648 39.7435 30.1784 39.488C29.4015 38.9751 28.9336 38.1153 28.9269 37.1881V37.1781L28.9268 37.1534C28.9268 35.8929 29.4194 34.7085 30.3138 33.8186C31.2045 32.9325 32.3864 32.4451 33.6433 32.4451H33.6594C36.1595 32.4534 38.2213 34.4101 38.3534 36.8997C38.358 36.9835 38.3602 37.0685 38.3602 37.1521C38.3607 37.6135 38.247 38.0679 38.0291 38.4746C37.8112 38.8813 37.496 39.2278 37.1115 39.483ZM38.1577 28.9756C38.9147 28.9756 39.5284 29.5883 39.5284 30.3439C39.5284 31.0997 38.9147 31.7122 38.1577 31.7122C37.4006 31.7122 36.787 31.0996 36.787 30.3439C36.787 29.5883 37.4006 28.9756 38.1577 28.9756ZM35.0142 28.4848C35.0142 29.2405 34.4006 29.8531 33.6435 29.8531C32.8865 29.8531 32.2728 29.2404 32.2728 28.4848C32.2728 27.729 32.8865 27.1165 33.6435 27.1165C34.4006 27.1165 35.0142 27.729 35.0142 28.4848Z" fill="#E73D47"/>
<path d="M33.65 35.1818C33.39 35.1802 33.1323 35.2303 32.8918 35.329C32.6512 35.4277 32.4327 35.5732 32.2487 35.757C31.8742 36.1297 31.6679 36.6256 31.6679 37.1535L31.668 37.1682C31.6681 37.1813 31.6681 37.1907 31.6906 37.2055C31.727 37.2296 31.7555 37.2177 31.7677 37.2127C32.3635 36.965 32.9944 36.8394 33.6432 36.8394C34.2919 36.8394 34.9226 36.965 35.5181 37.2125C35.5325 37.2185 35.5566 37.2286 35.5899 37.2066C35.6184 37.1875 35.6184 37.1691 35.6184 37.1528C35.6184 37.1166 35.6175 37.0807 35.6156 37.0448C35.5612 36.0208 34.6796 35.1851 33.65 35.1818ZM20.7094 33.7436C20.7094 26.5793 26.5483 20.7506 33.7254 20.7506C36.2763 20.7506 38.6578 21.4875 40.6685 22.7583V14.4017C40.6685 13.646 40.0549 13.0335 39.2978 13.0335H27.6121V1.3683C27.6121 0.612563 26.9985 0 26.2414 0H14.4273C13.6702 0 13.0566 0.612648 13.0566 1.3683V13.0335H1.3707C0.61368 13.0335 0 13.6461 0 14.4017V26.195C0 26.9507 0.61368 27.5632 1.3707 27.5632H13.0565V39.2284C13.0565 39.9841 13.6702 40.5967 14.4272 40.5967H22.672C21.4289 38.606 20.7094 36.2573 20.7094 33.7436Z" fill="#E73D47"/>
</g>
<defs>
<clipPath id="clip0_32_366">
<rect width="44" height="44" fill="white"/>
</clipPath>
</defs>
</svg>
