<svg width="44" height="44" viewBox="0 0 44 44" fill="none" xmlns="http://www.w3.org/2000/svg">
<g clip-path="url(#clip0_32_393)">
<path d="M20.7214 15.2952L12.2967 12.3459C12.2967 15.0387 12.274 15.0196 12.3586 15.2737C12.4173 15.4572 12.5164 15.6253 12.6486 15.7654C12.7809 15.9056 12.9429 16.0142 13.1228 16.0834C22.3023 19.6144 21.6569 19.4056 21.9996 19.4056C22.3394 19.4056 21.6861 19.6182 30.8756 16.0834C31.1191 15.9901 31.3285 15.8251 31.4762 15.6103C31.6238 15.3954 31.7028 15.1407 31.7025 14.88V12.4869L23.2228 15.3141C22.41 15.5852 21.5301 15.5785 20.7214 15.2952Z" fill="#E73D47"/>
<path d="M8.31029 8.16589C8.62059 8.3715 7.58265 7.96432 21.5736 12.8609C21.843 12.9559 22.1364 12.9583 22.4073 12.8678L34.3022 8.90255V16.1746C34.3022 16.5304 34.4466 16.8536 34.6804 17.0866C35.4883 17.8946 36.8809 17.3193 36.8809 16.1746C36.8809 7.38307 36.8786 7.18425 36.8783 7.18537C36.9171 6.6355 36.5706 6.08116 35.999 5.89059C22.234 1.3026 22.3055 1.29443 21.9999 1.29443C21.6828 1.29443 21.775 1.2971 8.63005 5.89661C7.64944 6.23975 7.45484 7.55413 8.31029 8.16589ZM7.75586 28.4622H10.3552V31.0607H7.75586V28.4622Z" fill="#E73D47"/>
<path d="M42.7106 7.11377H39.4597V16.1746C39.4597 18.308 37.7242 20.0427 35.5916 20.0427C34.2189 20.0427 33.0112 19.3241 32.3244 18.2436C31.9692 18.445 32.5591 18.1993 23.3891 21.7266C22.495 22.0706 21.505 22.0706 20.6109 21.7266L12.1974 18.4903C11.4676 18.2097 10.8401 17.7145 10.3975 17.07C9.95491 16.4254 9.71813 15.6619 9.71837 14.88V11.4443L7.77831 10.7644C6.22849 10.2229 5.18754 8.75556 5.18754 7.11377H1.28936C0.577635 7.11377 0 7.6914 0 8.40313V36.2388C0 36.9505 0.577635 37.5282 1.28936 37.5282H12.9441V40.1267H9.05564C8.34391 40.1267 7.76627 40.7043 7.76627 41.416C7.76627 42.1286 8.34391 42.7054 9.05564 42.7054H34.9444C35.6561 42.7054 36.2337 42.1286 36.2337 41.416C36.2337 40.7043 35.6561 40.1267 34.9444 40.1267H31.0558V37.5282H42.7106C43.4224 37.5282 44 36.9505 44 36.2388V8.40313C44 7.6914 43.4224 7.11377 42.7106 7.11377ZM12.934 32.3501C12.934 33.0627 12.3564 33.6394 11.6447 33.6394H6.46659C5.75487 33.6394 5.17723 33.0627 5.17723 32.3501V27.1728C5.17723 26.4603 5.75487 25.8835 6.46659 25.8835H11.6447C12.3564 25.8835 12.934 26.4603 12.934 27.1728V32.3501ZM37.5334 33.6394H16.8219C16.1102 33.6394 15.5325 33.0627 15.5325 32.3501C15.5325 31.6383 16.1102 31.0607 16.8219 31.0607H37.5334C38.2451 31.0607 38.8228 31.6383 38.8228 32.3501C38.8228 33.0627 38.2451 33.6394 37.5334 33.6394ZM37.5334 28.4622H16.8219C16.1102 28.4622 15.5325 27.8846 15.5325 27.1728C15.5325 26.4603 16.1102 25.8835 16.8219 25.8835H37.5334C38.2451 25.8835 38.8228 26.4603 38.8228 27.1728C38.8228 27.8846 38.2451 28.4622 37.5334 28.4622Z" fill="#E73D47"/>
</g>
<defs>
<clipPath id="clip0_32_393">
<rect width="44" height="44" fill="white"/>
</clipPath>
</defs>
</svg>
